M48
INCH,TZ
T1C0.0197
T2C0.0236
T3C0.0315
T4C0.0394
T5C0.0472
T6C0.0551
T7C0.0591
%
G90
G05
T1
X54935Y-37932
X54935Y-38680
T2
X49655Y-36580
X50045Y-36040
X50500Y-48845
X51092Y-36289
X51695Y-35495
X52955Y-40180
X54638Y-42560
X55370Y-42220
X55585Y-39195
X56270Y-46580
X57415Y-40600
X60400Y-41610
X60510Y-39910
T3
X52560Y-35090
X53560Y-35090
X54560Y-35090
X46000Y-42990
X46000Y-43990
X49000Y-42990
X49000Y-43990
X43050Y-37250
X43050Y-38234
X65900Y-43500
X65900Y-47500
X56300Y-35075
X57300Y-35075
X58300Y-35075
X63375Y-43425
X64359Y-43425
X65900Y-38550
X65900Y-42550
X46000Y-46590
X46000Y-47590
X49000Y-46590
X49000Y-47590
X44650Y-41140
X44650Y-47140
X57955Y-42925
X57955Y-43909
X45825Y-37250
X45825Y-38234
X43000Y-41140
X43000Y-47140
T4
X65200Y-31800
X66200Y-31800
X67200Y-31800
X68200Y-31800
X69200Y-31800
X70200Y-31800
X71200Y-31800
X72200Y-31800
X65900Y-34975
X65900Y-35975
X45600Y-31800
X46600Y-31800
X47600Y-31800
X48600Y-31800
X49600Y-31800
X50600Y-31800
X51600Y-31800
X52600Y-31800
X53600Y-31800
X54600Y-31800
X67200Y-50800
X68200Y-50800
X69200Y-50800
X70200Y-50800
X71200Y-50800
X72200Y-50800
X73200Y-50800
X74200Y-50800
X51300Y-50800
X52300Y-50800
X53300Y-50800
X54300Y-50800
X55300Y-50800
X56300Y-50800
X58200Y-50800
X59200Y-50800
X60200Y-50800
X61200Y-50800
X62200Y-50800
X63200Y-50800
X64200Y-50800
X65200Y-50800
X56200Y-31800
X57200Y-31800
X58200Y-31800
X59200Y-31800
X60200Y-31800
X61200Y-31800
X62200Y-31800
X63200Y-31800
T5
X63200Y-33400
X63200Y-34400
X63200Y-35400
X63200Y-36400
X63200Y-37400
X63200Y-38400
X60400Y-34525
X60400Y-35525
X60400Y-36525
X67915Y-35990
X67915Y-45990
X71915Y-40990
X40050Y-36000
X40050Y-37000
X40050Y-38000
X65900Y-37300
X65900Y-45300
X57775Y-47170
X57775Y-48170
X43600Y-33950
X44600Y-33950
X45600Y-33950
X46600Y-33950
T6
X40410Y-41257
X40410Y-44209
X40410Y-47162
X40410Y-50115
X52155Y-47295
X54124Y-47295
T7
X48503Y-38250
X56570Y-38250
T0
M30
