G04 #@! TF.GenerationSoftware,KiCad,Pcbnew,5.1.5+dfsg1-2build2*
G04 #@! TF.CreationDate,2023-01-29T23:08:56+01:00*
G04 #@! TF.ProjectId,OpenEVSE_mega2560_shield,4f70656e-4556-4534-955f-6d6567613235,rev?*
G04 #@! TF.SameCoordinates,Original*
G04 #@! TF.FileFunction,Soldermask,Bot*
G04 #@! TF.FilePolarity,Negative*
%FSLAX46Y46*%
G04 Gerber Fmt 4.6, Leading zero omitted, Abs format (unit mm)*
G04 Created by KiCad (PCBNEW 5.1.5+dfsg1-2build2) date 2023-01-29 23:08:56*
%MOMM*%
%LPD*%
G04 APERTURE LIST*
%ADD10C,0.100000*%
%ADD11C,0.150000*%
%ADD12C,0.300000*%
%ADD13C,0.400000*%
G04 APERTURE END LIST*
D10*
D11*
X177002200Y-166007200D02*
X177002200Y-198007200D01*
X285002200Y-198007200D01*
X285002200Y-166007200D01*
X177002200Y-166007200D01*
D10*
D11*
X10000000Y-10000000D02*
X10000000Y-200007200D01*
X287002200Y-200007200D01*
X287002200Y-10000000D01*
X10000000Y-10000000D01*
D10*
D11*
X12000000Y-12000000D02*
X12000000Y-198007200D01*
X285002200Y-198007200D01*
X285002200Y-12000000D01*
X12000000Y-12000000D01*
D10*
D11*
X60000000Y-12000000D02*
X60000000Y-10000000D01*
D10*
D11*
X110000000Y-12000000D02*
X110000000Y-10000000D01*
D10*
D11*
X160000000Y-12000000D02*
X160000000Y-10000000D01*
D10*
D11*
X210000000Y-12000000D02*
X210000000Y-10000000D01*
D10*
D11*
X260000000Y-12000000D02*
X260000000Y-10000000D01*
D10*
D11*
X36065476Y-11588095D02*
X35322619Y-11588095D01*
X35694047Y-11588095D02*
X35694047Y-10288095D01*
X35570238Y-10473809D01*
X35446428Y-10597619D01*
X35322619Y-10659523D01*
D10*
D11*
X85322619Y-10411904D02*
X85384523Y-10350000D01*
X85508333Y-10288095D01*
X85817857Y-10288095D01*
X85941666Y-10350000D01*
X86003571Y-10411904D01*
X86065476Y-10535714D01*
X86065476Y-10659523D01*
X86003571Y-10845238D01*
X85260714Y-11588095D01*
X86065476Y-11588095D01*
D10*
D11*
X135260714Y-10288095D02*
X136065476Y-10288095D01*
X135632142Y-10783333D01*
X135817857Y-10783333D01*
X135941666Y-10845238D01*
X136003571Y-10907142D01*
X136065476Y-11030952D01*
X136065476Y-11340476D01*
X136003571Y-11464285D01*
X135941666Y-11526190D01*
X135817857Y-11588095D01*
X135446428Y-11588095D01*
X135322619Y-11526190D01*
X135260714Y-11464285D01*
D10*
D11*
X185941666Y-10721428D02*
X185941666Y-11588095D01*
X185632142Y-10226190D02*
X185322619Y-11154761D01*
X186127380Y-11154761D01*
D10*
D11*
X236003571Y-10288095D02*
X235384523Y-10288095D01*
X235322619Y-10907142D01*
X235384523Y-10845238D01*
X235508333Y-10783333D01*
X235817857Y-10783333D01*
X235941666Y-10845238D01*
X236003571Y-10907142D01*
X236065476Y-11030952D01*
X236065476Y-11340476D01*
X236003571Y-11464285D01*
X235941666Y-11526190D01*
X235817857Y-11588095D01*
X235508333Y-11588095D01*
X235384523Y-11526190D01*
X235322619Y-11464285D01*
D10*
D11*
X285941666Y-10288095D02*
X285694047Y-10288095D01*
X285570238Y-10350000D01*
X285508333Y-10411904D01*
X285384523Y-10597619D01*
X285322619Y-10845238D01*
X285322619Y-11340476D01*
X285384523Y-11464285D01*
X285446428Y-11526190D01*
X285570238Y-11588095D01*
X285817857Y-11588095D01*
X285941666Y-11526190D01*
X286003571Y-11464285D01*
X286065476Y-11340476D01*
X286065476Y-11030952D01*
X286003571Y-10907142D01*
X285941666Y-10845238D01*
X285817857Y-10783333D01*
X285570238Y-10783333D01*
X285446428Y-10845238D01*
X285384523Y-10907142D01*
X285322619Y-11030952D01*
D10*
D11*
X60000000Y-198007200D02*
X60000000Y-200007200D01*
D10*
D11*
X110000000Y-198007200D02*
X110000000Y-200007200D01*
D10*
D11*
X160000000Y-198007200D02*
X160000000Y-200007200D01*
D10*
D11*
X210000000Y-198007200D02*
X210000000Y-200007200D01*
D10*
D11*
X260000000Y-198007200D02*
X260000000Y-200007200D01*
D10*
D11*
X36065476Y-199595295D02*
X35322619Y-199595295D01*
X35694047Y-199595295D02*
X35694047Y-198295295D01*
X35570238Y-198481009D01*
X35446428Y-198604819D01*
X35322619Y-198666723D01*
D10*
D11*
X85322619Y-198419104D02*
X85384523Y-198357200D01*
X85508333Y-198295295D01*
X85817857Y-198295295D01*
X85941666Y-198357200D01*
X86003571Y-198419104D01*
X86065476Y-198542914D01*
X86065476Y-198666723D01*
X86003571Y-198852438D01*
X85260714Y-199595295D01*
X86065476Y-199595295D01*
D10*
D11*
X135260714Y-198295295D02*
X136065476Y-198295295D01*
X135632142Y-198790533D01*
X135817857Y-198790533D01*
X135941666Y-198852438D01*
X136003571Y-198914342D01*
X136065476Y-199038152D01*
X136065476Y-199347676D01*
X136003571Y-199471485D01*
X135941666Y-199533390D01*
X135817857Y-199595295D01*
X135446428Y-199595295D01*
X135322619Y-199533390D01*
X135260714Y-199471485D01*
D10*
D11*
X185941666Y-198728628D02*
X185941666Y-199595295D01*
X185632142Y-198233390D02*
X185322619Y-199161961D01*
X186127380Y-199161961D01*
D10*
D11*
X236003571Y-198295295D02*
X235384523Y-198295295D01*
X235322619Y-198914342D01*
X235384523Y-198852438D01*
X235508333Y-198790533D01*
X235817857Y-198790533D01*
X235941666Y-198852438D01*
X236003571Y-198914342D01*
X236065476Y-199038152D01*
X236065476Y-199347676D01*
X236003571Y-199471485D01*
X235941666Y-199533390D01*
X235817857Y-199595295D01*
X235508333Y-199595295D01*
X235384523Y-199533390D01*
X235322619Y-199471485D01*
D10*
D11*
X285941666Y-198295295D02*
X285694047Y-198295295D01*
X285570238Y-198357200D01*
X285508333Y-198419104D01*
X285384523Y-198604819D01*
X285322619Y-198852438D01*
X285322619Y-199347676D01*
X285384523Y-199471485D01*
X285446428Y-199533390D01*
X285570238Y-199595295D01*
X285817857Y-199595295D01*
X285941666Y-199533390D01*
X286003571Y-199471485D01*
X286065476Y-199347676D01*
X286065476Y-199038152D01*
X286003571Y-198914342D01*
X285941666Y-198852438D01*
X285817857Y-198790533D01*
X285570238Y-198790533D01*
X285446428Y-198852438D01*
X285384523Y-198914342D01*
X285322619Y-199038152D01*
D10*
D11*
X10000000Y-60000000D02*
X12000000Y-60000000D01*
D10*
D11*
X10000000Y-110000000D02*
X12000000Y-110000000D01*
D10*
D11*
X10000000Y-160000000D02*
X12000000Y-160000000D01*
D10*
D11*
X10690476Y-35216666D02*
X11309523Y-35216666D01*
X10566666Y-35588095D02*
X11000000Y-34288095D01*
X11433333Y-35588095D01*
D10*
D11*
X11092857Y-84907142D02*
X11278571Y-84969047D01*
X11340476Y-85030952D01*
X11402380Y-85154761D01*
X11402380Y-85340476D01*
X11340476Y-85464285D01*
X11278571Y-85526190D01*
X11154761Y-85588095D01*
X10659523Y-85588095D01*
X10659523Y-84288095D01*
X11092857Y-84288095D01*
X11216666Y-84350000D01*
X11278571Y-84411904D01*
X11340476Y-84535714D01*
X11340476Y-84659523D01*
X11278571Y-84783333D01*
X11216666Y-84845238D01*
X11092857Y-84907142D01*
X10659523Y-84907142D01*
D10*
D11*
X11402380Y-135464285D02*
X11340476Y-135526190D01*
X11154761Y-135588095D01*
X11030952Y-135588095D01*
X10845238Y-135526190D01*
X10721428Y-135402380D01*
X10659523Y-135278571D01*
X10597619Y-135030952D01*
X10597619Y-134845238D01*
X10659523Y-134597619D01*
X10721428Y-134473809D01*
X10845238Y-134350000D01*
X11030952Y-134288095D01*
X11154761Y-134288095D01*
X11340476Y-134350000D01*
X11402380Y-134411904D01*
D10*
D11*
X10659523Y-185588095D02*
X10659523Y-184288095D01*
X10969047Y-184288095D01*
X11154761Y-184350000D01*
X11278571Y-184473809D01*
X11340476Y-184597619D01*
X11402380Y-184845238D01*
X11402380Y-185030952D01*
X11340476Y-185278571D01*
X11278571Y-185402380D01*
X11154761Y-185526190D01*
X10969047Y-185588095D01*
X10659523Y-185588095D01*
D10*
D11*
X287002200Y-60000000D02*
X285002200Y-60000000D01*
D10*
D11*
X287002200Y-110000000D02*
X285002200Y-110000000D01*
D10*
D11*
X287002200Y-160000000D02*
X285002200Y-160000000D01*
D10*
D11*
X285692676Y-35216666D02*
X286311723Y-35216666D01*
X285568866Y-35588095D02*
X286002200Y-34288095D01*
X286435533Y-35588095D01*
D10*
D11*
X286095057Y-84907142D02*
X286280771Y-84969047D01*
X286342676Y-85030952D01*
X286404580Y-85154761D01*
X286404580Y-85340476D01*
X286342676Y-85464285D01*
X286280771Y-85526190D01*
X286156961Y-85588095D01*
X285661723Y-85588095D01*
X285661723Y-84288095D01*
X286095057Y-84288095D01*
X286218866Y-84350000D01*
X286280771Y-84411904D01*
X286342676Y-84535714D01*
X286342676Y-84659523D01*
X286280771Y-84783333D01*
X286218866Y-84845238D01*
X286095057Y-84907142D01*
X285661723Y-84907142D01*
D10*
D11*
X286404580Y-135464285D02*
X286342676Y-135526190D01*
X286156961Y-135588095D01*
X286033152Y-135588095D01*
X285847438Y-135526190D01*
X285723628Y-135402380D01*
X285661723Y-135278571D01*
X285599819Y-135030952D01*
X285599819Y-134845238D01*
X285661723Y-134597619D01*
X285723628Y-134473809D01*
X285847438Y-134350000D01*
X286033152Y-134288095D01*
X286156961Y-134288095D01*
X286342676Y-134350000D01*
X286404580Y-134411904D01*
D10*
D11*
X285661723Y-185588095D02*
X285661723Y-184288095D01*
X285971247Y-184288095D01*
X286156961Y-184350000D01*
X286280771Y-184473809D01*
X286342676Y-184597619D01*
X286404580Y-184845238D01*
X286404580Y-185030952D01*
X286342676Y-185278571D01*
X286280771Y-185402380D01*
X286156961Y-185526190D01*
X285971247Y-185588095D01*
X285661723Y-185588095D01*
D10*
D11*
X200434342Y-193785771D02*
X200434342Y-192285771D01*
X200791485Y-192285771D01*
X201005771Y-192357200D01*
X201148628Y-192500057D01*
X201220057Y-192642914D01*
X201291485Y-192928628D01*
X201291485Y-193142914D01*
X201220057Y-193428628D01*
X201148628Y-193571485D01*
X201005771Y-193714342D01*
X200791485Y-193785771D01*
X200434342Y-193785771D01*
X202577200Y-193785771D02*
X202577200Y-193000057D01*
X202505771Y-192857200D01*
X202362914Y-192785771D01*
X202077200Y-192785771D01*
X201934342Y-192857200D01*
X202577200Y-193714342D02*
X202434342Y-193785771D01*
X202077200Y-193785771D01*
X201934342Y-193714342D01*
X201862914Y-193571485D01*
X201862914Y-193428628D01*
X201934342Y-193285771D01*
X202077200Y-193214342D01*
X202434342Y-193214342D01*
X202577200Y-193142914D01*
X203077200Y-192785771D02*
X203648628Y-192785771D01*
X203291485Y-192285771D02*
X203291485Y-193571485D01*
X203362914Y-193714342D01*
X203505771Y-193785771D01*
X203648628Y-193785771D01*
X204720057Y-193714342D02*
X204577200Y-193785771D01*
X204291485Y-193785771D01*
X204148628Y-193714342D01*
X204077200Y-193571485D01*
X204077200Y-193000057D01*
X204148628Y-192857200D01*
X204291485Y-192785771D01*
X204577200Y-192785771D01*
X204720057Y-192857200D01*
X204791485Y-193000057D01*
X204791485Y-193142914D01*
X204077200Y-193285771D01*
X205434342Y-193642914D02*
X205505771Y-193714342D01*
X205434342Y-193785771D01*
X205362914Y-193714342D01*
X205434342Y-193642914D01*
X205434342Y-193785771D01*
X205434342Y-192857200D02*
X205505771Y-192928628D01*
X205434342Y-193000057D01*
X205362914Y-192928628D01*
X205434342Y-192857200D01*
X205434342Y-193000057D01*
D10*
D11*
X177002200Y-194507200D02*
X285002200Y-194507200D01*
D10*
D11*
X178434342Y-196585771D02*
X178434342Y-195085771D01*
X179291485Y-196585771D02*
X178648628Y-195728628D01*
X179291485Y-195085771D02*
X178434342Y-195942914D01*
X179934342Y-196585771D02*
X179934342Y-195585771D01*
X179934342Y-195085771D02*
X179862914Y-195157200D01*
X179934342Y-195228628D01*
X180005771Y-195157200D01*
X179934342Y-195085771D01*
X179934342Y-195228628D01*
X181505771Y-196442914D02*
X181434342Y-196514342D01*
X181220057Y-196585771D01*
X181077200Y-196585771D01*
X180862914Y-196514342D01*
X180720057Y-196371485D01*
X180648628Y-196228628D01*
X180577200Y-195942914D01*
X180577200Y-195728628D01*
X180648628Y-195442914D01*
X180720057Y-195300057D01*
X180862914Y-195157200D01*
X181077200Y-195085771D01*
X181220057Y-195085771D01*
X181434342Y-195157200D01*
X181505771Y-195228628D01*
X182791485Y-196585771D02*
X182791485Y-195800057D01*
X182720057Y-195657200D01*
X182577200Y-195585771D01*
X182291485Y-195585771D01*
X182148628Y-195657200D01*
X182791485Y-196514342D02*
X182648628Y-196585771D01*
X182291485Y-196585771D01*
X182148628Y-196514342D01*
X182077200Y-196371485D01*
X182077200Y-196228628D01*
X182148628Y-196085771D01*
X182291485Y-196014342D01*
X182648628Y-196014342D01*
X182791485Y-195942914D01*
X184148628Y-196585771D02*
X184148628Y-195085771D01*
X184148628Y-196514342D02*
X184005771Y-196585771D01*
X183720057Y-196585771D01*
X183577200Y-196514342D01*
X183505771Y-196442914D01*
X183434342Y-196300057D01*
X183434342Y-195871485D01*
X183505771Y-195728628D01*
X183577200Y-195657200D01*
X183720057Y-195585771D01*
X184005771Y-195585771D01*
X184148628Y-195657200D01*
X186005771Y-195800057D02*
X186505771Y-195800057D01*
X186720057Y-196585771D02*
X186005771Y-196585771D01*
X186005771Y-195085771D01*
X186720057Y-195085771D01*
X187362914Y-196442914D02*
X187434342Y-196514342D01*
X187362914Y-196585771D01*
X187291485Y-196514342D01*
X187362914Y-196442914D01*
X187362914Y-196585771D01*
X188077200Y-196585771D02*
X188077200Y-195085771D01*
X188434342Y-195085771D01*
X188648628Y-195157200D01*
X188791485Y-195300057D01*
X188862914Y-195442914D01*
X188934342Y-195728628D01*
X188934342Y-195942914D01*
X188862914Y-196228628D01*
X188791485Y-196371485D01*
X188648628Y-196514342D01*
X188434342Y-196585771D01*
X188077200Y-196585771D01*
X189577200Y-196442914D02*
X189648628Y-196514342D01*
X189577200Y-196585771D01*
X189505771Y-196514342D01*
X189577200Y-196442914D01*
X189577200Y-196585771D01*
X190220057Y-196157200D02*
X190934342Y-196157200D01*
X190077200Y-196585771D02*
X190577200Y-195085771D01*
X191077200Y-196585771D01*
X191577200Y-196442914D02*
X191648628Y-196514342D01*
X191577200Y-196585771D01*
X191505771Y-196514342D01*
X191577200Y-196442914D01*
X191577200Y-196585771D01*
X194577200Y-196585771D02*
X194577200Y-195085771D01*
X194720057Y-196014342D02*
X195148628Y-196585771D01*
X195148628Y-195585771D02*
X194577200Y-196157200D01*
X195791485Y-196585771D02*
X195791485Y-195585771D01*
X195791485Y-195085771D02*
X195720057Y-195157200D01*
X195791485Y-195228628D01*
X195862914Y-195157200D01*
X195791485Y-195085771D01*
X195791485Y-195228628D01*
X197148628Y-196514342D02*
X197005771Y-196585771D01*
X196720057Y-196585771D01*
X196577200Y-196514342D01*
X196505771Y-196442914D01*
X196434342Y-196300057D01*
X196434342Y-195871485D01*
X196505771Y-195728628D01*
X196577200Y-195657200D01*
X196720057Y-195585771D01*
X197005771Y-195585771D01*
X197148628Y-195657200D01*
X198434342Y-196585771D02*
X198434342Y-195800057D01*
X198362914Y-195657200D01*
X198220057Y-195585771D01*
X197934342Y-195585771D01*
X197791485Y-195657200D01*
X198434342Y-196514342D02*
X198291485Y-196585771D01*
X197934342Y-196585771D01*
X197791485Y-196514342D01*
X197720057Y-196371485D01*
X197720057Y-196228628D01*
X197791485Y-196085771D01*
X197934342Y-196014342D01*
X198291485Y-196014342D01*
X198434342Y-195942914D01*
X199791485Y-196585771D02*
X199791485Y-195085771D01*
X199791485Y-196514342D02*
X199648628Y-196585771D01*
X199362914Y-196585771D01*
X199220057Y-196514342D01*
X199148628Y-196442914D01*
X199077200Y-196300057D01*
X199077200Y-195871485D01*
X199148628Y-195728628D01*
X199220057Y-195657200D01*
X199362914Y-195585771D01*
X199648628Y-195585771D01*
X199791485Y-195657200D01*
X202362914Y-195085771D02*
X201648628Y-195085771D01*
X201577200Y-195800057D01*
X201648628Y-195728628D01*
X201791485Y-195657200D01*
X202148628Y-195657200D01*
X202291485Y-195728628D01*
X202362914Y-195800057D01*
X202434342Y-195942914D01*
X202434342Y-196300057D01*
X202362914Y-196442914D01*
X202291485Y-196514342D01*
X202148628Y-196585771D01*
X201791485Y-196585771D01*
X201648628Y-196514342D01*
X201577200Y-196442914D01*
X203077200Y-196442914D02*
X203148628Y-196514342D01*
X203077200Y-196585771D01*
X203005771Y-196514342D01*
X203077200Y-196442914D01*
X203077200Y-196585771D01*
X204577200Y-196585771D02*
X203720057Y-196585771D01*
X204148628Y-196585771D02*
X204148628Y-195085771D01*
X204005771Y-195300057D01*
X203862914Y-195442914D01*
X203720057Y-195514342D01*
X205220057Y-196442914D02*
X205291485Y-196514342D01*
X205220057Y-196585771D01*
X205148628Y-196514342D01*
X205220057Y-196442914D01*
X205220057Y-196585771D01*
X206648628Y-195085771D02*
X205934342Y-195085771D01*
X205862914Y-195800057D01*
X205934342Y-195728628D01*
X206077200Y-195657200D01*
X206434342Y-195657200D01*
X206577200Y-195728628D01*
X206648628Y-195800057D01*
X206720057Y-195942914D01*
X206720057Y-196300057D01*
X206648628Y-196442914D01*
X206577200Y-196514342D01*
X206434342Y-196585771D01*
X206077200Y-196585771D01*
X205934342Y-196514342D01*
X205862914Y-196442914D01*
X207362914Y-196014342D02*
X208505771Y-196014342D01*
X207934342Y-196585771D02*
X207934342Y-195442914D01*
X209862914Y-196585771D02*
X209862914Y-195085771D01*
X209862914Y-196514342D02*
X209720057Y-196585771D01*
X209434342Y-196585771D01*
X209291485Y-196514342D01*
X209220057Y-196442914D01*
X209148628Y-196300057D01*
X209148628Y-195871485D01*
X209220057Y-195728628D01*
X209291485Y-195657200D01*
X209434342Y-195585771D01*
X209720057Y-195585771D01*
X209862914Y-195657200D01*
X210362914Y-195585771D02*
X210934342Y-195585771D01*
X210577200Y-196585771D02*
X210577200Y-195300057D01*
X210648628Y-195157200D01*
X210791485Y-195085771D01*
X210934342Y-195085771D01*
X211362914Y-196514342D02*
X211505771Y-196585771D01*
X211791485Y-196585771D01*
X211934342Y-196514342D01*
X212005771Y-196371485D01*
X212005771Y-196300057D01*
X211934342Y-196157200D01*
X211791485Y-196085771D01*
X211577200Y-196085771D01*
X211434342Y-196014342D01*
X211362914Y-195871485D01*
X211362914Y-195800057D01*
X211434342Y-195657200D01*
X211577200Y-195585771D01*
X211791485Y-195585771D01*
X211934342Y-195657200D01*
X213291485Y-195585771D02*
X213291485Y-196800057D01*
X213220057Y-196942914D01*
X213148628Y-197014342D01*
X213005771Y-197085771D01*
X212791485Y-197085771D01*
X212648628Y-197014342D01*
X213291485Y-196514342D02*
X213148628Y-196585771D01*
X212862914Y-196585771D01*
X212720057Y-196514342D01*
X212648628Y-196442914D01*
X212577200Y-196300057D01*
X212577200Y-195871485D01*
X212648628Y-195728628D01*
X212720057Y-195657200D01*
X212862914Y-195585771D01*
X213148628Y-195585771D01*
X213291485Y-195657200D01*
X214791485Y-196585771D02*
X213934342Y-196585771D01*
X214362914Y-196585771D02*
X214362914Y-195085771D01*
X214220057Y-195300057D01*
X214077200Y-195442914D01*
X213934342Y-195514342D01*
X215434342Y-196014342D02*
X216577200Y-196014342D01*
X217220057Y-195228628D02*
X217291485Y-195157200D01*
X217434342Y-195085771D01*
X217791485Y-195085771D01*
X217934342Y-195157200D01*
X218005771Y-195228628D01*
X218077200Y-195371485D01*
X218077200Y-195514342D01*
X218005771Y-195728628D01*
X217148628Y-196585771D01*
X218077200Y-196585771D01*
X218720057Y-196585771D02*
X218720057Y-195085771D01*
X218720057Y-195657200D02*
X218862914Y-195585771D01*
X219148628Y-195585771D01*
X219291485Y-195657200D01*
X219362914Y-195728628D01*
X219434342Y-195871485D01*
X219434342Y-196300057D01*
X219362914Y-196442914D01*
X219291485Y-196514342D01*
X219148628Y-196585771D01*
X218862914Y-196585771D01*
X218720057Y-196514342D01*
X220720057Y-195585771D02*
X220720057Y-196585771D01*
X220077200Y-195585771D02*
X220077200Y-196371485D01*
X220148628Y-196514342D01*
X220291485Y-196585771D01*
X220505771Y-196585771D01*
X220648628Y-196514342D01*
X220720057Y-196442914D01*
X221434342Y-196585771D02*
X221434342Y-195585771D01*
X221434342Y-195085771D02*
X221362914Y-195157200D01*
X221434342Y-195228628D01*
X221505771Y-195157200D01*
X221434342Y-195085771D01*
X221434342Y-195228628D01*
X222362914Y-196585771D02*
X222220057Y-196514342D01*
X222148628Y-196371485D01*
X222148628Y-195085771D01*
X223577200Y-196585771D02*
X223577200Y-195085771D01*
X223577200Y-196514342D02*
X223434342Y-196585771D01*
X223148628Y-196585771D01*
X223005771Y-196514342D01*
X222934342Y-196442914D01*
X222862914Y-196300057D01*
X222862914Y-195871485D01*
X222934342Y-195728628D01*
X223005771Y-195657200D01*
X223148628Y-195585771D01*
X223434342Y-195585771D01*
X223577200Y-195657200D01*
X224220057Y-195228628D02*
X224291485Y-195157200D01*
X224434342Y-195085771D01*
X224791485Y-195085771D01*
X224934342Y-195157200D01*
X225005771Y-195228628D01*
X225077200Y-195371485D01*
X225077200Y-195514342D01*
X225005771Y-195728628D01*
X224148628Y-196585771D01*
X225077200Y-196585771D01*
D10*
D11*
X177002200Y-191507200D02*
X285002200Y-191507200D01*
D10*
D12*
X264411485Y-193785771D02*
X263911485Y-193071485D01*
X263554342Y-193785771D02*
X263554342Y-192285771D01*
X264125771Y-192285771D01*
X264268628Y-192357200D01*
X264340057Y-192428628D01*
X264411485Y-192571485D01*
X264411485Y-192785771D01*
X264340057Y-192928628D01*
X264268628Y-193000057D01*
X264125771Y-193071485D01*
X263554342Y-193071485D01*
X265625771Y-193714342D02*
X265482914Y-193785771D01*
X265197200Y-193785771D01*
X265054342Y-193714342D01*
X264982914Y-193571485D01*
X264982914Y-193000057D01*
X265054342Y-192857200D01*
X265197200Y-192785771D01*
X265482914Y-192785771D01*
X265625771Y-192857200D01*
X265697200Y-193000057D01*
X265697200Y-193142914D01*
X264982914Y-193285771D01*
X266197200Y-192785771D02*
X266554342Y-193785771D01*
X266911485Y-192785771D01*
X267482914Y-193642914D02*
X267554342Y-193714342D01*
X267482914Y-193785771D01*
X267411485Y-193714342D01*
X267482914Y-193642914D01*
X267482914Y-193785771D01*
X267482914Y-192857200D02*
X267554342Y-192928628D01*
X267482914Y-193000057D01*
X267411485Y-192928628D01*
X267482914Y-192857200D01*
X267482914Y-193000057D01*
D10*
D11*
X178362914Y-193714342D02*
X178577200Y-193785771D01*
X178934342Y-193785771D01*
X179077200Y-193714342D01*
X179148628Y-193642914D01*
X179220057Y-193500057D01*
X179220057Y-193357200D01*
X179148628Y-193214342D01*
X179077200Y-193142914D01*
X178934342Y-193071485D01*
X178648628Y-193000057D01*
X178505771Y-192928628D01*
X178434342Y-192857200D01*
X178362914Y-192714342D01*
X178362914Y-192571485D01*
X178434342Y-192428628D01*
X178505771Y-192357200D01*
X178648628Y-192285771D01*
X179005771Y-192285771D01*
X179220057Y-192357200D01*
X179862914Y-193785771D02*
X179862914Y-192785771D01*
X179862914Y-192285771D02*
X179791485Y-192357200D01*
X179862914Y-192428628D01*
X179934342Y-192357200D01*
X179862914Y-192285771D01*
X179862914Y-192428628D01*
X180434342Y-192785771D02*
X181220057Y-192785771D01*
X180434342Y-193785771D01*
X181220057Y-193785771D01*
X182362914Y-193714342D02*
X182220057Y-193785771D01*
X181934342Y-193785771D01*
X181791485Y-193714342D01*
X181720057Y-193571485D01*
X181720057Y-193000057D01*
X181791485Y-192857200D01*
X181934342Y-192785771D01*
X182220057Y-192785771D01*
X182362914Y-192857200D01*
X182434342Y-193000057D01*
X182434342Y-193142914D01*
X181720057Y-193285771D01*
X183077200Y-193642914D02*
X183148628Y-193714342D01*
X183077200Y-193785771D01*
X183005771Y-193714342D01*
X183077200Y-193642914D01*
X183077200Y-193785771D01*
X183077200Y-192857200D02*
X183148628Y-192928628D01*
X183077200Y-193000057D01*
X183005771Y-192928628D01*
X183077200Y-192857200D01*
X183077200Y-193000057D01*
X184862914Y-193357200D02*
X185577200Y-193357200D01*
X184720057Y-193785771D02*
X185220057Y-192285771D01*
X185720057Y-193785771D01*
X186862914Y-192785771D02*
X186862914Y-193785771D01*
X186505771Y-192214342D02*
X186148628Y-193285771D01*
X187077200Y-193285771D01*
D10*
D11*
X263434342Y-196585771D02*
X263434342Y-195085771D01*
X264791485Y-196585771D02*
X264791485Y-195085771D01*
X264791485Y-196514342D02*
X264648628Y-196585771D01*
X264362914Y-196585771D01*
X264220057Y-196514342D01*
X264148628Y-196442914D01*
X264077200Y-196300057D01*
X264077200Y-195871485D01*
X264148628Y-195728628D01*
X264220057Y-195657200D01*
X264362914Y-195585771D01*
X264648628Y-195585771D01*
X264791485Y-195657200D01*
X265505771Y-196442914D02*
X265577200Y-196514342D01*
X265505771Y-196585771D01*
X265434342Y-196514342D01*
X265505771Y-196442914D01*
X265505771Y-196585771D01*
X265505771Y-195657200D02*
X265577200Y-195728628D01*
X265505771Y-195800057D01*
X265434342Y-195728628D01*
X265505771Y-195657200D01*
X265505771Y-195800057D01*
X268148628Y-196585771D02*
X267291485Y-196585771D01*
X267720057Y-196585771D02*
X267720057Y-195085771D01*
X267577200Y-195300057D01*
X267434342Y-195442914D01*
X267291485Y-195514342D01*
X269862914Y-195014342D02*
X268577200Y-196942914D01*
X271148628Y-196585771D02*
X270291485Y-196585771D01*
X270720057Y-196585771D02*
X270720057Y-195085771D01*
X270577200Y-195300057D01*
X270434342Y-195442914D01*
X270291485Y-195514342D01*
D10*
D11*
X177002200Y-187507200D02*
X285002200Y-187507200D01*
D10*
D13*
X178714580Y-188211961D02*
X179857438Y-188211961D01*
X179036009Y-190211961D02*
X179286009Y-188211961D01*
X180274104Y-190211961D02*
X180440771Y-188878628D01*
X180524104Y-188211961D02*
X180416961Y-188307200D01*
X180500295Y-188402438D01*
X180607438Y-188307200D01*
X180524104Y-188211961D01*
X180500295Y-188402438D01*
X181107438Y-188878628D02*
X181869342Y-188878628D01*
X181476485Y-188211961D02*
X181262200Y-189926247D01*
X181333628Y-190116723D01*
X181512200Y-190211961D01*
X181702676Y-190211961D01*
X182655057Y-190211961D02*
X182476485Y-190116723D01*
X182405057Y-189926247D01*
X182619342Y-188211961D01*
X184190771Y-190116723D02*
X183988390Y-190211961D01*
X183607438Y-190211961D01*
X183428866Y-190116723D01*
X183357438Y-189926247D01*
X183452676Y-189164342D01*
X183571723Y-188973866D01*
X183774104Y-188878628D01*
X184155057Y-188878628D01*
X184333628Y-188973866D01*
X184405057Y-189164342D01*
X184381247Y-189354819D01*
X183405057Y-189545295D01*
X185155057Y-190021485D02*
X185238390Y-190116723D01*
X185131247Y-190211961D01*
X185047914Y-190116723D01*
X185155057Y-190021485D01*
X185131247Y-190211961D01*
X185286009Y-188973866D02*
X185369342Y-189069104D01*
X185262200Y-189164342D01*
X185178866Y-189069104D01*
X185286009Y-188973866D01*
X185262200Y-189164342D01*
D10*
D11*
X178934342Y-185600057D02*
X178434342Y-185600057D01*
X178434342Y-186385771D02*
X178434342Y-184885771D01*
X179148628Y-184885771D01*
X179720057Y-186385771D02*
X179720057Y-185385771D01*
X179720057Y-184885771D02*
X179648628Y-184957200D01*
X179720057Y-185028628D01*
X179791485Y-184957200D01*
X179720057Y-184885771D01*
X179720057Y-185028628D01*
X180648628Y-186385771D02*
X180505771Y-186314342D01*
X180434342Y-186171485D01*
X180434342Y-184885771D01*
X181791485Y-186314342D02*
X181648628Y-186385771D01*
X181362914Y-186385771D01*
X181220057Y-186314342D01*
X181148628Y-186171485D01*
X181148628Y-185600057D01*
X181220057Y-185457200D01*
X181362914Y-185385771D01*
X181648628Y-185385771D01*
X181791485Y-185457200D01*
X181862914Y-185600057D01*
X181862914Y-185742914D01*
X181148628Y-185885771D01*
X182505771Y-186242914D02*
X182577200Y-186314342D01*
X182505771Y-186385771D01*
X182434342Y-186314342D01*
X182505771Y-186242914D01*
X182505771Y-186385771D01*
X182505771Y-185457200D02*
X182577200Y-185528628D01*
X182505771Y-185600057D01*
X182434342Y-185528628D01*
X182505771Y-185457200D01*
X182505771Y-185600057D01*
X184648628Y-184885771D02*
X184934342Y-184885771D01*
X185077200Y-184957200D01*
X185220057Y-185100057D01*
X185291485Y-185385771D01*
X185291485Y-185885771D01*
X185220057Y-186171485D01*
X185077200Y-186314342D01*
X184934342Y-186385771D01*
X184648628Y-186385771D01*
X184505771Y-186314342D01*
X184362914Y-186171485D01*
X184291485Y-185885771D01*
X184291485Y-185385771D01*
X184362914Y-185100057D01*
X184505771Y-184957200D01*
X184648628Y-184885771D01*
X185934342Y-185385771D02*
X185934342Y-186885771D01*
X185934342Y-185457200D02*
X186077200Y-185385771D01*
X186362914Y-185385771D01*
X186505771Y-185457200D01*
X186577200Y-185528628D01*
X186648628Y-185671485D01*
X186648628Y-186100057D01*
X186577200Y-186242914D01*
X186505771Y-186314342D01*
X186362914Y-186385771D01*
X186077200Y-186385771D01*
X185934342Y-186314342D01*
X187862914Y-186314342D02*
X187720057Y-186385771D01*
X187434342Y-186385771D01*
X187291485Y-186314342D01*
X187220057Y-186171485D01*
X187220057Y-185600057D01*
X187291485Y-185457200D01*
X187434342Y-185385771D01*
X187720057Y-185385771D01*
X187862914Y-185457200D01*
X187934342Y-185600057D01*
X187934342Y-185742914D01*
X187220057Y-185885771D01*
X188577200Y-185385771D02*
X188577200Y-186385771D01*
X188577200Y-185528628D02*
X188648628Y-185457200D01*
X188791485Y-185385771D01*
X189005771Y-185385771D01*
X189148628Y-185457200D01*
X189220057Y-185600057D01*
X189220057Y-186385771D01*
X189934342Y-185600057D02*
X190434342Y-185600057D01*
X190648628Y-186385771D02*
X189934342Y-186385771D01*
X189934342Y-184885771D01*
X190648628Y-184885771D01*
X191077200Y-184885771D02*
X191577200Y-186385771D01*
X192077200Y-184885771D01*
X192505771Y-186314342D02*
X192720057Y-186385771D01*
X193077200Y-186385771D01*
X193220057Y-186314342D01*
X193291485Y-186242914D01*
X193362914Y-186100057D01*
X193362914Y-185957200D01*
X193291485Y-185814342D01*
X193220057Y-185742914D01*
X193077200Y-185671485D01*
X192791485Y-185600057D01*
X192648628Y-185528628D01*
X192577200Y-185457200D01*
X192505771Y-185314342D01*
X192505771Y-185171485D01*
X192577200Y-185028628D01*
X192648628Y-184957200D01*
X192791485Y-184885771D01*
X193148628Y-184885771D01*
X193362914Y-184957200D01*
X194005771Y-185600057D02*
X194505771Y-185600057D01*
X194720057Y-186385771D02*
X194005771Y-186385771D01*
X194005771Y-184885771D01*
X194720057Y-184885771D01*
X195005771Y-186528628D02*
X196148628Y-186528628D01*
X196505771Y-186385771D02*
X196505771Y-185385771D01*
X196505771Y-185528628D02*
X196577200Y-185457200D01*
X196720057Y-185385771D01*
X196934342Y-185385771D01*
X197077200Y-185457200D01*
X197148628Y-185600057D01*
X197148628Y-186385771D01*
X197148628Y-185600057D02*
X197220057Y-185457200D01*
X197362914Y-185385771D01*
X197577200Y-185385771D01*
X197720057Y-185457200D01*
X197791485Y-185600057D01*
X197791485Y-186385771D01*
X199077200Y-186314342D02*
X198934342Y-186385771D01*
X198648628Y-186385771D01*
X198505771Y-186314342D01*
X198434342Y-186171485D01*
X198434342Y-185600057D01*
X198505771Y-185457200D01*
X198648628Y-185385771D01*
X198934342Y-185385771D01*
X199077200Y-185457200D01*
X199148628Y-185600057D01*
X199148628Y-185742914D01*
X198434342Y-185885771D01*
X200434342Y-185385771D02*
X200434342Y-186600057D01*
X200362914Y-186742914D01*
X200291485Y-186814342D01*
X200148628Y-186885771D01*
X199934342Y-186885771D01*
X199791485Y-186814342D01*
X200434342Y-186314342D02*
X200291485Y-186385771D01*
X200005771Y-186385771D01*
X199862914Y-186314342D01*
X199791485Y-186242914D01*
X199720057Y-186100057D01*
X199720057Y-185671485D01*
X199791485Y-185528628D01*
X199862914Y-185457200D01*
X200005771Y-185385771D01*
X200291485Y-185385771D01*
X200434342Y-185457200D01*
X201791485Y-186385771D02*
X201791485Y-185600057D01*
X201720057Y-185457200D01*
X201577200Y-185385771D01*
X201291485Y-185385771D01*
X201148628Y-185457200D01*
X201791485Y-186314342D02*
X201648628Y-186385771D01*
X201291485Y-186385771D01*
X201148628Y-186314342D01*
X201077200Y-186171485D01*
X201077200Y-186028628D01*
X201148628Y-185885771D01*
X201291485Y-185814342D01*
X201648628Y-185814342D01*
X201791485Y-185742914D01*
X202434342Y-185028628D02*
X202505771Y-184957200D01*
X202648628Y-184885771D01*
X203005771Y-184885771D01*
X203148628Y-184957200D01*
X203220057Y-185028628D01*
X203291485Y-185171485D01*
X203291485Y-185314342D01*
X203220057Y-185528628D01*
X202362914Y-186385771D01*
X203291485Y-186385771D01*
X204648628Y-184885771D02*
X203934342Y-184885771D01*
X203862914Y-185600057D01*
X203934342Y-185528628D01*
X204077200Y-185457200D01*
X204434342Y-185457200D01*
X204577200Y-185528628D01*
X204648628Y-185600057D01*
X204720057Y-185742914D01*
X204720057Y-186100057D01*
X204648628Y-186242914D01*
X204577200Y-186314342D01*
X204434342Y-186385771D01*
X204077200Y-186385771D01*
X203934342Y-186314342D01*
X203862914Y-186242914D01*
X206005771Y-184885771D02*
X205720057Y-184885771D01*
X205577200Y-184957200D01*
X205505771Y-185028628D01*
X205362914Y-185242914D01*
X205291485Y-185528628D01*
X205291485Y-186100057D01*
X205362914Y-186242914D01*
X205434342Y-186314342D01*
X205577200Y-186385771D01*
X205862914Y-186385771D01*
X206005771Y-186314342D01*
X206077200Y-186242914D01*
X206148628Y-186100057D01*
X206148628Y-185742914D01*
X206077200Y-185600057D01*
X206005771Y-185528628D01*
X205862914Y-185457200D01*
X205577200Y-185457200D01*
X205434342Y-185528628D01*
X205362914Y-185600057D01*
X205291485Y-185742914D01*
X207077200Y-184885771D02*
X207220057Y-184885771D01*
X207362914Y-184957200D01*
X207434342Y-185028628D01*
X207505771Y-185171485D01*
X207577200Y-185457200D01*
X207577200Y-185814342D01*
X207505771Y-186100057D01*
X207434342Y-186242914D01*
X207362914Y-186314342D01*
X207220057Y-186385771D01*
X207077200Y-186385771D01*
X206934342Y-186314342D01*
X206862914Y-186242914D01*
X206791485Y-186100057D01*
X206720057Y-185814342D01*
X206720057Y-185457200D01*
X206791485Y-185171485D01*
X206862914Y-185028628D01*
X206934342Y-184957200D01*
X207077200Y-184885771D01*
X207862914Y-186528628D02*
X209005771Y-186528628D01*
X209291485Y-186314342D02*
X209434342Y-186385771D01*
X209720057Y-186385771D01*
X209862914Y-186314342D01*
X209934342Y-186171485D01*
X209934342Y-186100057D01*
X209862914Y-185957200D01*
X209720057Y-185885771D01*
X209505771Y-185885771D01*
X209362914Y-185814342D01*
X209291485Y-185671485D01*
X209291485Y-185600057D01*
X209362914Y-185457200D01*
X209505771Y-185385771D01*
X209720057Y-185385771D01*
X209862914Y-185457200D01*
X210577200Y-186385771D02*
X210577200Y-184885771D01*
X211220057Y-186385771D02*
X211220057Y-185600057D01*
X211148628Y-185457200D01*
X211005771Y-185385771D01*
X210791485Y-185385771D01*
X210648628Y-185457200D01*
X210577200Y-185528628D01*
X211934342Y-186385771D02*
X211934342Y-185385771D01*
X211934342Y-184885771D02*
X211862914Y-184957200D01*
X211934342Y-185028628D01*
X212005771Y-184957200D01*
X211934342Y-184885771D01*
X211934342Y-185028628D01*
X213220057Y-186314342D02*
X213077200Y-186385771D01*
X212791485Y-186385771D01*
X212648628Y-186314342D01*
X212577200Y-186171485D01*
X212577200Y-185600057D01*
X212648628Y-185457200D01*
X212791485Y-185385771D01*
X213077200Y-185385771D01*
X213220057Y-185457200D01*
X213291485Y-185600057D01*
X213291485Y-185742914D01*
X212577200Y-185885771D01*
X214148628Y-186385771D02*
X214005771Y-186314342D01*
X213934342Y-186171485D01*
X213934342Y-184885771D01*
X215362914Y-186385771D02*
X215362914Y-184885771D01*
X215362914Y-186314342D02*
X215220057Y-186385771D01*
X214934342Y-186385771D01*
X214791485Y-186314342D01*
X214720057Y-186242914D01*
X214648628Y-186100057D01*
X214648628Y-185671485D01*
X214720057Y-185528628D01*
X214791485Y-185457200D01*
X214934342Y-185385771D01*
X215220057Y-185385771D01*
X215362914Y-185457200D01*
X216077200Y-186242914D02*
X216148628Y-186314342D01*
X216077200Y-186385771D01*
X216005771Y-186314342D01*
X216077200Y-186242914D01*
X216077200Y-186385771D01*
X216791485Y-186385771D02*
X216791485Y-184885771D01*
X216934342Y-185814342D02*
X217362914Y-186385771D01*
X217362914Y-185385771D02*
X216791485Y-185957200D01*
X218005771Y-186385771D02*
X218005771Y-185385771D01*
X218005771Y-184885771D02*
X217934342Y-184957200D01*
X218005771Y-185028628D01*
X218077200Y-184957200D01*
X218005771Y-184885771D01*
X218005771Y-185028628D01*
X219362914Y-186314342D02*
X219220057Y-186385771D01*
X218934342Y-186385771D01*
X218791485Y-186314342D01*
X218720057Y-186242914D01*
X218648628Y-186100057D01*
X218648628Y-185671485D01*
X218720057Y-185528628D01*
X218791485Y-185457200D01*
X218934342Y-185385771D01*
X219220057Y-185385771D01*
X219362914Y-185457200D01*
X220648628Y-186385771D02*
X220648628Y-185600057D01*
X220577200Y-185457200D01*
X220434342Y-185385771D01*
X220148628Y-185385771D01*
X220005771Y-185457200D01*
X220648628Y-186314342D02*
X220505771Y-186385771D01*
X220148628Y-186385771D01*
X220005771Y-186314342D01*
X219934342Y-186171485D01*
X219934342Y-186028628D01*
X220005771Y-185885771D01*
X220148628Y-185814342D01*
X220505771Y-185814342D01*
X220648628Y-185742914D01*
X222005771Y-186385771D02*
X222005771Y-184885771D01*
X222005771Y-186314342D02*
X221862914Y-186385771D01*
X221577200Y-186385771D01*
X221434342Y-186314342D01*
X221362914Y-186242914D01*
X221291485Y-186100057D01*
X221291485Y-185671485D01*
X221362914Y-185528628D01*
X221434342Y-185457200D01*
X221577200Y-185385771D01*
X221862914Y-185385771D01*
X222005771Y-185457200D01*
X222362914Y-186528628D02*
X223505771Y-186528628D01*
X223862914Y-185385771D02*
X223862914Y-186885771D01*
X223862914Y-185457200D02*
X224005771Y-185385771D01*
X224291485Y-185385771D01*
X224434342Y-185457200D01*
X224505771Y-185528628D01*
X224577200Y-185671485D01*
X224577200Y-186100057D01*
X224505771Y-186242914D01*
X224434342Y-186314342D01*
X224291485Y-186385771D01*
X224005771Y-186385771D01*
X223862914Y-186314342D01*
X225862914Y-186314342D02*
X225720057Y-186385771D01*
X225434342Y-186385771D01*
X225291485Y-186314342D01*
X225220057Y-186242914D01*
X225148628Y-186100057D01*
X225148628Y-185671485D01*
X225220057Y-185528628D01*
X225291485Y-185457200D01*
X225434342Y-185385771D01*
X225720057Y-185385771D01*
X225862914Y-185457200D01*
X226505771Y-186385771D02*
X226505771Y-184885771D01*
X226505771Y-185457200D02*
X226648628Y-185385771D01*
X226934342Y-185385771D01*
X227077200Y-185457200D01*
X227148628Y-185528628D01*
X227220057Y-185671485D01*
X227220057Y-186100057D01*
X227148628Y-186242914D01*
X227077200Y-186314342D01*
X226934342Y-186385771D01*
X226648628Y-186385771D01*
X226505771Y-186314342D01*
D10*
D11*
X177002200Y-181507200D02*
X285002200Y-181507200D01*
D10*
D11*
X178362914Y-183614342D02*
X178577200Y-183685771D01*
X178934342Y-183685771D01*
X179077200Y-183614342D01*
X179148628Y-183542914D01*
X179220057Y-183400057D01*
X179220057Y-183257200D01*
X179148628Y-183114342D01*
X179077200Y-183042914D01*
X178934342Y-182971485D01*
X178648628Y-182900057D01*
X178505771Y-182828628D01*
X178434342Y-182757200D01*
X178362914Y-182614342D01*
X178362914Y-182471485D01*
X178434342Y-182328628D01*
X178505771Y-182257200D01*
X178648628Y-182185771D01*
X179005771Y-182185771D01*
X179220057Y-182257200D01*
X179862914Y-183685771D02*
X179862914Y-182185771D01*
X180505771Y-183685771D02*
X180505771Y-182900057D01*
X180434342Y-182757200D01*
X180291485Y-182685771D01*
X180077200Y-182685771D01*
X179934342Y-182757200D01*
X179862914Y-182828628D01*
X181791485Y-183614342D02*
X181648628Y-183685771D01*
X181362914Y-183685771D01*
X181220057Y-183614342D01*
X181148628Y-183471485D01*
X181148628Y-182900057D01*
X181220057Y-182757200D01*
X181362914Y-182685771D01*
X181648628Y-182685771D01*
X181791485Y-182757200D01*
X181862914Y-182900057D01*
X181862914Y-183042914D01*
X181148628Y-183185771D01*
X183077200Y-183614342D02*
X182934342Y-183685771D01*
X182648628Y-183685771D01*
X182505771Y-183614342D01*
X182434342Y-183471485D01*
X182434342Y-182900057D01*
X182505771Y-182757200D01*
X182648628Y-182685771D01*
X182934342Y-182685771D01*
X183077200Y-182757200D01*
X183148628Y-182900057D01*
X183148628Y-183042914D01*
X182434342Y-183185771D01*
X183577200Y-182685771D02*
X184148628Y-182685771D01*
X183791485Y-182185771D02*
X183791485Y-183471485D01*
X183862914Y-183614342D01*
X184005771Y-183685771D01*
X184148628Y-183685771D01*
X184648628Y-183542914D02*
X184720057Y-183614342D01*
X184648628Y-183685771D01*
X184577200Y-183614342D01*
X184648628Y-183542914D01*
X184648628Y-183685771D01*
X184648628Y-182757200D02*
X184720057Y-182828628D01*
X184648628Y-182900057D01*
X184577200Y-182828628D01*
X184648628Y-182757200D01*
X184648628Y-182900057D01*
D10*
D11*
X197002200Y-191507200D02*
X197002200Y-194507200D01*
D10*
D11*
X261002200Y-191507200D02*
X261002200Y-198007200D01*
D10*
G36*
X194050256Y-127524898D02*
G01*
X194156579Y-127546047D01*
X194457042Y-127670503D01*
X194727451Y-127851185D01*
X194957415Y-128081149D01*
X195138097Y-128351558D01*
X195262553Y-128652021D01*
X195326000Y-128970991D01*
X195326000Y-129296209D01*
X195262553Y-129615179D01*
X195138097Y-129915642D01*
X194957415Y-130186051D01*
X194727451Y-130416015D01*
X194457042Y-130596697D01*
X194156579Y-130721153D01*
X194050256Y-130742302D01*
X193837611Y-130784600D01*
X193512389Y-130784600D01*
X193299744Y-130742302D01*
X193193421Y-130721153D01*
X192892958Y-130596697D01*
X192622549Y-130416015D01*
X192392585Y-130186051D01*
X192211903Y-129915642D01*
X192087447Y-129615179D01*
X192024000Y-129296209D01*
X192024000Y-128970991D01*
X192087447Y-128652021D01*
X192211903Y-128351558D01*
X192392585Y-128081149D01*
X192622549Y-127851185D01*
X192892958Y-127670503D01*
X193193421Y-127546047D01*
X193299744Y-127524898D01*
X193512389Y-127482600D01*
X193837611Y-127482600D01*
X194050256Y-127524898D01*
G37*
G36*
X111500256Y-127524898D02*
G01*
X111606579Y-127546047D01*
X111907042Y-127670503D01*
X112177451Y-127851185D01*
X112407415Y-128081149D01*
X112588097Y-128351558D01*
X112712553Y-128652021D01*
X112776000Y-128970991D01*
X112776000Y-129296209D01*
X112712553Y-129615179D01*
X112588097Y-129915642D01*
X112407415Y-130186051D01*
X112177451Y-130416015D01*
X111907042Y-130596697D01*
X111606579Y-130721153D01*
X111500256Y-130742302D01*
X111287611Y-130784600D01*
X110962389Y-130784600D01*
X110749744Y-130742302D01*
X110643421Y-130721153D01*
X110342958Y-130596697D01*
X110072549Y-130416015D01*
X109842585Y-130186051D01*
X109661903Y-129915642D01*
X109537447Y-129615179D01*
X109474000Y-129296209D01*
X109474000Y-128970991D01*
X109537447Y-128652021D01*
X109661903Y-128351558D01*
X109842585Y-128081149D01*
X110072549Y-127851185D01*
X110342958Y-127670503D01*
X110643421Y-127546047D01*
X110749744Y-127524898D01*
X110962389Y-127482600D01*
X111287611Y-127482600D01*
X111500256Y-127524898D01*
G37*
G36*
X158101512Y-128135927D02*
G01*
X158250812Y-128165624D01*
X158414784Y-128233544D01*
X158562354Y-128332147D01*
X158687853Y-128457646D01*
X158786456Y-128605216D01*
X158854376Y-128769188D01*
X158889000Y-128943259D01*
X158889000Y-129120741D01*
X158854376Y-129294812D01*
X158786456Y-129458784D01*
X158687853Y-129606354D01*
X158562354Y-129731853D01*
X158414784Y-129830456D01*
X158250812Y-129898376D01*
X158101512Y-129928073D01*
X158076742Y-129933000D01*
X157899258Y-129933000D01*
X157874488Y-129928073D01*
X157725188Y-129898376D01*
X157561216Y-129830456D01*
X157413646Y-129731853D01*
X157288147Y-129606354D01*
X157189544Y-129458784D01*
X157121624Y-129294812D01*
X157087000Y-129120741D01*
X157087000Y-128943259D01*
X157121624Y-128769188D01*
X157189544Y-128605216D01*
X157288147Y-128457646D01*
X157413646Y-128332147D01*
X157561216Y-128233544D01*
X157725188Y-128165624D01*
X157874488Y-128135927D01*
X157899258Y-128131000D01*
X158076742Y-128131000D01*
X158101512Y-128135927D01*
G37*
G36*
X132955512Y-128135927D02*
G01*
X133104812Y-128165624D01*
X133268784Y-128233544D01*
X133416354Y-128332147D01*
X133541853Y-128457646D01*
X133640456Y-128605216D01*
X133708376Y-128769188D01*
X133743000Y-128943259D01*
X133743000Y-129120741D01*
X133708376Y-129294812D01*
X133640456Y-129458784D01*
X133541853Y-129606354D01*
X133416354Y-129731853D01*
X133268784Y-129830456D01*
X133104812Y-129898376D01*
X132955512Y-129928073D01*
X132930742Y-129933000D01*
X132753258Y-129933000D01*
X132728488Y-129928073D01*
X132579188Y-129898376D01*
X132415216Y-129830456D01*
X132267646Y-129731853D01*
X132142147Y-129606354D01*
X132043544Y-129458784D01*
X131975624Y-129294812D01*
X131941000Y-129120741D01*
X131941000Y-128943259D01*
X131975624Y-128769188D01*
X132043544Y-128605216D01*
X132142147Y-128457646D01*
X132267646Y-128332147D01*
X132415216Y-128233544D01*
X132579188Y-128165624D01*
X132728488Y-128135927D01*
X132753258Y-128131000D01*
X132930742Y-128131000D01*
X132955512Y-128135927D01*
G37*
G36*
X163181512Y-128135927D02*
G01*
X163330812Y-128165624D01*
X163494784Y-128233544D01*
X163642354Y-128332147D01*
X163767853Y-128457646D01*
X163866456Y-128605216D01*
X163934376Y-128769188D01*
X163969000Y-128943259D01*
X163969000Y-129120741D01*
X163934376Y-129294812D01*
X163866456Y-129458784D01*
X163767853Y-129606354D01*
X163642354Y-129731853D01*
X163494784Y-129830456D01*
X163330812Y-129898376D01*
X163181512Y-129928073D01*
X163156742Y-129933000D01*
X162979258Y-129933000D01*
X162954488Y-129928073D01*
X162805188Y-129898376D01*
X162641216Y-129830456D01*
X162493646Y-129731853D01*
X162368147Y-129606354D01*
X162269544Y-129458784D01*
X162201624Y-129294812D01*
X162167000Y-129120741D01*
X162167000Y-128943259D01*
X162201624Y-128769188D01*
X162269544Y-128605216D01*
X162368147Y-128457646D01*
X162493646Y-128332147D01*
X162641216Y-128233544D01*
X162805188Y-128165624D01*
X162954488Y-128135927D01*
X162979258Y-128131000D01*
X163156742Y-128131000D01*
X163181512Y-128135927D01*
G37*
G36*
X160641512Y-128135927D02*
G01*
X160790812Y-128165624D01*
X160954784Y-128233544D01*
X161102354Y-128332147D01*
X161227853Y-128457646D01*
X161326456Y-128605216D01*
X161394376Y-128769188D01*
X161429000Y-128943259D01*
X161429000Y-129120741D01*
X161394376Y-129294812D01*
X161326456Y-129458784D01*
X161227853Y-129606354D01*
X161102354Y-129731853D01*
X160954784Y-129830456D01*
X160790812Y-129898376D01*
X160641512Y-129928073D01*
X160616742Y-129933000D01*
X160439258Y-129933000D01*
X160414488Y-129928073D01*
X160265188Y-129898376D01*
X160101216Y-129830456D01*
X159953646Y-129731853D01*
X159828147Y-129606354D01*
X159729544Y-129458784D01*
X159661624Y-129294812D01*
X159627000Y-129120741D01*
X159627000Y-128943259D01*
X159661624Y-128769188D01*
X159729544Y-128605216D01*
X159828147Y-128457646D01*
X159953646Y-128332147D01*
X160101216Y-128233544D01*
X160265188Y-128165624D01*
X160414488Y-128135927D01*
X160439258Y-128131000D01*
X160616742Y-128131000D01*
X160641512Y-128135927D01*
G37*
G36*
X155561512Y-128135927D02*
G01*
X155710812Y-128165624D01*
X155874784Y-128233544D01*
X156022354Y-128332147D01*
X156147853Y-128457646D01*
X156246456Y-128605216D01*
X156314376Y-128769188D01*
X156349000Y-128943259D01*
X156349000Y-129120741D01*
X156314376Y-129294812D01*
X156246456Y-129458784D01*
X156147853Y-129606354D01*
X156022354Y-129731853D01*
X155874784Y-129830456D01*
X155710812Y-129898376D01*
X155561512Y-129928073D01*
X155536742Y-129933000D01*
X155359258Y-129933000D01*
X155334488Y-129928073D01*
X155185188Y-129898376D01*
X155021216Y-129830456D01*
X154873646Y-129731853D01*
X154748147Y-129606354D01*
X154649544Y-129458784D01*
X154581624Y-129294812D01*
X154547000Y-129120741D01*
X154547000Y-128943259D01*
X154581624Y-128769188D01*
X154649544Y-128605216D01*
X154748147Y-128457646D01*
X154873646Y-128332147D01*
X155021216Y-128233544D01*
X155185188Y-128165624D01*
X155334488Y-128135927D01*
X155359258Y-128131000D01*
X155536742Y-128131000D01*
X155561512Y-128135927D01*
G37*
G36*
X153021512Y-128135927D02*
G01*
X153170812Y-128165624D01*
X153334784Y-128233544D01*
X153482354Y-128332147D01*
X153607853Y-128457646D01*
X153706456Y-128605216D01*
X153774376Y-128769188D01*
X153809000Y-128943259D01*
X153809000Y-129120741D01*
X153774376Y-129294812D01*
X153706456Y-129458784D01*
X153607853Y-129606354D01*
X153482354Y-129731853D01*
X153334784Y-129830456D01*
X153170812Y-129898376D01*
X153021512Y-129928073D01*
X152996742Y-129933000D01*
X152819258Y-129933000D01*
X152794488Y-129928073D01*
X152645188Y-129898376D01*
X152481216Y-129830456D01*
X152333646Y-129731853D01*
X152208147Y-129606354D01*
X152109544Y-129458784D01*
X152041624Y-129294812D01*
X152007000Y-129120741D01*
X152007000Y-128943259D01*
X152041624Y-128769188D01*
X152109544Y-128605216D01*
X152208147Y-128457646D01*
X152333646Y-128332147D01*
X152481216Y-128233544D01*
X152645188Y-128165624D01*
X152794488Y-128135927D01*
X152819258Y-128131000D01*
X152996742Y-128131000D01*
X153021512Y-128135927D01*
G37*
G36*
X150481512Y-128135927D02*
G01*
X150630812Y-128165624D01*
X150794784Y-128233544D01*
X150942354Y-128332147D01*
X151067853Y-128457646D01*
X151166456Y-128605216D01*
X151234376Y-128769188D01*
X151269000Y-128943259D01*
X151269000Y-129120741D01*
X151234376Y-129294812D01*
X151166456Y-129458784D01*
X151067853Y-129606354D01*
X150942354Y-129731853D01*
X150794784Y-129830456D01*
X150630812Y-129898376D01*
X150481512Y-129928073D01*
X150456742Y-129933000D01*
X150279258Y-129933000D01*
X150254488Y-129928073D01*
X150105188Y-129898376D01*
X149941216Y-129830456D01*
X149793646Y-129731853D01*
X149668147Y-129606354D01*
X149569544Y-129458784D01*
X149501624Y-129294812D01*
X149467000Y-129120741D01*
X149467000Y-128943259D01*
X149501624Y-128769188D01*
X149569544Y-128605216D01*
X149668147Y-128457646D01*
X149793646Y-128332147D01*
X149941216Y-128233544D01*
X150105188Y-128165624D01*
X150254488Y-128135927D01*
X150279258Y-128131000D01*
X150456742Y-128131000D01*
X150481512Y-128135927D01*
G37*
G36*
X148729000Y-129933000D02*
G01*
X146927000Y-129933000D01*
X146927000Y-128131000D01*
X148729000Y-128131000D01*
X148729000Y-129933000D01*
G37*
G36*
X143115512Y-128135927D02*
G01*
X143264812Y-128165624D01*
X143428784Y-128233544D01*
X143576354Y-128332147D01*
X143701853Y-128457646D01*
X143800456Y-128605216D01*
X143868376Y-128769188D01*
X143903000Y-128943259D01*
X143903000Y-129120741D01*
X143868376Y-129294812D01*
X143800456Y-129458784D01*
X143701853Y-129606354D01*
X143576354Y-129731853D01*
X143428784Y-129830456D01*
X143264812Y-129898376D01*
X143115512Y-129928073D01*
X143090742Y-129933000D01*
X142913258Y-129933000D01*
X142888488Y-129928073D01*
X142739188Y-129898376D01*
X142575216Y-129830456D01*
X142427646Y-129731853D01*
X142302147Y-129606354D01*
X142203544Y-129458784D01*
X142135624Y-129294812D01*
X142101000Y-129120741D01*
X142101000Y-128943259D01*
X142135624Y-128769188D01*
X142203544Y-128605216D01*
X142302147Y-128457646D01*
X142427646Y-128332147D01*
X142575216Y-128233544D01*
X142739188Y-128165624D01*
X142888488Y-128135927D01*
X142913258Y-128131000D01*
X143090742Y-128131000D01*
X143115512Y-128135927D01*
G37*
G36*
X140575512Y-128135927D02*
G01*
X140724812Y-128165624D01*
X140888784Y-128233544D01*
X141036354Y-128332147D01*
X141161853Y-128457646D01*
X141260456Y-128605216D01*
X141328376Y-128769188D01*
X141363000Y-128943259D01*
X141363000Y-129120741D01*
X141328376Y-129294812D01*
X141260456Y-129458784D01*
X141161853Y-129606354D01*
X141036354Y-129731853D01*
X140888784Y-129830456D01*
X140724812Y-129898376D01*
X140575512Y-129928073D01*
X140550742Y-129933000D01*
X140373258Y-129933000D01*
X140348488Y-129928073D01*
X140199188Y-129898376D01*
X140035216Y-129830456D01*
X139887646Y-129731853D01*
X139762147Y-129606354D01*
X139663544Y-129458784D01*
X139595624Y-129294812D01*
X139561000Y-129120741D01*
X139561000Y-128943259D01*
X139595624Y-128769188D01*
X139663544Y-128605216D01*
X139762147Y-128457646D01*
X139887646Y-128332147D01*
X140035216Y-128233544D01*
X140199188Y-128165624D01*
X140348488Y-128135927D01*
X140373258Y-128131000D01*
X140550742Y-128131000D01*
X140575512Y-128135927D01*
G37*
G36*
X138035512Y-128135927D02*
G01*
X138184812Y-128165624D01*
X138348784Y-128233544D01*
X138496354Y-128332147D01*
X138621853Y-128457646D01*
X138720456Y-128605216D01*
X138788376Y-128769188D01*
X138823000Y-128943259D01*
X138823000Y-129120741D01*
X138788376Y-129294812D01*
X138720456Y-129458784D01*
X138621853Y-129606354D01*
X138496354Y-129731853D01*
X138348784Y-129830456D01*
X138184812Y-129898376D01*
X138035512Y-129928073D01*
X138010742Y-129933000D01*
X137833258Y-129933000D01*
X137808488Y-129928073D01*
X137659188Y-129898376D01*
X137495216Y-129830456D01*
X137347646Y-129731853D01*
X137222147Y-129606354D01*
X137123544Y-129458784D01*
X137055624Y-129294812D01*
X137021000Y-129120741D01*
X137021000Y-128943259D01*
X137055624Y-128769188D01*
X137123544Y-128605216D01*
X137222147Y-128457646D01*
X137347646Y-128332147D01*
X137495216Y-128233544D01*
X137659188Y-128165624D01*
X137808488Y-128135927D01*
X137833258Y-128131000D01*
X138010742Y-128131000D01*
X138035512Y-128135927D01*
G37*
G36*
X131203000Y-129933000D02*
G01*
X129401000Y-129933000D01*
X129401000Y-128131000D01*
X131203000Y-128131000D01*
X131203000Y-129933000D01*
G37*
G36*
X188581512Y-128135927D02*
G01*
X188730812Y-128165624D01*
X188894784Y-128233544D01*
X189042354Y-128332147D01*
X189167853Y-128457646D01*
X189266456Y-128605216D01*
X189334376Y-128769188D01*
X189369000Y-128943259D01*
X189369000Y-129120741D01*
X189334376Y-129294812D01*
X189266456Y-129458784D01*
X189167853Y-129606354D01*
X189042354Y-129731853D01*
X188894784Y-129830456D01*
X188730812Y-129898376D01*
X188581512Y-129928073D01*
X188556742Y-129933000D01*
X188379258Y-129933000D01*
X188354488Y-129928073D01*
X188205188Y-129898376D01*
X188041216Y-129830456D01*
X187893646Y-129731853D01*
X187768147Y-129606354D01*
X187669544Y-129458784D01*
X187601624Y-129294812D01*
X187567000Y-129120741D01*
X187567000Y-128943259D01*
X187601624Y-128769188D01*
X187669544Y-128605216D01*
X187768147Y-128457646D01*
X187893646Y-128332147D01*
X188041216Y-128233544D01*
X188205188Y-128165624D01*
X188354488Y-128135927D01*
X188379258Y-128131000D01*
X188556742Y-128131000D01*
X188581512Y-128135927D01*
G37*
G36*
X186041512Y-128135927D02*
G01*
X186190812Y-128165624D01*
X186354784Y-128233544D01*
X186502354Y-128332147D01*
X186627853Y-128457646D01*
X186726456Y-128605216D01*
X186794376Y-128769188D01*
X186829000Y-128943259D01*
X186829000Y-129120741D01*
X186794376Y-129294812D01*
X186726456Y-129458784D01*
X186627853Y-129606354D01*
X186502354Y-129731853D01*
X186354784Y-129830456D01*
X186190812Y-129898376D01*
X186041512Y-129928073D01*
X186016742Y-129933000D01*
X185839258Y-129933000D01*
X185814488Y-129928073D01*
X185665188Y-129898376D01*
X185501216Y-129830456D01*
X185353646Y-129731853D01*
X185228147Y-129606354D01*
X185129544Y-129458784D01*
X185061624Y-129294812D01*
X185027000Y-129120741D01*
X185027000Y-128943259D01*
X185061624Y-128769188D01*
X185129544Y-128605216D01*
X185228147Y-128457646D01*
X185353646Y-128332147D01*
X185501216Y-128233544D01*
X185665188Y-128165624D01*
X185814488Y-128135927D01*
X185839258Y-128131000D01*
X186016742Y-128131000D01*
X186041512Y-128135927D01*
G37*
G36*
X183501512Y-128135927D02*
G01*
X183650812Y-128165624D01*
X183814784Y-128233544D01*
X183962354Y-128332147D01*
X184087853Y-128457646D01*
X184186456Y-128605216D01*
X184254376Y-128769188D01*
X184289000Y-128943259D01*
X184289000Y-129120741D01*
X184254376Y-129294812D01*
X184186456Y-129458784D01*
X184087853Y-129606354D01*
X183962354Y-129731853D01*
X183814784Y-129830456D01*
X183650812Y-129898376D01*
X183501512Y-129928073D01*
X183476742Y-129933000D01*
X183299258Y-129933000D01*
X183274488Y-129928073D01*
X183125188Y-129898376D01*
X182961216Y-129830456D01*
X182813646Y-129731853D01*
X182688147Y-129606354D01*
X182589544Y-129458784D01*
X182521624Y-129294812D01*
X182487000Y-129120741D01*
X182487000Y-128943259D01*
X182521624Y-128769188D01*
X182589544Y-128605216D01*
X182688147Y-128457646D01*
X182813646Y-128332147D01*
X182961216Y-128233544D01*
X183125188Y-128165624D01*
X183274488Y-128135927D01*
X183299258Y-128131000D01*
X183476742Y-128131000D01*
X183501512Y-128135927D01*
G37*
G36*
X180961512Y-128135927D02*
G01*
X181110812Y-128165624D01*
X181274784Y-128233544D01*
X181422354Y-128332147D01*
X181547853Y-128457646D01*
X181646456Y-128605216D01*
X181714376Y-128769188D01*
X181749000Y-128943259D01*
X181749000Y-129120741D01*
X181714376Y-129294812D01*
X181646456Y-129458784D01*
X181547853Y-129606354D01*
X181422354Y-129731853D01*
X181274784Y-129830456D01*
X181110812Y-129898376D01*
X180961512Y-129928073D01*
X180936742Y-129933000D01*
X180759258Y-129933000D01*
X180734488Y-129928073D01*
X180585188Y-129898376D01*
X180421216Y-129830456D01*
X180273646Y-129731853D01*
X180148147Y-129606354D01*
X180049544Y-129458784D01*
X179981624Y-129294812D01*
X179947000Y-129120741D01*
X179947000Y-128943259D01*
X179981624Y-128769188D01*
X180049544Y-128605216D01*
X180148147Y-128457646D01*
X180273646Y-128332147D01*
X180421216Y-128233544D01*
X180585188Y-128165624D01*
X180734488Y-128135927D01*
X180759258Y-128131000D01*
X180936742Y-128131000D01*
X180961512Y-128135927D01*
G37*
G36*
X178421512Y-128135927D02*
G01*
X178570812Y-128165624D01*
X178734784Y-128233544D01*
X178882354Y-128332147D01*
X179007853Y-128457646D01*
X179106456Y-128605216D01*
X179174376Y-128769188D01*
X179209000Y-128943259D01*
X179209000Y-129120741D01*
X179174376Y-129294812D01*
X179106456Y-129458784D01*
X179007853Y-129606354D01*
X178882354Y-129731853D01*
X178734784Y-129830456D01*
X178570812Y-129898376D01*
X178421512Y-129928073D01*
X178396742Y-129933000D01*
X178219258Y-129933000D01*
X178194488Y-129928073D01*
X178045188Y-129898376D01*
X177881216Y-129830456D01*
X177733646Y-129731853D01*
X177608147Y-129606354D01*
X177509544Y-129458784D01*
X177441624Y-129294812D01*
X177407000Y-129120741D01*
X177407000Y-128943259D01*
X177441624Y-128769188D01*
X177509544Y-128605216D01*
X177608147Y-128457646D01*
X177733646Y-128332147D01*
X177881216Y-128233544D01*
X178045188Y-128165624D01*
X178194488Y-128135927D01*
X178219258Y-128131000D01*
X178396742Y-128131000D01*
X178421512Y-128135927D01*
G37*
G36*
X173341512Y-128135927D02*
G01*
X173490812Y-128165624D01*
X173654784Y-128233544D01*
X173802354Y-128332147D01*
X173927853Y-128457646D01*
X174026456Y-128605216D01*
X174094376Y-128769188D01*
X174129000Y-128943259D01*
X174129000Y-129120741D01*
X174094376Y-129294812D01*
X174026456Y-129458784D01*
X173927853Y-129606354D01*
X173802354Y-129731853D01*
X173654784Y-129830456D01*
X173490812Y-129898376D01*
X173341512Y-129928073D01*
X173316742Y-129933000D01*
X173139258Y-129933000D01*
X173114488Y-129928073D01*
X172965188Y-129898376D01*
X172801216Y-129830456D01*
X172653646Y-129731853D01*
X172528147Y-129606354D01*
X172429544Y-129458784D01*
X172361624Y-129294812D01*
X172327000Y-129120741D01*
X172327000Y-128943259D01*
X172361624Y-128769188D01*
X172429544Y-128605216D01*
X172528147Y-128457646D01*
X172653646Y-128332147D01*
X172801216Y-128233544D01*
X172965188Y-128165624D01*
X173114488Y-128135927D01*
X173139258Y-128131000D01*
X173316742Y-128131000D01*
X173341512Y-128135927D01*
G37*
G36*
X135495512Y-128135927D02*
G01*
X135644812Y-128165624D01*
X135808784Y-128233544D01*
X135956354Y-128332147D01*
X136081853Y-128457646D01*
X136180456Y-128605216D01*
X136248376Y-128769188D01*
X136283000Y-128943259D01*
X136283000Y-129120741D01*
X136248376Y-129294812D01*
X136180456Y-129458784D01*
X136081853Y-129606354D01*
X135956354Y-129731853D01*
X135808784Y-129830456D01*
X135644812Y-129898376D01*
X135495512Y-129928073D01*
X135470742Y-129933000D01*
X135293258Y-129933000D01*
X135268488Y-129928073D01*
X135119188Y-129898376D01*
X134955216Y-129830456D01*
X134807646Y-129731853D01*
X134682147Y-129606354D01*
X134583544Y-129458784D01*
X134515624Y-129294812D01*
X134481000Y-129120741D01*
X134481000Y-128943259D01*
X134515624Y-128769188D01*
X134583544Y-128605216D01*
X134682147Y-128457646D01*
X134807646Y-128332147D01*
X134955216Y-128233544D01*
X135119188Y-128165624D01*
X135268488Y-128135927D01*
X135293258Y-128131000D01*
X135470742Y-128131000D01*
X135495512Y-128135927D01*
G37*
G36*
X165721512Y-128135927D02*
G01*
X165870812Y-128165624D01*
X166034784Y-128233544D01*
X166182354Y-128332147D01*
X166307853Y-128457646D01*
X166406456Y-128605216D01*
X166474376Y-128769188D01*
X166509000Y-128943259D01*
X166509000Y-129120741D01*
X166474376Y-129294812D01*
X166406456Y-129458784D01*
X166307853Y-129606354D01*
X166182354Y-129731853D01*
X166034784Y-129830456D01*
X165870812Y-129898376D01*
X165721512Y-129928073D01*
X165696742Y-129933000D01*
X165519258Y-129933000D01*
X165494488Y-129928073D01*
X165345188Y-129898376D01*
X165181216Y-129830456D01*
X165033646Y-129731853D01*
X164908147Y-129606354D01*
X164809544Y-129458784D01*
X164741624Y-129294812D01*
X164707000Y-129120741D01*
X164707000Y-128943259D01*
X164741624Y-128769188D01*
X164809544Y-128605216D01*
X164908147Y-128457646D01*
X165033646Y-128332147D01*
X165181216Y-128233544D01*
X165345188Y-128165624D01*
X165494488Y-128135927D01*
X165519258Y-128131000D01*
X165696742Y-128131000D01*
X165721512Y-128135927D01*
G37*
G36*
X175881512Y-128135927D02*
G01*
X176030812Y-128165624D01*
X176194784Y-128233544D01*
X176342354Y-128332147D01*
X176467853Y-128457646D01*
X176566456Y-128605216D01*
X176634376Y-128769188D01*
X176669000Y-128943259D01*
X176669000Y-129120741D01*
X176634376Y-129294812D01*
X176566456Y-129458784D01*
X176467853Y-129606354D01*
X176342354Y-129731853D01*
X176194784Y-129830456D01*
X176030812Y-129898376D01*
X175881512Y-129928073D01*
X175856742Y-129933000D01*
X175679258Y-129933000D01*
X175654488Y-129928073D01*
X175505188Y-129898376D01*
X175341216Y-129830456D01*
X175193646Y-129731853D01*
X175068147Y-129606354D01*
X174969544Y-129458784D01*
X174901624Y-129294812D01*
X174867000Y-129120741D01*
X174867000Y-128943259D01*
X174901624Y-128769188D01*
X174969544Y-128605216D01*
X175068147Y-128457646D01*
X175193646Y-128332147D01*
X175341216Y-128233544D01*
X175505188Y-128165624D01*
X175654488Y-128135927D01*
X175679258Y-128131000D01*
X175856742Y-128131000D01*
X175881512Y-128135927D01*
G37*
G36*
X171589000Y-129933000D02*
G01*
X169787000Y-129933000D01*
X169787000Y-128131000D01*
X171589000Y-128131000D01*
X171589000Y-129933000D01*
G37*
G36*
X104356252Y-126244940D02*
G01*
X104387843Y-126254523D01*
X104416957Y-126270085D01*
X104442474Y-126291026D01*
X104463415Y-126316543D01*
X104478977Y-126345657D01*
X104488560Y-126377248D01*
X104492400Y-126416240D01*
X104492400Y-128167960D01*
X104488560Y-128206952D01*
X104478977Y-128238543D01*
X104463415Y-128267657D01*
X104442474Y-128293174D01*
X104416957Y-128314115D01*
X104387843Y-128329677D01*
X104356252Y-128339260D01*
X104317260Y-128343100D01*
X100965540Y-128343100D01*
X100926548Y-128339260D01*
X100894957Y-128329677D01*
X100865843Y-128314115D01*
X100840326Y-128293174D01*
X100819385Y-128267657D01*
X100803823Y-128238543D01*
X100794240Y-128206952D01*
X100790400Y-128167960D01*
X100790400Y-126416240D01*
X100794240Y-126377248D01*
X100803823Y-126345657D01*
X100819385Y-126316543D01*
X100840326Y-126291026D01*
X100865843Y-126270085D01*
X100894957Y-126254523D01*
X100926548Y-126244940D01*
X100965540Y-126241100D01*
X104317260Y-126241100D01*
X104356252Y-126244940D01*
G37*
G36*
X112167000Y-126089600D02*
G01*
X110565000Y-126089600D01*
X110565000Y-123287600D01*
X112167000Y-123287600D01*
X112167000Y-126089600D01*
G37*
G36*
X107367000Y-126089600D02*
G01*
X105765000Y-126089600D01*
X105765000Y-123287600D01*
X107367000Y-123287600D01*
X107367000Y-126089600D01*
G37*
G36*
X163570256Y-122444898D02*
G01*
X163676579Y-122466047D01*
X163977042Y-122590503D01*
X164247451Y-122771185D01*
X164477415Y-123001149D01*
X164658097Y-123271558D01*
X164658098Y-123271560D01*
X164664742Y-123287600D01*
X164775922Y-123556012D01*
X164782553Y-123572022D01*
X164846000Y-123890989D01*
X164846000Y-124216211D01*
X164831285Y-124290188D01*
X164782553Y-124535179D01*
X164658097Y-124835642D01*
X164477415Y-125106051D01*
X164247451Y-125336015D01*
X163977042Y-125516697D01*
X163676579Y-125641153D01*
X163570256Y-125662302D01*
X163357611Y-125704600D01*
X163032389Y-125704600D01*
X162819744Y-125662302D01*
X162713421Y-125641153D01*
X162412958Y-125516697D01*
X162142549Y-125336015D01*
X161912585Y-125106051D01*
X161731903Y-124835642D01*
X161607447Y-124535179D01*
X161558715Y-124290188D01*
X161544000Y-124216211D01*
X161544000Y-123890989D01*
X161607447Y-123572022D01*
X161614079Y-123556012D01*
X161725258Y-123287600D01*
X161731902Y-123271560D01*
X161731903Y-123271558D01*
X161912585Y-123001149D01*
X162142549Y-122771185D01*
X162412958Y-122590503D01*
X162713421Y-122466047D01*
X162819744Y-122444898D01*
X163032389Y-122402600D01*
X163357611Y-122402600D01*
X163570256Y-122444898D01*
G37*
G36*
X132816868Y-124571465D02*
G01*
X132855538Y-124583196D01*
X132891177Y-124602246D01*
X132922417Y-124627883D01*
X132948054Y-124659123D01*
X132967104Y-124694762D01*
X132978835Y-124733432D01*
X132983400Y-124779788D01*
X132983400Y-125431012D01*
X132978835Y-125477368D01*
X132967104Y-125516038D01*
X132948054Y-125551677D01*
X132922417Y-125582917D01*
X132891177Y-125608554D01*
X132855538Y-125627604D01*
X132816868Y-125639335D01*
X132770512Y-125643900D01*
X131694288Y-125643900D01*
X131647932Y-125639335D01*
X131609262Y-125627604D01*
X131573623Y-125608554D01*
X131542383Y-125582917D01*
X131516746Y-125551677D01*
X131497696Y-125516038D01*
X131485965Y-125477368D01*
X131481400Y-125431012D01*
X131481400Y-124779788D01*
X131485965Y-124733432D01*
X131497696Y-124694762D01*
X131516746Y-124659123D01*
X131542383Y-124627883D01*
X131573623Y-124602246D01*
X131609262Y-124583196D01*
X131647932Y-124571465D01*
X131694288Y-124566900D01*
X132770512Y-124566900D01*
X132816868Y-124571465D01*
G37*
G36*
X137896868Y-124571465D02*
G01*
X137935538Y-124583196D01*
X137971177Y-124602246D01*
X138002417Y-124627883D01*
X138028054Y-124659123D01*
X138047104Y-124694762D01*
X138058835Y-124733432D01*
X138063400Y-124779788D01*
X138063400Y-125431012D01*
X138058835Y-125477368D01*
X138047104Y-125516038D01*
X138028054Y-125551677D01*
X138002417Y-125582917D01*
X137971177Y-125608554D01*
X137935538Y-125627604D01*
X137896868Y-125639335D01*
X137850512Y-125643900D01*
X136774288Y-125643900D01*
X136727932Y-125639335D01*
X136689262Y-125627604D01*
X136653623Y-125608554D01*
X136622383Y-125582917D01*
X136596746Y-125551677D01*
X136577696Y-125516038D01*
X136565965Y-125477368D01*
X136561400Y-125431012D01*
X136561400Y-124779788D01*
X136565965Y-124733432D01*
X136577696Y-124694762D01*
X136596746Y-124659123D01*
X136622383Y-124627883D01*
X136653623Y-124602246D01*
X136689262Y-124583196D01*
X136727932Y-124571465D01*
X136774288Y-124566900D01*
X137850512Y-124566900D01*
X137896868Y-124571465D01*
G37*
G36*
X140436868Y-124571465D02*
G01*
X140475538Y-124583196D01*
X140511177Y-124602246D01*
X140542417Y-124627883D01*
X140568054Y-124659123D01*
X140587104Y-124694762D01*
X140598835Y-124733432D01*
X140603400Y-124779788D01*
X140603400Y-125431012D01*
X140598835Y-125477368D01*
X140587104Y-125516038D01*
X140568054Y-125551677D01*
X140542417Y-125582917D01*
X140511177Y-125608554D01*
X140475538Y-125627604D01*
X140436868Y-125639335D01*
X140390512Y-125643900D01*
X139314288Y-125643900D01*
X139267932Y-125639335D01*
X139229262Y-125627604D01*
X139193623Y-125608554D01*
X139162383Y-125582917D01*
X139136746Y-125551677D01*
X139117696Y-125516038D01*
X139105965Y-125477368D01*
X139101400Y-125431012D01*
X139101400Y-124779788D01*
X139105965Y-124733432D01*
X139117696Y-124694762D01*
X139136746Y-124659123D01*
X139162383Y-124627883D01*
X139193623Y-124602246D01*
X139229262Y-124583196D01*
X139267932Y-124571465D01*
X139314288Y-124566900D01*
X140390512Y-124566900D01*
X140436868Y-124571465D01*
G37*
G36*
X135356868Y-124571465D02*
G01*
X135395538Y-124583196D01*
X135431177Y-124602246D01*
X135462417Y-124627883D01*
X135488054Y-124659123D01*
X135507104Y-124694762D01*
X135518835Y-124733432D01*
X135523400Y-124779788D01*
X135523400Y-125431012D01*
X135518835Y-125477368D01*
X135507104Y-125516038D01*
X135488054Y-125551677D01*
X135462417Y-125582917D01*
X135431177Y-125608554D01*
X135395538Y-125627604D01*
X135356868Y-125639335D01*
X135310512Y-125643900D01*
X134234288Y-125643900D01*
X134187932Y-125639335D01*
X134149262Y-125627604D01*
X134113623Y-125608554D01*
X134082383Y-125582917D01*
X134056746Y-125551677D01*
X134037696Y-125516038D01*
X134025965Y-125477368D01*
X134021400Y-125431012D01*
X134021400Y-124779788D01*
X134025965Y-124733432D01*
X134037696Y-124694762D01*
X134056746Y-124659123D01*
X134082383Y-124627883D01*
X134113623Y-124602246D01*
X134149262Y-124583196D01*
X134187932Y-124571465D01*
X134234288Y-124566900D01*
X135310512Y-124566900D01*
X135356868Y-124571465D01*
G37*
G36*
X130403868Y-124571465D02*
G01*
X130442538Y-124583196D01*
X130478177Y-124602246D01*
X130509417Y-124627883D01*
X130535054Y-124659123D01*
X130554104Y-124694762D01*
X130565835Y-124733432D01*
X130570400Y-124779788D01*
X130570400Y-125431012D01*
X130565835Y-125477368D01*
X130554104Y-125516038D01*
X130535054Y-125551677D01*
X130509417Y-125582917D01*
X130478177Y-125608554D01*
X130442538Y-125627604D01*
X130403868Y-125639335D01*
X130357512Y-125643900D01*
X129281288Y-125643900D01*
X129234932Y-125639335D01*
X129196262Y-125627604D01*
X129160623Y-125608554D01*
X129129383Y-125582917D01*
X129103746Y-125551677D01*
X129084696Y-125516038D01*
X129072965Y-125477368D01*
X129068400Y-125431012D01*
X129068400Y-124779788D01*
X129072965Y-124733432D01*
X129084696Y-124694762D01*
X129103746Y-124659123D01*
X129129383Y-124627883D01*
X129160623Y-124602246D01*
X129196262Y-124583196D01*
X129234932Y-124571465D01*
X129281288Y-124566900D01*
X130357512Y-124566900D01*
X130403868Y-124571465D01*
G37*
G36*
X144501968Y-124081865D02*
G01*
X144540638Y-124093596D01*
X144576277Y-124112646D01*
X144607517Y-124138283D01*
X144633154Y-124169523D01*
X144652204Y-124205162D01*
X144663935Y-124243832D01*
X144668500Y-124290188D01*
X144668500Y-125366412D01*
X144663935Y-125412768D01*
X144652204Y-125451438D01*
X144633154Y-125487077D01*
X144607517Y-125518317D01*
X144576277Y-125543954D01*
X144540638Y-125563004D01*
X144501968Y-125574735D01*
X144455612Y-125579300D01*
X143804388Y-125579300D01*
X143758032Y-125574735D01*
X143719362Y-125563004D01*
X143683723Y-125543954D01*
X143652483Y-125518317D01*
X143626846Y-125487077D01*
X143607796Y-125451438D01*
X143596065Y-125412768D01*
X143591500Y-125366412D01*
X143591500Y-124290188D01*
X143596065Y-124243832D01*
X143607796Y-124205162D01*
X143626846Y-124169523D01*
X143652483Y-124138283D01*
X143683723Y-124112646D01*
X143719362Y-124093596D01*
X143758032Y-124081865D01*
X143804388Y-124077300D01*
X144455612Y-124077300D01*
X144501968Y-124081865D01*
G37*
G36*
X142626968Y-124081865D02*
G01*
X142665638Y-124093596D01*
X142701277Y-124112646D01*
X142732517Y-124138283D01*
X142758154Y-124169523D01*
X142777204Y-124205162D01*
X142788935Y-124243832D01*
X142793500Y-124290188D01*
X142793500Y-125366412D01*
X142788935Y-125412768D01*
X142777204Y-125451438D01*
X142758154Y-125487077D01*
X142732517Y-125518317D01*
X142701277Y-125543954D01*
X142665638Y-125563004D01*
X142626968Y-125574735D01*
X142580612Y-125579300D01*
X141929388Y-125579300D01*
X141883032Y-125574735D01*
X141844362Y-125563004D01*
X141808723Y-125543954D01*
X141777483Y-125518317D01*
X141751846Y-125487077D01*
X141732796Y-125451438D01*
X141721065Y-125412768D01*
X141716500Y-125366412D01*
X141716500Y-124290188D01*
X141721065Y-124243832D01*
X141732796Y-124205162D01*
X141751846Y-124169523D01*
X141777483Y-124138283D01*
X141808723Y-124112646D01*
X141844362Y-124093596D01*
X141883032Y-124081865D01*
X141929388Y-124077300D01*
X142580612Y-124077300D01*
X142626968Y-124081865D01*
G37*
G36*
X146309968Y-124081865D02*
G01*
X146348638Y-124093596D01*
X146384277Y-124112646D01*
X146415517Y-124138283D01*
X146441154Y-124169523D01*
X146460204Y-124205162D01*
X146471935Y-124243832D01*
X146476500Y-124290188D01*
X146476500Y-125366412D01*
X146471935Y-125412768D01*
X146460204Y-125451438D01*
X146441154Y-125487077D01*
X146415517Y-125518317D01*
X146384277Y-125543954D01*
X146348638Y-125563004D01*
X146309968Y-125574735D01*
X146263612Y-125579300D01*
X145612388Y-125579300D01*
X145566032Y-125574735D01*
X145527362Y-125563004D01*
X145491723Y-125543954D01*
X145460483Y-125518317D01*
X145434846Y-125487077D01*
X145415796Y-125451438D01*
X145404065Y-125412768D01*
X145399500Y-125366412D01*
X145399500Y-124290188D01*
X145404065Y-124243832D01*
X145415796Y-124205162D01*
X145434846Y-124169523D01*
X145460483Y-124138283D01*
X145491723Y-124112646D01*
X145527362Y-124093596D01*
X145566032Y-124081865D01*
X145612388Y-124077300D01*
X146263612Y-124077300D01*
X146309968Y-124081865D01*
G37*
G36*
X148184968Y-124081865D02*
G01*
X148223638Y-124093596D01*
X148259277Y-124112646D01*
X148290517Y-124138283D01*
X148316154Y-124169523D01*
X148335204Y-124205162D01*
X148346935Y-124243832D01*
X148351500Y-124290188D01*
X148351500Y-125366412D01*
X148346935Y-125412768D01*
X148335204Y-125451438D01*
X148316154Y-125487077D01*
X148290517Y-125518317D01*
X148259277Y-125543954D01*
X148223638Y-125563004D01*
X148184968Y-125574735D01*
X148138612Y-125579300D01*
X147487388Y-125579300D01*
X147441032Y-125574735D01*
X147402362Y-125563004D01*
X147366723Y-125543954D01*
X147335483Y-125518317D01*
X147309846Y-125487077D01*
X147290796Y-125451438D01*
X147279065Y-125412768D01*
X147274500Y-125366412D01*
X147274500Y-124290188D01*
X147279065Y-124243832D01*
X147290796Y-124205162D01*
X147309846Y-124169523D01*
X147335483Y-124138283D01*
X147366723Y-124112646D01*
X147402362Y-124093596D01*
X147441032Y-124081865D01*
X147487388Y-124077300D01*
X148138612Y-124077300D01*
X148184968Y-124081865D01*
G37*
G36*
X137896868Y-122696465D02*
G01*
X137935538Y-122708196D01*
X137971177Y-122727246D01*
X138002417Y-122752883D01*
X138028054Y-122784123D01*
X138047104Y-122819762D01*
X138058835Y-122858432D01*
X138063400Y-122904788D01*
X138063400Y-123556012D01*
X138058835Y-123602368D01*
X138047104Y-123641038D01*
X138028054Y-123676677D01*
X138002417Y-123707917D01*
X137971177Y-123733554D01*
X137935538Y-123752604D01*
X137896868Y-123764335D01*
X137850512Y-123768900D01*
X136774288Y-123768900D01*
X136727932Y-123764335D01*
X136689262Y-123752604D01*
X136653623Y-123733554D01*
X136622383Y-123707917D01*
X136596746Y-123676677D01*
X136577696Y-123641038D01*
X136565965Y-123602368D01*
X136561400Y-123556012D01*
X136561400Y-122904788D01*
X136565965Y-122858432D01*
X136577696Y-122819762D01*
X136596746Y-122784123D01*
X136622383Y-122752883D01*
X136653623Y-122727246D01*
X136689262Y-122708196D01*
X136727932Y-122696465D01*
X136774288Y-122691900D01*
X137850512Y-122691900D01*
X137896868Y-122696465D01*
G37*
G36*
X140436868Y-122696465D02*
G01*
X140475538Y-122708196D01*
X140511177Y-122727246D01*
X140542417Y-122752883D01*
X140568054Y-122784123D01*
X140587104Y-122819762D01*
X140598835Y-122858432D01*
X140603400Y-122904788D01*
X140603400Y-123556012D01*
X140598835Y-123602368D01*
X140587104Y-123641038D01*
X140568054Y-123676677D01*
X140542417Y-123707917D01*
X140511177Y-123733554D01*
X140475538Y-123752604D01*
X140436868Y-123764335D01*
X140390512Y-123768900D01*
X139314288Y-123768900D01*
X139267932Y-123764335D01*
X139229262Y-123752604D01*
X139193623Y-123733554D01*
X139162383Y-123707917D01*
X139136746Y-123676677D01*
X139117696Y-123641038D01*
X139105965Y-123602368D01*
X139101400Y-123556012D01*
X139101400Y-122904788D01*
X139105965Y-122858432D01*
X139117696Y-122819762D01*
X139136746Y-122784123D01*
X139162383Y-122752883D01*
X139193623Y-122727246D01*
X139229262Y-122708196D01*
X139267932Y-122696465D01*
X139314288Y-122691900D01*
X140390512Y-122691900D01*
X140436868Y-122696465D01*
G37*
G36*
X132816868Y-122696465D02*
G01*
X132855538Y-122708196D01*
X132891177Y-122727246D01*
X132922417Y-122752883D01*
X132948054Y-122784123D01*
X132967104Y-122819762D01*
X132978835Y-122858432D01*
X132983400Y-122904788D01*
X132983400Y-123556012D01*
X132978835Y-123602368D01*
X132967104Y-123641038D01*
X132948054Y-123676677D01*
X132922417Y-123707917D01*
X132891177Y-123733554D01*
X132855538Y-123752604D01*
X132816868Y-123764335D01*
X132770512Y-123768900D01*
X131694288Y-123768900D01*
X131647932Y-123764335D01*
X131609262Y-123752604D01*
X131573623Y-123733554D01*
X131542383Y-123707917D01*
X131516746Y-123676677D01*
X131497696Y-123641038D01*
X131485965Y-123602368D01*
X131481400Y-123556012D01*
X131481400Y-122904788D01*
X131485965Y-122858432D01*
X131497696Y-122819762D01*
X131516746Y-122784123D01*
X131542383Y-122752883D01*
X131573623Y-122727246D01*
X131609262Y-122708196D01*
X131647932Y-122696465D01*
X131694288Y-122691900D01*
X132770512Y-122691900D01*
X132816868Y-122696465D01*
G37*
G36*
X130403868Y-122696465D02*
G01*
X130442538Y-122708196D01*
X130478177Y-122727246D01*
X130509417Y-122752883D01*
X130535054Y-122784123D01*
X130554104Y-122819762D01*
X130565835Y-122858432D01*
X130570400Y-122904788D01*
X130570400Y-123556012D01*
X130565835Y-123602368D01*
X130554104Y-123641038D01*
X130535054Y-123676677D01*
X130509417Y-123707917D01*
X130478177Y-123733554D01*
X130442538Y-123752604D01*
X130403868Y-123764335D01*
X130357512Y-123768900D01*
X129281288Y-123768900D01*
X129234932Y-123764335D01*
X129196262Y-123752604D01*
X129160623Y-123733554D01*
X129129383Y-123707917D01*
X129103746Y-123676677D01*
X129084696Y-123641038D01*
X129072965Y-123602368D01*
X129068400Y-123556012D01*
X129068400Y-122904788D01*
X129072965Y-122858432D01*
X129084696Y-122819762D01*
X129103746Y-122784123D01*
X129129383Y-122752883D01*
X129160623Y-122727246D01*
X129196262Y-122708196D01*
X129234932Y-122696465D01*
X129281288Y-122691900D01*
X130357512Y-122691900D01*
X130403868Y-122696465D01*
G37*
G36*
X135356868Y-122696465D02*
G01*
X135395538Y-122708196D01*
X135431177Y-122727246D01*
X135462417Y-122752883D01*
X135488054Y-122784123D01*
X135507104Y-122819762D01*
X135518835Y-122858432D01*
X135523400Y-122904788D01*
X135523400Y-123556012D01*
X135518835Y-123602368D01*
X135507104Y-123641038D01*
X135488054Y-123676677D01*
X135462417Y-123707917D01*
X135431177Y-123733554D01*
X135395538Y-123752604D01*
X135356868Y-123764335D01*
X135310512Y-123768900D01*
X134234288Y-123768900D01*
X134187932Y-123764335D01*
X134149262Y-123752604D01*
X134113623Y-123733554D01*
X134082383Y-123707917D01*
X134056746Y-123676677D01*
X134037696Y-123641038D01*
X134025965Y-123602368D01*
X134021400Y-123556012D01*
X134021400Y-122904788D01*
X134025965Y-122858432D01*
X134037696Y-122819762D01*
X134056746Y-122784123D01*
X134082383Y-122752883D01*
X134113623Y-122727246D01*
X134149262Y-122708196D01*
X134187932Y-122696465D01*
X134234288Y-122691900D01*
X135310512Y-122691900D01*
X135356868Y-122696465D01*
G37*
G36*
X147068845Y-121435242D02*
G01*
X147159048Y-121444126D01*
X147332657Y-121496790D01*
X147492656Y-121582311D01*
X147536229Y-121618071D01*
X147632897Y-121697403D01*
X147712229Y-121794071D01*
X147747989Y-121837644D01*
X147833510Y-121997643D01*
X147886174Y-122171252D01*
X147903956Y-122351800D01*
X147886174Y-122532348D01*
X147833510Y-122705957D01*
X147747989Y-122865956D01*
X147716120Y-122904788D01*
X147632897Y-123006197D01*
X147536229Y-123085529D01*
X147492656Y-123121289D01*
X147332657Y-123206810D01*
X147159048Y-123259474D01*
X147068845Y-123268358D01*
X147023745Y-123272800D01*
X146473255Y-123272800D01*
X146428155Y-123268358D01*
X146337952Y-123259474D01*
X146164343Y-123206810D01*
X146004344Y-123121289D01*
X145960771Y-123085529D01*
X145864103Y-123006197D01*
X145780880Y-122904788D01*
X145749011Y-122865956D01*
X145663490Y-122705957D01*
X145610826Y-122532348D01*
X145593044Y-122351800D01*
X145610826Y-122171252D01*
X145663490Y-121997643D01*
X145749011Y-121837644D01*
X145784771Y-121794071D01*
X145864103Y-121697403D01*
X145960771Y-121618071D01*
X146004344Y-121582311D01*
X146164343Y-121496790D01*
X146337952Y-121444126D01*
X146428155Y-121435242D01*
X146473255Y-121430800D01*
X147023745Y-121430800D01*
X147068845Y-121435242D01*
G37*
G36*
X142641968Y-121732365D02*
G01*
X142680638Y-121744096D01*
X142716277Y-121763146D01*
X142747517Y-121788783D01*
X142773154Y-121820023D01*
X142792204Y-121855662D01*
X142803935Y-121894332D01*
X142808500Y-121940688D01*
X142808500Y-123016912D01*
X142803935Y-123063268D01*
X142792204Y-123101938D01*
X142773154Y-123137577D01*
X142747517Y-123168817D01*
X142716277Y-123194454D01*
X142680638Y-123213504D01*
X142641968Y-123225235D01*
X142595612Y-123229800D01*
X141944388Y-123229800D01*
X141898032Y-123225235D01*
X141859362Y-123213504D01*
X141823723Y-123194454D01*
X141792483Y-123168817D01*
X141766846Y-123137577D01*
X141747796Y-123101938D01*
X141736065Y-123063268D01*
X141731500Y-123016912D01*
X141731500Y-121940688D01*
X141736065Y-121894332D01*
X141747796Y-121855662D01*
X141766846Y-121820023D01*
X141792483Y-121788783D01*
X141823723Y-121763146D01*
X141859362Y-121744096D01*
X141898032Y-121732365D01*
X141944388Y-121727800D01*
X142595612Y-121727800D01*
X142641968Y-121732365D01*
G37*
G36*
X144516968Y-121732365D02*
G01*
X144555638Y-121744096D01*
X144591277Y-121763146D01*
X144622517Y-121788783D01*
X144648154Y-121820023D01*
X144667204Y-121855662D01*
X144678935Y-121894332D01*
X144683500Y-121940688D01*
X144683500Y-123016912D01*
X144678935Y-123063268D01*
X144667204Y-123101938D01*
X144648154Y-123137577D01*
X144622517Y-123168817D01*
X144591277Y-123194454D01*
X144555638Y-123213504D01*
X144516968Y-123225235D01*
X144470612Y-123229800D01*
X143819388Y-123229800D01*
X143773032Y-123225235D01*
X143734362Y-123213504D01*
X143698723Y-123194454D01*
X143667483Y-123168817D01*
X143641846Y-123137577D01*
X143622796Y-123101938D01*
X143611065Y-123063268D01*
X143606500Y-123016912D01*
X143606500Y-121940688D01*
X143611065Y-121894332D01*
X143622796Y-121855662D01*
X143641846Y-121820023D01*
X143667483Y-121788783D01*
X143698723Y-121763146D01*
X143734362Y-121744096D01*
X143773032Y-121732365D01*
X143819388Y-121727800D01*
X144470612Y-121727800D01*
X144516968Y-121732365D01*
G37*
G36*
X117088228Y-120060303D02*
G01*
X117243100Y-120124453D01*
X117382481Y-120217585D01*
X117501015Y-120336119D01*
X117594147Y-120475500D01*
X117658297Y-120630372D01*
X117691000Y-120794784D01*
X117691000Y-120962416D01*
X117658297Y-121126828D01*
X117594147Y-121281700D01*
X117501015Y-121421081D01*
X117382481Y-121539615D01*
X117243100Y-121632747D01*
X117088228Y-121696897D01*
X116923816Y-121729600D01*
X116756184Y-121729600D01*
X116591772Y-121696897D01*
X116436900Y-121632747D01*
X116297519Y-121539615D01*
X116178985Y-121421081D01*
X116085853Y-121281700D01*
X116021703Y-121126828D01*
X115989000Y-120962416D01*
X115989000Y-120794784D01*
X116021703Y-120630372D01*
X116085853Y-120475500D01*
X116178985Y-120336119D01*
X116297519Y-120217585D01*
X116436900Y-120124453D01*
X116591772Y-120060303D01*
X116756184Y-120027600D01*
X116923816Y-120027600D01*
X117088228Y-120060303D01*
G37*
G36*
X124708228Y-120060303D02*
G01*
X124863100Y-120124453D01*
X125002481Y-120217585D01*
X125121015Y-120336119D01*
X125214147Y-120475500D01*
X125278297Y-120630372D01*
X125311000Y-120794784D01*
X125311000Y-120962416D01*
X125278297Y-121126828D01*
X125214147Y-121281700D01*
X125121015Y-121421081D01*
X125002481Y-121539615D01*
X124863100Y-121632747D01*
X124708228Y-121696897D01*
X124543816Y-121729600D01*
X124376184Y-121729600D01*
X124211772Y-121696897D01*
X124056900Y-121632747D01*
X123917519Y-121539615D01*
X123798985Y-121421081D01*
X123705853Y-121281700D01*
X123641703Y-121126828D01*
X123609000Y-120962416D01*
X123609000Y-120794784D01*
X123641703Y-120630372D01*
X123705853Y-120475500D01*
X123798985Y-120336119D01*
X123917519Y-120217585D01*
X124056900Y-120124453D01*
X124211772Y-120060303D01*
X124376184Y-120027600D01*
X124543816Y-120027600D01*
X124708228Y-120060303D01*
G37*
G36*
X137896941Y-118734060D02*
G01*
X138161005Y-118843439D01*
X138398658Y-119002234D01*
X138600766Y-119204342D01*
X138759561Y-119441995D01*
X138868940Y-119706059D01*
X138924700Y-119986388D01*
X138924700Y-120272212D01*
X138868940Y-120552541D01*
X138759561Y-120816605D01*
X138600766Y-121054258D01*
X138398658Y-121256366D01*
X138161005Y-121415161D01*
X137896941Y-121524540D01*
X137616612Y-121580300D01*
X137330788Y-121580300D01*
X137050459Y-121524540D01*
X136786395Y-121415161D01*
X136548742Y-121256366D01*
X136346634Y-121054258D01*
X136187839Y-120816605D01*
X136078460Y-120552541D01*
X136022700Y-120272212D01*
X136022700Y-119986388D01*
X136078460Y-119706059D01*
X136187839Y-119441995D01*
X136346634Y-119204342D01*
X136548742Y-119002234D01*
X136786395Y-118843439D01*
X137050459Y-118734060D01*
X137330788Y-118678300D01*
X137616612Y-118678300D01*
X137896941Y-118734060D01*
G37*
G36*
X133924700Y-121580300D02*
G01*
X131022700Y-121580300D01*
X131022700Y-118678300D01*
X133924700Y-118678300D01*
X133924700Y-121580300D01*
G37*
G36*
X168237000Y-121501000D02*
G01*
X166535000Y-121501000D01*
X166535000Y-119799000D01*
X168237000Y-119799000D01*
X168237000Y-121501000D01*
G37*
G36*
X103544497Y-118746169D02*
G01*
X103647432Y-118756307D01*
X103845546Y-118816405D01*
X103845549Y-118816406D01*
X103942375Y-118868161D01*
X104028129Y-118913997D01*
X104188165Y-119045335D01*
X104319503Y-119205371D01*
X104365339Y-119291125D01*
X104417094Y-119387951D01*
X104417095Y-119387954D01*
X104477193Y-119586068D01*
X104497485Y-119792100D01*
X104477193Y-119998132D01*
X104417095Y-120196246D01*
X104417094Y-120196249D01*
X104376491Y-120272211D01*
X104319503Y-120378829D01*
X104188165Y-120538865D01*
X104028129Y-120670203D01*
X103967316Y-120702708D01*
X103845549Y-120767794D01*
X103845546Y-120767795D01*
X103647432Y-120827893D01*
X103544497Y-120838031D01*
X103493031Y-120843100D01*
X101789769Y-120843100D01*
X101738303Y-120838031D01*
X101635368Y-120827893D01*
X101437254Y-120767795D01*
X101437251Y-120767794D01*
X101315484Y-120702708D01*
X101254671Y-120670203D01*
X101094635Y-120538865D01*
X100963297Y-120378829D01*
X100906309Y-120272211D01*
X100865706Y-120196249D01*
X100865705Y-120196246D01*
X100805607Y-119998132D01*
X100785315Y-119792100D01*
X100805607Y-119586068D01*
X100865705Y-119387954D01*
X100865706Y-119387951D01*
X100917461Y-119291125D01*
X100963297Y-119205371D01*
X101094635Y-119045335D01*
X101254671Y-118913997D01*
X101340425Y-118868161D01*
X101437251Y-118816406D01*
X101437254Y-118816405D01*
X101635368Y-118756307D01*
X101738303Y-118746169D01*
X101789769Y-118741100D01*
X103493031Y-118741100D01*
X103544497Y-118746169D01*
G37*
G36*
X144501968Y-119319365D02*
G01*
X144540638Y-119331096D01*
X144576277Y-119350146D01*
X144607517Y-119375783D01*
X144633154Y-119407023D01*
X144652204Y-119442662D01*
X144663935Y-119481332D01*
X144668500Y-119527688D01*
X144668500Y-120603912D01*
X144663935Y-120650268D01*
X144652204Y-120688938D01*
X144633154Y-120724577D01*
X144607517Y-120755817D01*
X144576277Y-120781454D01*
X144540638Y-120800504D01*
X144501968Y-120812235D01*
X144455612Y-120816800D01*
X143804388Y-120816800D01*
X143758032Y-120812235D01*
X143719362Y-120800504D01*
X143683723Y-120781454D01*
X143652483Y-120755817D01*
X143626846Y-120724577D01*
X143607796Y-120688938D01*
X143596065Y-120650268D01*
X143591500Y-120603912D01*
X143591500Y-119527688D01*
X143596065Y-119481332D01*
X143607796Y-119442662D01*
X143626846Y-119407023D01*
X143652483Y-119375783D01*
X143683723Y-119350146D01*
X143719362Y-119331096D01*
X143758032Y-119319365D01*
X143804388Y-119314800D01*
X144455612Y-119314800D01*
X144501968Y-119319365D01*
G37*
G36*
X142626968Y-119319365D02*
G01*
X142665638Y-119331096D01*
X142701277Y-119350146D01*
X142732517Y-119375783D01*
X142758154Y-119407023D01*
X142777204Y-119442662D01*
X142788935Y-119481332D01*
X142793500Y-119527688D01*
X142793500Y-120603912D01*
X142788935Y-120650268D01*
X142777204Y-120688938D01*
X142758154Y-120724577D01*
X142732517Y-120755817D01*
X142701277Y-120781454D01*
X142665638Y-120800504D01*
X142626968Y-120812235D01*
X142580612Y-120816800D01*
X141929388Y-120816800D01*
X141883032Y-120812235D01*
X141844362Y-120800504D01*
X141808723Y-120781454D01*
X141777483Y-120755817D01*
X141751846Y-120724577D01*
X141732796Y-120688938D01*
X141721065Y-120650268D01*
X141716500Y-120603912D01*
X141716500Y-119527688D01*
X141721065Y-119481332D01*
X141732796Y-119442662D01*
X141751846Y-119407023D01*
X141777483Y-119375783D01*
X141808723Y-119350146D01*
X141844362Y-119331096D01*
X141883032Y-119319365D01*
X141929388Y-119314800D01*
X142580612Y-119314800D01*
X142626968Y-119319365D01*
G37*
G36*
X147758061Y-118894766D02*
G01*
X147790883Y-118904723D01*
X147821132Y-118920892D01*
X147847648Y-118942652D01*
X147869408Y-118969168D01*
X147885577Y-118999417D01*
X147895534Y-119032239D01*
X147899500Y-119072513D01*
X147899500Y-120551087D01*
X147895534Y-120591361D01*
X147885577Y-120624183D01*
X147869408Y-120654432D01*
X147847648Y-120680948D01*
X147821132Y-120702708D01*
X147790883Y-120718877D01*
X147758061Y-120728834D01*
X147717787Y-120732800D01*
X145779213Y-120732800D01*
X145738939Y-120728834D01*
X145706117Y-120718877D01*
X145675868Y-120702708D01*
X145649352Y-120680948D01*
X145627592Y-120654432D01*
X145611423Y-120624183D01*
X145601466Y-120591361D01*
X145597500Y-120551087D01*
X145597500Y-119072513D01*
X145601466Y-119032239D01*
X145611423Y-118999417D01*
X145627592Y-118969168D01*
X145649352Y-118942652D01*
X145675868Y-118920892D01*
X145706117Y-118904723D01*
X145738939Y-118894766D01*
X145779213Y-118890800D01*
X147717787Y-118890800D01*
X147758061Y-118894766D01*
G37*
G36*
X109468228Y-118917303D02*
G01*
X109623100Y-118981453D01*
X109762481Y-119074585D01*
X109881015Y-119193119D01*
X109974147Y-119332500D01*
X110038297Y-119487372D01*
X110071000Y-119651784D01*
X110071000Y-119819416D01*
X110038297Y-119983828D01*
X109974147Y-120138700D01*
X109881015Y-120278081D01*
X109762481Y-120396615D01*
X109623100Y-120489747D01*
X109468228Y-120553897D01*
X109303816Y-120586600D01*
X109136184Y-120586600D01*
X108971772Y-120553897D01*
X108816900Y-120489747D01*
X108677519Y-120396615D01*
X108558985Y-120278081D01*
X108465853Y-120138700D01*
X108401703Y-119983828D01*
X108369000Y-119819416D01*
X108369000Y-119651784D01*
X108401703Y-119487372D01*
X108465853Y-119332500D01*
X108558985Y-119193119D01*
X108677519Y-119074585D01*
X108816900Y-118981453D01*
X108971772Y-118917303D01*
X109136184Y-118884600D01*
X109303816Y-118884600D01*
X109468228Y-118917303D01*
G37*
G36*
X113659228Y-118917303D02*
G01*
X113814100Y-118981453D01*
X113953481Y-119074585D01*
X114072015Y-119193119D01*
X114165147Y-119332500D01*
X114229297Y-119487372D01*
X114262000Y-119651784D01*
X114262000Y-119819416D01*
X114229297Y-119983828D01*
X114165147Y-120138700D01*
X114072015Y-120278081D01*
X113953481Y-120396615D01*
X113814100Y-120489747D01*
X113659228Y-120553897D01*
X113494816Y-120586600D01*
X113327184Y-120586600D01*
X113162772Y-120553897D01*
X113007900Y-120489747D01*
X112868519Y-120396615D01*
X112749985Y-120278081D01*
X112656853Y-120138700D01*
X112592703Y-119983828D01*
X112560000Y-119819416D01*
X112560000Y-119651784D01*
X112592703Y-119487372D01*
X112656853Y-119332500D01*
X112749985Y-119193119D01*
X112868519Y-119074585D01*
X113007900Y-118981453D01*
X113162772Y-118917303D01*
X113327184Y-118884600D01*
X113494816Y-118884600D01*
X113659228Y-118917303D01*
G37*
G36*
X124708228Y-117520303D02*
G01*
X124863100Y-117584453D01*
X125002481Y-117677585D01*
X125121015Y-117796119D01*
X125214147Y-117935500D01*
X125278297Y-118090372D01*
X125311000Y-118254784D01*
X125311000Y-118422416D01*
X125278297Y-118586828D01*
X125214147Y-118741700D01*
X125121015Y-118881081D01*
X125002481Y-118999615D01*
X124863100Y-119092747D01*
X124708228Y-119156897D01*
X124543816Y-119189600D01*
X124376184Y-119189600D01*
X124211772Y-119156897D01*
X124056900Y-119092747D01*
X123917519Y-118999615D01*
X123798985Y-118881081D01*
X123705853Y-118741700D01*
X123641703Y-118586828D01*
X123609000Y-118422416D01*
X123609000Y-118254784D01*
X123641703Y-118090372D01*
X123705853Y-117935500D01*
X123798985Y-117796119D01*
X123917519Y-117677585D01*
X124056900Y-117584453D01*
X124211772Y-117520303D01*
X124376184Y-117487600D01*
X124543816Y-117487600D01*
X124708228Y-117520303D01*
G37*
G36*
X117691000Y-119189600D02*
G01*
X115989000Y-119189600D01*
X115989000Y-117487600D01*
X117691000Y-117487600D01*
X117691000Y-119189600D01*
G37*
G36*
X173647100Y-117957600D02*
G01*
X171361100Y-117957600D01*
X171361100Y-115671600D01*
X173647100Y-115671600D01*
X173647100Y-117957600D01*
G37*
G36*
X167750903Y-113859075D02*
G01*
X167978571Y-113953378D01*
X168183466Y-114090285D01*
X168357715Y-114264534D01*
X168494622Y-114469429D01*
X168588925Y-114697097D01*
X168637000Y-114938787D01*
X168637000Y-115185213D01*
X168588925Y-115426903D01*
X168494622Y-115654571D01*
X168357715Y-115859466D01*
X168183466Y-116033715D01*
X167978571Y-116170622D01*
X167978570Y-116170623D01*
X167978569Y-116170623D01*
X167750903Y-116264925D01*
X167509214Y-116313000D01*
X167262786Y-116313000D01*
X167021097Y-116264925D01*
X166793431Y-116170623D01*
X166793430Y-116170623D01*
X166793429Y-116170622D01*
X166588534Y-116033715D01*
X166414285Y-115859466D01*
X166277378Y-115654571D01*
X166183075Y-115426903D01*
X166135000Y-115185213D01*
X166135000Y-114938787D01*
X166183075Y-114697097D01*
X166277378Y-114469429D01*
X166414285Y-114264534D01*
X166588534Y-114090285D01*
X166793429Y-113953378D01*
X167021097Y-113859075D01*
X167262786Y-113811000D01*
X167509214Y-113811000D01*
X167750903Y-113859075D01*
G37*
G36*
X161689668Y-112156565D02*
G01*
X161728338Y-112168296D01*
X161763977Y-112187346D01*
X161795217Y-112212983D01*
X161820854Y-112244223D01*
X161839904Y-112279862D01*
X161851635Y-112318532D01*
X161856200Y-112364888D01*
X161856200Y-113441112D01*
X161851635Y-113487468D01*
X161839904Y-113526138D01*
X161820854Y-113561777D01*
X161795217Y-113593017D01*
X161763977Y-113618654D01*
X161728338Y-113637704D01*
X161689668Y-113649435D01*
X161643312Y-113654000D01*
X160992088Y-113654000D01*
X160945732Y-113649435D01*
X160907062Y-113637704D01*
X160871423Y-113618654D01*
X160840183Y-113593017D01*
X160814546Y-113561777D01*
X160795496Y-113526138D01*
X160783765Y-113487468D01*
X160779200Y-113441112D01*
X160779200Y-112364888D01*
X160783765Y-112318532D01*
X160795496Y-112279862D01*
X160814546Y-112244223D01*
X160840183Y-112212983D01*
X160871423Y-112187346D01*
X160907062Y-112168296D01*
X160945732Y-112156565D01*
X160992088Y-112152000D01*
X161643312Y-112152000D01*
X161689668Y-112156565D01*
G37*
G36*
X163564668Y-112156565D02*
G01*
X163603338Y-112168296D01*
X163638977Y-112187346D01*
X163670217Y-112212983D01*
X163695854Y-112244223D01*
X163714904Y-112279862D01*
X163726635Y-112318532D01*
X163731200Y-112364888D01*
X163731200Y-113441112D01*
X163726635Y-113487468D01*
X163714904Y-113526138D01*
X163695854Y-113561777D01*
X163670217Y-113593017D01*
X163638977Y-113618654D01*
X163603338Y-113637704D01*
X163564668Y-113649435D01*
X163518312Y-113654000D01*
X162867088Y-113654000D01*
X162820732Y-113649435D01*
X162782062Y-113637704D01*
X162746423Y-113618654D01*
X162715183Y-113593017D01*
X162689546Y-113561777D01*
X162670496Y-113526138D01*
X162658765Y-113487468D01*
X162654200Y-113441112D01*
X162654200Y-112364888D01*
X162658765Y-112318532D01*
X162670496Y-112279862D01*
X162689546Y-112244223D01*
X162715183Y-112212983D01*
X162746423Y-112187346D01*
X162782062Y-112168296D01*
X162820732Y-112156565D01*
X162867088Y-112152000D01*
X163518312Y-112152000D01*
X163564668Y-112156565D01*
G37*
G36*
X103544497Y-111246169D02*
G01*
X103647432Y-111256307D01*
X103845546Y-111316405D01*
X103845549Y-111316406D01*
X103942375Y-111368161D01*
X104028129Y-111413997D01*
X104188165Y-111545335D01*
X104319503Y-111705371D01*
X104358178Y-111777728D01*
X104417094Y-111887951D01*
X104417095Y-111887954D01*
X104477193Y-112086068D01*
X104497485Y-112292100D01*
X104477193Y-112498132D01*
X104417095Y-112696246D01*
X104417094Y-112696249D01*
X104365339Y-112793075D01*
X104319503Y-112878829D01*
X104188165Y-113038865D01*
X104028129Y-113170203D01*
X103942375Y-113216039D01*
X103845549Y-113267794D01*
X103845546Y-113267795D01*
X103647432Y-113327893D01*
X103544497Y-113338031D01*
X103493031Y-113343100D01*
X101789769Y-113343100D01*
X101738303Y-113338031D01*
X101635368Y-113327893D01*
X101437254Y-113267795D01*
X101437251Y-113267794D01*
X101340425Y-113216039D01*
X101254671Y-113170203D01*
X101094635Y-113038865D01*
X100963297Y-112878829D01*
X100917461Y-112793075D01*
X100865706Y-112696249D01*
X100865705Y-112696246D01*
X100805607Y-112498132D01*
X100785315Y-112292100D01*
X100805607Y-112086068D01*
X100865705Y-111887954D01*
X100865706Y-111887951D01*
X100924622Y-111777728D01*
X100963297Y-111705371D01*
X101094635Y-111545335D01*
X101254671Y-111413997D01*
X101340425Y-111368161D01*
X101437251Y-111316406D01*
X101437254Y-111316405D01*
X101635368Y-111256307D01*
X101738303Y-111246169D01*
X101789769Y-111241100D01*
X103493031Y-111241100D01*
X103544497Y-111246169D01*
G37*
G36*
X124708228Y-110916303D02*
G01*
X124863100Y-110980453D01*
X125002481Y-111073585D01*
X125121015Y-111192119D01*
X125214147Y-111331500D01*
X125278297Y-111486372D01*
X125311000Y-111650784D01*
X125311000Y-111818416D01*
X125278297Y-111982828D01*
X125214147Y-112137700D01*
X125121015Y-112277081D01*
X125002481Y-112395615D01*
X124863100Y-112488747D01*
X124708228Y-112552897D01*
X124543816Y-112585600D01*
X124376184Y-112585600D01*
X124211772Y-112552897D01*
X124056900Y-112488747D01*
X123917519Y-112395615D01*
X123798985Y-112277081D01*
X123705853Y-112137700D01*
X123641703Y-111982828D01*
X123609000Y-111818416D01*
X123609000Y-111650784D01*
X123641703Y-111486372D01*
X123705853Y-111331500D01*
X123798985Y-111192119D01*
X123917519Y-111073585D01*
X124056900Y-110980453D01*
X124211772Y-110916303D01*
X124376184Y-110883600D01*
X124543816Y-110883600D01*
X124708228Y-110916303D01*
G37*
G36*
X117088228Y-110916303D02*
G01*
X117243100Y-110980453D01*
X117382481Y-111073585D01*
X117501015Y-111192119D01*
X117594147Y-111331500D01*
X117658297Y-111486372D01*
X117691000Y-111650784D01*
X117691000Y-111818416D01*
X117658297Y-111982828D01*
X117594147Y-112137700D01*
X117501015Y-112277081D01*
X117382481Y-112395615D01*
X117243100Y-112488747D01*
X117088228Y-112552897D01*
X116923816Y-112585600D01*
X116756184Y-112585600D01*
X116591772Y-112552897D01*
X116436900Y-112488747D01*
X116297519Y-112395615D01*
X116178985Y-112277081D01*
X116085853Y-112137700D01*
X116021703Y-111982828D01*
X115989000Y-111818416D01*
X115989000Y-111650784D01*
X116021703Y-111486372D01*
X116085853Y-111331500D01*
X116178985Y-111192119D01*
X116297519Y-111073585D01*
X116436900Y-110980453D01*
X116591772Y-110916303D01*
X116756184Y-110883600D01*
X116923816Y-110883600D01*
X117088228Y-110916303D01*
G37*
G36*
X107494000Y-112500600D02*
G01*
X105892000Y-112500600D01*
X105892000Y-109698600D01*
X107494000Y-109698600D01*
X107494000Y-112500600D01*
G37*
G36*
X112294000Y-112500600D02*
G01*
X110692000Y-112500600D01*
X110692000Y-109698600D01*
X112294000Y-109698600D01*
X112294000Y-112500600D01*
G37*
G36*
X147453928Y-110711203D02*
G01*
X147608800Y-110775353D01*
X147748181Y-110868485D01*
X147866715Y-110987019D01*
X147959847Y-111126400D01*
X148023997Y-111281272D01*
X148056700Y-111445684D01*
X148056700Y-111613316D01*
X148023997Y-111777728D01*
X147959847Y-111932600D01*
X147866715Y-112071981D01*
X147748181Y-112190515D01*
X147608800Y-112283647D01*
X147453928Y-112347797D01*
X147289516Y-112380500D01*
X147121884Y-112380500D01*
X146957472Y-112347797D01*
X146802600Y-112283647D01*
X146663219Y-112190515D01*
X146544685Y-112071981D01*
X146451553Y-111932600D01*
X146387403Y-111777728D01*
X146354700Y-111613316D01*
X146354700Y-111445684D01*
X146387403Y-111281272D01*
X146451553Y-111126400D01*
X146544685Y-110987019D01*
X146663219Y-110868485D01*
X146802600Y-110775353D01*
X146957472Y-110711203D01*
X147121884Y-110678500D01*
X147289516Y-110678500D01*
X147453928Y-110711203D01*
G37*
G36*
X167634228Y-109671703D02*
G01*
X167789100Y-109735853D01*
X167928481Y-109828985D01*
X168047015Y-109947519D01*
X168140147Y-110086900D01*
X168204297Y-110241772D01*
X168237000Y-110406184D01*
X168237000Y-110573816D01*
X168204297Y-110738228D01*
X168140147Y-110893100D01*
X168047015Y-111032481D01*
X167928481Y-111151015D01*
X167789100Y-111244147D01*
X167634228Y-111308297D01*
X167469816Y-111341000D01*
X167302184Y-111341000D01*
X167137772Y-111308297D01*
X166982900Y-111244147D01*
X166843519Y-111151015D01*
X166724985Y-111032481D01*
X166631853Y-110893100D01*
X166567703Y-110738228D01*
X166535000Y-110573816D01*
X166535000Y-110406184D01*
X166567703Y-110241772D01*
X166631853Y-110086900D01*
X166724985Y-109947519D01*
X166843519Y-109828985D01*
X166982900Y-109735853D01*
X167137772Y-109671703D01*
X167302184Y-109639000D01*
X167469816Y-109639000D01*
X167634228Y-109671703D01*
G37*
G36*
X163720728Y-109481203D02*
G01*
X163875600Y-109545353D01*
X164014981Y-109638485D01*
X164133515Y-109757019D01*
X164226647Y-109896400D01*
X164290797Y-110051272D01*
X164323500Y-110215684D01*
X164323500Y-110383316D01*
X164290797Y-110547728D01*
X164226647Y-110702600D01*
X164133515Y-110841981D01*
X164014981Y-110960515D01*
X163875600Y-111053647D01*
X163720728Y-111117797D01*
X163556316Y-111150500D01*
X163388684Y-111150500D01*
X163224272Y-111117797D01*
X163069400Y-111053647D01*
X162930019Y-110960515D01*
X162811485Y-110841981D01*
X162718353Y-110702600D01*
X162654203Y-110547728D01*
X162621500Y-110383316D01*
X162621500Y-110215684D01*
X162654203Y-110051272D01*
X162718353Y-109896400D01*
X162811485Y-109757019D01*
X162930019Y-109638485D01*
X163069400Y-109545353D01*
X163224272Y-109481203D01*
X163388684Y-109448500D01*
X163556316Y-109448500D01*
X163720728Y-109481203D01*
G37*
G36*
X161823500Y-111150500D02*
G01*
X160121500Y-111150500D01*
X160121500Y-109448500D01*
X161823500Y-109448500D01*
X161823500Y-111150500D01*
G37*
G36*
X124708228Y-108376303D02*
G01*
X124863100Y-108440453D01*
X125002481Y-108533585D01*
X125121015Y-108652119D01*
X125214147Y-108791500D01*
X125278297Y-108946372D01*
X125311000Y-109110784D01*
X125311000Y-109278416D01*
X125278297Y-109442828D01*
X125214147Y-109597700D01*
X125121015Y-109737081D01*
X125002481Y-109855615D01*
X124863100Y-109948747D01*
X124708228Y-110012897D01*
X124543816Y-110045600D01*
X124376184Y-110045600D01*
X124211772Y-110012897D01*
X124056900Y-109948747D01*
X123917519Y-109855615D01*
X123798985Y-109737081D01*
X123705853Y-109597700D01*
X123641703Y-109442828D01*
X123609000Y-109278416D01*
X123609000Y-109110784D01*
X123641703Y-108946372D01*
X123705853Y-108791500D01*
X123798985Y-108652119D01*
X123917519Y-108533585D01*
X124056900Y-108440453D01*
X124211772Y-108376303D01*
X124376184Y-108343600D01*
X124543816Y-108343600D01*
X124708228Y-108376303D01*
G37*
G36*
X117691000Y-110045600D02*
G01*
X115989000Y-110045600D01*
X115989000Y-108343600D01*
X117691000Y-108343600D01*
X117691000Y-110045600D01*
G37*
G36*
X148056700Y-109880500D02*
G01*
X146354700Y-109880500D01*
X146354700Y-108178500D01*
X148056700Y-108178500D01*
X148056700Y-109880500D01*
G37*
G36*
X167634228Y-107258703D02*
G01*
X167789100Y-107322853D01*
X167928481Y-107415985D01*
X168047015Y-107534519D01*
X168140147Y-107673900D01*
X168204297Y-107828772D01*
X168237000Y-107993184D01*
X168237000Y-108160816D01*
X168204297Y-108325228D01*
X168140147Y-108480100D01*
X168047015Y-108619481D01*
X167928481Y-108738015D01*
X167789100Y-108831147D01*
X167634228Y-108895297D01*
X167469816Y-108928000D01*
X167302184Y-108928000D01*
X167137772Y-108895297D01*
X166982900Y-108831147D01*
X166843519Y-108738015D01*
X166724985Y-108619481D01*
X166631853Y-108480100D01*
X166567703Y-108325228D01*
X166535000Y-108160816D01*
X166535000Y-107993184D01*
X166567703Y-107828772D01*
X166631853Y-107673900D01*
X166724985Y-107534519D01*
X166843519Y-107415985D01*
X166982900Y-107322853D01*
X167137772Y-107258703D01*
X167302184Y-107226000D01*
X167469816Y-107226000D01*
X167634228Y-107258703D01*
G37*
G36*
X103544497Y-103746169D02*
G01*
X103647432Y-103756307D01*
X103845546Y-103816405D01*
X103845549Y-103816406D01*
X103879559Y-103834585D01*
X104028129Y-103913997D01*
X104188165Y-104045335D01*
X104319503Y-104205371D01*
X104331158Y-104227176D01*
X104417094Y-104387951D01*
X104417095Y-104387954D01*
X104477193Y-104586068D01*
X104497485Y-104792100D01*
X104477193Y-104998132D01*
X104465074Y-105038081D01*
X104417094Y-105196249D01*
X104388498Y-105249748D01*
X104319503Y-105378829D01*
X104188165Y-105538865D01*
X104028129Y-105670203D01*
X103942375Y-105716039D01*
X103845549Y-105767794D01*
X103845546Y-105767795D01*
X103647432Y-105827893D01*
X103544497Y-105838031D01*
X103493031Y-105843100D01*
X101789769Y-105843100D01*
X101738303Y-105838031D01*
X101635368Y-105827893D01*
X101437254Y-105767795D01*
X101437251Y-105767794D01*
X101340425Y-105716039D01*
X101254671Y-105670203D01*
X101094635Y-105538865D01*
X100963297Y-105378829D01*
X100894302Y-105249748D01*
X100865706Y-105196249D01*
X100817726Y-105038081D01*
X100805607Y-104998132D01*
X100785315Y-104792100D01*
X100805607Y-104586068D01*
X100865705Y-104387954D01*
X100865706Y-104387951D01*
X100951642Y-104227176D01*
X100963297Y-104205371D01*
X101094635Y-104045335D01*
X101254671Y-103913997D01*
X101403241Y-103834585D01*
X101437251Y-103816406D01*
X101437254Y-103816405D01*
X101635368Y-103756307D01*
X101738303Y-103746169D01*
X101789769Y-103741100D01*
X103493031Y-103741100D01*
X103544497Y-103746169D01*
G37*
G36*
X109468228Y-103677303D02*
G01*
X109623100Y-103741453D01*
X109762481Y-103834585D01*
X109881015Y-103953119D01*
X109974147Y-104092500D01*
X110038297Y-104247372D01*
X110071000Y-104411784D01*
X110071000Y-104579416D01*
X110038297Y-104743828D01*
X109974147Y-104898700D01*
X109881015Y-105038081D01*
X109762481Y-105156615D01*
X109623100Y-105249747D01*
X109468228Y-105313897D01*
X109303816Y-105346600D01*
X109136184Y-105346600D01*
X108971772Y-105313897D01*
X108816900Y-105249747D01*
X108677519Y-105156615D01*
X108558985Y-105038081D01*
X108465853Y-104898700D01*
X108401703Y-104743828D01*
X108369000Y-104579416D01*
X108369000Y-104411784D01*
X108401703Y-104247372D01*
X108465853Y-104092500D01*
X108558985Y-103953119D01*
X108677519Y-103834585D01*
X108816900Y-103741453D01*
X108971772Y-103677303D01*
X109136184Y-103644600D01*
X109303816Y-103644600D01*
X109468228Y-103677303D01*
G37*
G36*
X113659228Y-103677303D02*
G01*
X113814100Y-103741453D01*
X113953481Y-103834585D01*
X114072015Y-103953119D01*
X114165147Y-104092500D01*
X114229297Y-104247372D01*
X114262000Y-104411784D01*
X114262000Y-104579416D01*
X114229297Y-104743828D01*
X114165147Y-104898700D01*
X114072015Y-105038081D01*
X113953481Y-105156615D01*
X113814100Y-105249747D01*
X113659228Y-105313897D01*
X113494816Y-105346600D01*
X113327184Y-105346600D01*
X113162772Y-105313897D01*
X113007900Y-105249747D01*
X112868519Y-105156615D01*
X112749985Y-105038081D01*
X112656853Y-104898700D01*
X112592703Y-104743828D01*
X112560000Y-104579416D01*
X112560000Y-104411784D01*
X112592703Y-104247372D01*
X112656853Y-104092500D01*
X112749985Y-103953119D01*
X112868519Y-103834585D01*
X113007900Y-103741453D01*
X113162772Y-103677303D01*
X113327184Y-103644600D01*
X113494816Y-103644600D01*
X113659228Y-103677303D01*
G37*
G36*
X182887088Y-102993562D02*
G01*
X182997501Y-103015525D01*
X183083662Y-103051214D01*
X183205512Y-103101686D01*
X183205513Y-103101687D01*
X183392720Y-103226774D01*
X183551926Y-103385980D01*
X183635507Y-103511068D01*
X183677014Y-103573188D01*
X183720140Y-103677303D01*
X183746712Y-103741453D01*
X183763175Y-103781200D01*
X183807100Y-104002023D01*
X183807100Y-104227177D01*
X183763175Y-104448000D01*
X183677014Y-104656012D01*
X183677013Y-104656013D01*
X183551926Y-104843220D01*
X183392720Y-105002426D01*
X183339358Y-105038081D01*
X183205512Y-105127514D01*
X183083662Y-105177986D01*
X182997501Y-105213675D01*
X182887089Y-105235637D01*
X182776677Y-105257600D01*
X182551523Y-105257600D01*
X182441111Y-105235637D01*
X182330699Y-105213675D01*
X182244538Y-105177986D01*
X182122688Y-105127514D01*
X181988842Y-105038081D01*
X181935480Y-105002426D01*
X181776274Y-104843220D01*
X181651187Y-104656013D01*
X181651186Y-104656012D01*
X181565025Y-104448000D01*
X181521100Y-104227177D01*
X181521100Y-104002023D01*
X181565025Y-103781200D01*
X181581489Y-103741453D01*
X181608060Y-103677303D01*
X181651186Y-103573188D01*
X181692693Y-103511068D01*
X181776274Y-103385980D01*
X181935480Y-103226774D01*
X182122687Y-103101687D01*
X182122688Y-103101686D01*
X182244538Y-103051214D01*
X182330699Y-103015525D01*
X182441112Y-102993562D01*
X182551523Y-102971600D01*
X182776677Y-102971600D01*
X182887088Y-102993562D01*
G37*
G36*
X152411768Y-100586865D02*
G01*
X152450438Y-100598596D01*
X152486077Y-100617646D01*
X152517317Y-100643283D01*
X152542954Y-100674523D01*
X152562004Y-100710162D01*
X152573735Y-100748832D01*
X152578300Y-100795188D01*
X152578300Y-101871412D01*
X152573735Y-101917768D01*
X152562004Y-101956438D01*
X152542954Y-101992077D01*
X152517317Y-102023317D01*
X152486077Y-102048954D01*
X152450438Y-102068004D01*
X152411768Y-102079735D01*
X152365412Y-102084300D01*
X151714188Y-102084300D01*
X151667832Y-102079735D01*
X151629162Y-102068004D01*
X151593523Y-102048954D01*
X151562283Y-102023317D01*
X151536646Y-101992077D01*
X151517596Y-101956438D01*
X151505865Y-101917768D01*
X151501300Y-101871412D01*
X151501300Y-100795188D01*
X151505865Y-100748832D01*
X151517596Y-100710162D01*
X151536646Y-100674523D01*
X151562283Y-100643283D01*
X151593523Y-100617646D01*
X151629162Y-100598596D01*
X151667832Y-100586865D01*
X151714188Y-100582300D01*
X152365412Y-100582300D01*
X152411768Y-100586865D01*
G37*
G36*
X150536768Y-100586865D02*
G01*
X150575438Y-100598596D01*
X150611077Y-100617646D01*
X150642317Y-100643283D01*
X150667954Y-100674523D01*
X150687004Y-100710162D01*
X150698735Y-100748832D01*
X150703300Y-100795188D01*
X150703300Y-101871412D01*
X150698735Y-101917768D01*
X150687004Y-101956438D01*
X150667954Y-101992077D01*
X150642317Y-102023317D01*
X150611077Y-102048954D01*
X150575438Y-102068004D01*
X150536768Y-102079735D01*
X150490412Y-102084300D01*
X149839188Y-102084300D01*
X149792832Y-102079735D01*
X149754162Y-102068004D01*
X149718523Y-102048954D01*
X149687283Y-102023317D01*
X149661646Y-101992077D01*
X149642596Y-101956438D01*
X149630865Y-101917768D01*
X149626300Y-101871412D01*
X149626300Y-100795188D01*
X149630865Y-100748832D01*
X149642596Y-100710162D01*
X149661646Y-100674523D01*
X149687283Y-100643283D01*
X149718523Y-100617646D01*
X149754162Y-100598596D01*
X149792832Y-100586865D01*
X149839188Y-100582300D01*
X150490412Y-100582300D01*
X150536768Y-100586865D01*
G37*
G36*
X139695621Y-97717374D02*
G01*
X139795895Y-97758909D01*
X139795896Y-97758910D01*
X139886142Y-97819210D01*
X139962890Y-97895958D01*
X139962891Y-97895960D01*
X140023191Y-97986205D01*
X140064726Y-98086479D01*
X140085900Y-98192930D01*
X140085900Y-98301470D01*
X140064726Y-98407921D01*
X140023191Y-98508195D01*
X140023190Y-98508196D01*
X139962890Y-98598442D01*
X139886142Y-98675190D01*
X139840712Y-98705545D01*
X139795895Y-98735491D01*
X139695621Y-98777026D01*
X139589170Y-98798200D01*
X139480630Y-98798200D01*
X139374179Y-98777026D01*
X139273905Y-98735491D01*
X139229088Y-98705545D01*
X139183658Y-98675190D01*
X139106910Y-98598442D01*
X139046610Y-98508196D01*
X139046609Y-98508195D01*
X139005074Y-98407921D01*
X138983900Y-98301470D01*
X138983900Y-98192930D01*
X139005074Y-98086479D01*
X139046609Y-97986205D01*
X139106909Y-97895960D01*
X139106910Y-97895958D01*
X139183658Y-97819210D01*
X139273904Y-97758910D01*
X139273905Y-97758909D01*
X139374179Y-97717374D01*
X139480630Y-97696200D01*
X139589170Y-97696200D01*
X139695621Y-97717374D01*
G37*
G36*
X168237000Y-98768000D02*
G01*
X166535000Y-98768000D01*
X166535000Y-97066000D01*
X168237000Y-97066000D01*
X168237000Y-98768000D01*
G37*
G36*
X145238800Y-98706000D02*
G01*
X142136800Y-98706000D01*
X142136800Y-95604000D01*
X145238800Y-95604000D01*
X145238800Y-98706000D01*
G37*
G36*
X123392418Y-95612326D02*
G01*
X123650210Y-95663604D01*
X123932474Y-95780521D01*
X124186505Y-95950259D01*
X124402541Y-96166295D01*
X124572279Y-96420326D01*
X124689196Y-96702590D01*
X124748800Y-97002240D01*
X124748800Y-97307760D01*
X124689196Y-97607410D01*
X124572279Y-97889674D01*
X124402541Y-98143705D01*
X124186505Y-98359741D01*
X123932474Y-98529479D01*
X123650210Y-98646396D01*
X123505453Y-98675190D01*
X123350561Y-98706000D01*
X123045039Y-98706000D01*
X122890147Y-98675190D01*
X122745390Y-98646396D01*
X122463126Y-98529479D01*
X122209095Y-98359741D01*
X121993059Y-98143705D01*
X121823321Y-97889674D01*
X121706404Y-97607410D01*
X121646800Y-97307760D01*
X121646800Y-97002240D01*
X121706404Y-96702590D01*
X121823321Y-96420326D01*
X121993059Y-96166295D01*
X122209095Y-95950259D01*
X122463126Y-95780521D01*
X122745390Y-95663604D01*
X123003182Y-95612326D01*
X123045039Y-95604000D01*
X123350561Y-95604000D01*
X123392418Y-95612326D01*
G37*
G36*
X161537561Y-96618966D02*
G01*
X161570383Y-96628923D01*
X161600632Y-96645092D01*
X161627148Y-96666852D01*
X161648908Y-96693368D01*
X161665077Y-96723617D01*
X161675034Y-96756439D01*
X161679000Y-96796713D01*
X161679000Y-98275287D01*
X161675034Y-98315561D01*
X161665077Y-98348383D01*
X161648908Y-98378632D01*
X161627148Y-98405148D01*
X161600632Y-98426908D01*
X161570383Y-98443077D01*
X161537561Y-98453034D01*
X161497287Y-98457000D01*
X159558713Y-98457000D01*
X159518439Y-98453034D01*
X159485617Y-98443077D01*
X159455368Y-98426908D01*
X159428852Y-98405148D01*
X159407092Y-98378632D01*
X159390923Y-98348383D01*
X159380966Y-98315561D01*
X159377000Y-98275287D01*
X159377000Y-96796713D01*
X159380966Y-96756439D01*
X159390923Y-96723617D01*
X159407092Y-96693368D01*
X159428852Y-96666852D01*
X159455368Y-96645092D01*
X159485617Y-96628923D01*
X159518439Y-96618966D01*
X159558713Y-96615000D01*
X161497287Y-96615000D01*
X161537561Y-96618966D01*
G37*
G36*
X116643728Y-96296703D02*
G01*
X116798600Y-96360853D01*
X116937981Y-96453985D01*
X117056515Y-96572519D01*
X117149647Y-96711900D01*
X117213797Y-96866772D01*
X117246500Y-97031184D01*
X117246500Y-97198816D01*
X117213797Y-97363228D01*
X117149647Y-97518100D01*
X117056515Y-97657481D01*
X116937981Y-97776015D01*
X116798600Y-97869147D01*
X116643728Y-97933297D01*
X116479316Y-97966000D01*
X116311684Y-97966000D01*
X116147272Y-97933297D01*
X115992400Y-97869147D01*
X115853019Y-97776015D01*
X115734485Y-97657481D01*
X115641353Y-97518100D01*
X115577203Y-97363228D01*
X115544500Y-97198816D01*
X115544500Y-97031184D01*
X115577203Y-96866772D01*
X115641353Y-96711900D01*
X115734485Y-96572519D01*
X115853019Y-96453985D01*
X115992400Y-96360853D01*
X116147272Y-96296703D01*
X116311684Y-96264000D01*
X116479316Y-96264000D01*
X116643728Y-96296703D01*
G37*
G36*
X109595228Y-96296703D02*
G01*
X109750100Y-96360853D01*
X109889481Y-96453985D01*
X110008015Y-96572519D01*
X110101147Y-96711900D01*
X110165297Y-96866772D01*
X110198000Y-97031184D01*
X110198000Y-97198816D01*
X110165297Y-97363228D01*
X110101147Y-97518100D01*
X110008015Y-97657481D01*
X109889481Y-97776015D01*
X109750100Y-97869147D01*
X109595228Y-97933297D01*
X109430816Y-97966000D01*
X109263184Y-97966000D01*
X109098772Y-97933297D01*
X108943900Y-97869147D01*
X108804519Y-97776015D01*
X108685985Y-97657481D01*
X108592853Y-97518100D01*
X108528703Y-97363228D01*
X108496000Y-97198816D01*
X108496000Y-97031184D01*
X108528703Y-96866772D01*
X108592853Y-96711900D01*
X108685985Y-96572519D01*
X108804519Y-96453985D01*
X108943900Y-96360853D01*
X109098772Y-96296703D01*
X109263184Y-96264000D01*
X109430816Y-96264000D01*
X109595228Y-96296703D01*
G37*
G36*
X102047345Y-95603442D02*
G01*
X102137548Y-95612326D01*
X102311157Y-95664990D01*
X102471156Y-95750511D01*
X102507723Y-95780521D01*
X102611397Y-95865603D01*
X102676494Y-95944925D01*
X102726489Y-96005844D01*
X102812010Y-96165843D01*
X102864674Y-96339452D01*
X102882456Y-96520000D01*
X102864674Y-96700548D01*
X102814250Y-96866772D01*
X102812009Y-96874159D01*
X102809072Y-96879654D01*
X102726489Y-97034156D01*
X102700355Y-97066000D01*
X102611397Y-97174397D01*
X102514729Y-97253729D01*
X102471156Y-97289489D01*
X102311157Y-97375010D01*
X102137548Y-97427674D01*
X102047345Y-97436558D01*
X102002245Y-97441000D01*
X101451755Y-97441000D01*
X101406655Y-97436558D01*
X101316452Y-97427674D01*
X101142843Y-97375010D01*
X100982844Y-97289489D01*
X100939271Y-97253729D01*
X100842603Y-97174397D01*
X100753645Y-97066000D01*
X100727511Y-97034156D01*
X100644928Y-96879654D01*
X100641991Y-96874159D01*
X100639750Y-96866772D01*
X100589326Y-96700548D01*
X100571544Y-96520000D01*
X100589326Y-96339452D01*
X100641990Y-96165843D01*
X100727511Y-96005844D01*
X100777506Y-95944925D01*
X100842603Y-95865603D01*
X100946277Y-95780521D01*
X100982844Y-95750511D01*
X101142843Y-95664990D01*
X101316452Y-95612326D01*
X101406655Y-95603442D01*
X101451755Y-95599000D01*
X102002245Y-95599000D01*
X102047345Y-95603442D01*
G37*
G36*
X139695621Y-95817374D02*
G01*
X139795895Y-95858909D01*
X139840712Y-95888855D01*
X139886142Y-95919210D01*
X139962890Y-95995958D01*
X139969496Y-96005845D01*
X140023191Y-96086205D01*
X140064726Y-96186479D01*
X140085900Y-96292930D01*
X140085900Y-96401470D01*
X140064726Y-96507921D01*
X140023191Y-96608195D01*
X140023190Y-96608196D01*
X139962890Y-96698442D01*
X139886142Y-96775190D01*
X139881375Y-96778375D01*
X139795895Y-96835491D01*
X139695621Y-96877026D01*
X139589170Y-96898200D01*
X139480630Y-96898200D01*
X139374179Y-96877026D01*
X139273905Y-96835491D01*
X139188425Y-96778375D01*
X139183658Y-96775190D01*
X139106910Y-96698442D01*
X139046610Y-96608196D01*
X139046609Y-96608195D01*
X139005074Y-96507921D01*
X138983900Y-96401470D01*
X138983900Y-96292930D01*
X139005074Y-96186479D01*
X139046609Y-96086205D01*
X139100304Y-96005845D01*
X139106910Y-95995958D01*
X139183658Y-95919210D01*
X139229088Y-95888855D01*
X139273905Y-95858909D01*
X139374179Y-95817374D01*
X139480630Y-95796200D01*
X139589170Y-95796200D01*
X139695621Y-95817374D01*
G37*
G36*
X167750903Y-93539075D02*
G01*
X167936936Y-93616132D01*
X167978571Y-93633378D01*
X168183466Y-93770285D01*
X168357715Y-93944534D01*
X168444890Y-94075000D01*
X168494623Y-94149431D01*
X168588925Y-94377097D01*
X168612210Y-94494156D01*
X168637000Y-94618787D01*
X168637000Y-94865213D01*
X168588925Y-95106903D01*
X168494622Y-95334571D01*
X168357715Y-95539466D01*
X168183466Y-95713715D01*
X167978571Y-95850622D01*
X167978570Y-95850623D01*
X167978569Y-95850623D01*
X167750903Y-95944925D01*
X167509214Y-95993000D01*
X167262786Y-95993000D01*
X167021097Y-95944925D01*
X166793431Y-95850623D01*
X166793430Y-95850623D01*
X166793429Y-95850622D01*
X166588534Y-95713715D01*
X166414285Y-95539466D01*
X166277378Y-95334571D01*
X166183075Y-95106903D01*
X166135000Y-94865213D01*
X166135000Y-94618787D01*
X166159791Y-94494156D01*
X166183075Y-94377097D01*
X166277377Y-94149431D01*
X166327110Y-94075000D01*
X166414285Y-93944534D01*
X166588534Y-93770285D01*
X166793429Y-93633378D01*
X166835065Y-93616132D01*
X167021097Y-93539075D01*
X167262786Y-93491000D01*
X167509214Y-93491000D01*
X167750903Y-93539075D01*
G37*
G36*
X160848345Y-94079442D02*
G01*
X160938548Y-94088326D01*
X161112157Y-94140990D01*
X161272156Y-94226511D01*
X161315729Y-94262271D01*
X161412397Y-94341603D01*
X161491729Y-94438271D01*
X161527489Y-94481844D01*
X161613010Y-94641843D01*
X161665674Y-94815452D01*
X161683456Y-94996000D01*
X161665674Y-95176548D01*
X161613010Y-95350157D01*
X161527489Y-95510156D01*
X161491729Y-95553729D01*
X161412397Y-95650397D01*
X161335241Y-95713716D01*
X161272156Y-95765489D01*
X161112157Y-95851010D01*
X160938548Y-95903674D01*
X160848345Y-95912558D01*
X160803245Y-95917000D01*
X160252755Y-95917000D01*
X160207655Y-95912558D01*
X160117452Y-95903674D01*
X159943843Y-95851010D01*
X159783844Y-95765489D01*
X159720759Y-95713716D01*
X159643603Y-95650397D01*
X159564271Y-95553729D01*
X159528511Y-95510156D01*
X159442990Y-95350157D01*
X159390326Y-95176548D01*
X159372544Y-94996000D01*
X159390326Y-94815452D01*
X159442990Y-94641843D01*
X159528511Y-94481844D01*
X159564271Y-94438271D01*
X159643603Y-94341603D01*
X159740271Y-94262271D01*
X159783844Y-94226511D01*
X159943843Y-94140990D01*
X160117452Y-94088326D01*
X160207655Y-94079442D01*
X160252755Y-94075000D01*
X160803245Y-94075000D01*
X160848345Y-94079442D01*
G37*
G36*
X110198000Y-95466000D02*
G01*
X108496000Y-95466000D01*
X108496000Y-93764000D01*
X110198000Y-93764000D01*
X110198000Y-95466000D01*
G37*
G36*
X117246500Y-95466000D02*
G01*
X115544500Y-95466000D01*
X115544500Y-93764000D01*
X117246500Y-93764000D01*
X117246500Y-95466000D01*
G37*
G36*
X102047345Y-93063442D02*
G01*
X102137548Y-93072326D01*
X102311157Y-93124990D01*
X102471156Y-93210511D01*
X102514729Y-93246271D01*
X102611397Y-93325603D01*
X102690729Y-93422271D01*
X102726489Y-93465844D01*
X102812010Y-93625843D01*
X102864674Y-93799452D01*
X102882456Y-93980000D01*
X102864674Y-94160548D01*
X102812010Y-94334157D01*
X102726489Y-94494156D01*
X102690729Y-94537729D01*
X102611397Y-94634397D01*
X102514729Y-94713729D01*
X102471156Y-94749489D01*
X102311157Y-94835010D01*
X102137548Y-94887674D01*
X102047345Y-94896558D01*
X102002245Y-94901000D01*
X101451755Y-94901000D01*
X101406655Y-94896558D01*
X101316452Y-94887674D01*
X101142843Y-94835010D01*
X100982844Y-94749489D01*
X100939271Y-94713729D01*
X100842603Y-94634397D01*
X100763271Y-94537729D01*
X100727511Y-94494156D01*
X100641990Y-94334157D01*
X100589326Y-94160548D01*
X100571544Y-93980000D01*
X100589326Y-93799452D01*
X100641990Y-93625843D01*
X100727511Y-93465844D01*
X100763271Y-93422271D01*
X100842603Y-93325603D01*
X100939271Y-93246271D01*
X100982844Y-93210511D01*
X101142843Y-93124990D01*
X101316452Y-93072326D01*
X101406655Y-93063442D01*
X101451755Y-93059000D01*
X102002245Y-93059000D01*
X102047345Y-93063442D01*
G37*
G36*
X154425561Y-91856466D02*
G01*
X154458383Y-91866423D01*
X154488632Y-91882592D01*
X154515148Y-91904352D01*
X154536908Y-91930868D01*
X154553077Y-91961117D01*
X154563034Y-91993939D01*
X154567000Y-92034213D01*
X154567000Y-93512787D01*
X154563034Y-93553061D01*
X154553077Y-93585883D01*
X154536908Y-93616132D01*
X154515148Y-93642648D01*
X154488632Y-93664408D01*
X154458383Y-93680577D01*
X154425561Y-93690534D01*
X154385287Y-93694500D01*
X152446713Y-93694500D01*
X152406439Y-93690534D01*
X152373617Y-93680577D01*
X152343368Y-93664408D01*
X152316852Y-93642648D01*
X152295092Y-93616132D01*
X152278923Y-93585883D01*
X152268966Y-93553061D01*
X152265000Y-93512787D01*
X152265000Y-92034213D01*
X152268966Y-91993939D01*
X152278923Y-91961117D01*
X152295092Y-91930868D01*
X152316852Y-91904352D01*
X152343368Y-91882592D01*
X152373617Y-91866423D01*
X152406439Y-91856466D01*
X152446713Y-91852500D01*
X154385287Y-91852500D01*
X154425561Y-91856466D01*
G37*
G36*
X160848345Y-91539442D02*
G01*
X160938548Y-91548326D01*
X161112157Y-91600990D01*
X161272156Y-91686511D01*
X161315729Y-91722271D01*
X161412397Y-91801603D01*
X161478862Y-91882592D01*
X161527489Y-91941844D01*
X161613010Y-92101843D01*
X161665674Y-92275452D01*
X161683456Y-92456000D01*
X161665674Y-92636548D01*
X161613010Y-92810157D01*
X161527489Y-92970156D01*
X161491729Y-93013729D01*
X161412397Y-93110397D01*
X161315729Y-93189729D01*
X161272156Y-93225489D01*
X161112157Y-93311010D01*
X160938548Y-93363674D01*
X160848345Y-93372558D01*
X160803245Y-93377000D01*
X160252755Y-93377000D01*
X160207655Y-93372558D01*
X160117452Y-93363674D01*
X159943843Y-93311010D01*
X159783844Y-93225489D01*
X159740271Y-93189729D01*
X159643603Y-93110397D01*
X159564271Y-93013729D01*
X159528511Y-92970156D01*
X159442990Y-92810157D01*
X159390326Y-92636548D01*
X159372544Y-92456000D01*
X159390326Y-92275452D01*
X159442990Y-92101843D01*
X159528511Y-91941844D01*
X159577138Y-91882592D01*
X159643603Y-91801603D01*
X159740271Y-91722271D01*
X159783844Y-91686511D01*
X159943843Y-91600990D01*
X160117452Y-91548326D01*
X160207655Y-91539442D01*
X160252755Y-91535000D01*
X160803245Y-91535000D01*
X160848345Y-91539442D01*
G37*
G36*
X172727088Y-90293562D02*
G01*
X172837501Y-90315525D01*
X172923662Y-90351214D01*
X173045512Y-90401686D01*
X173045513Y-90401687D01*
X173232720Y-90526774D01*
X173391926Y-90685980D01*
X173433136Y-90747656D01*
X173517014Y-90873188D01*
X173567486Y-90995038D01*
X173603175Y-91081199D01*
X173625137Y-91191611D01*
X173647100Y-91302023D01*
X173647100Y-91527177D01*
X173603175Y-91748000D01*
X173517014Y-91956012D01*
X173517013Y-91956013D01*
X173391926Y-92143220D01*
X173232720Y-92302426D01*
X173150993Y-92357034D01*
X173045512Y-92427514D01*
X172976740Y-92456000D01*
X172837501Y-92513675D01*
X172727088Y-92535638D01*
X172616677Y-92557600D01*
X172391523Y-92557600D01*
X172281112Y-92535638D01*
X172170699Y-92513675D01*
X172031460Y-92456000D01*
X171962688Y-92427514D01*
X171857207Y-92357034D01*
X171775480Y-92302426D01*
X171616274Y-92143220D01*
X171491187Y-91956013D01*
X171491186Y-91956012D01*
X171405025Y-91748000D01*
X171361100Y-91527177D01*
X171361100Y-91302023D01*
X171383063Y-91191611D01*
X171405025Y-91081199D01*
X171440714Y-90995038D01*
X171491186Y-90873188D01*
X171575064Y-90747656D01*
X171616274Y-90685980D01*
X171775480Y-90526774D01*
X171962687Y-90401687D01*
X171962688Y-90401686D01*
X172084538Y-90351214D01*
X172170699Y-90315525D01*
X172281111Y-90293563D01*
X172391523Y-90271600D01*
X172616677Y-90271600D01*
X172727088Y-90293562D01*
G37*
G36*
X102736561Y-90522966D02*
G01*
X102769383Y-90532923D01*
X102799632Y-90549092D01*
X102826148Y-90570852D01*
X102847908Y-90597368D01*
X102864077Y-90627617D01*
X102874034Y-90660439D01*
X102878000Y-90700713D01*
X102878000Y-92179287D01*
X102874034Y-92219561D01*
X102864077Y-92252383D01*
X102847908Y-92282632D01*
X102826148Y-92309148D01*
X102799632Y-92330908D01*
X102769383Y-92347077D01*
X102736561Y-92357034D01*
X102696287Y-92361000D01*
X100757713Y-92361000D01*
X100717439Y-92357034D01*
X100684617Y-92347077D01*
X100654368Y-92330908D01*
X100627852Y-92309148D01*
X100606092Y-92282632D01*
X100589923Y-92252383D01*
X100579966Y-92219561D01*
X100576000Y-92179287D01*
X100576000Y-90700713D01*
X100579966Y-90660439D01*
X100589923Y-90627617D01*
X100606092Y-90597368D01*
X100627852Y-90570852D01*
X100654368Y-90549092D01*
X100684617Y-90532923D01*
X100717439Y-90522966D01*
X100757713Y-90519000D01*
X102696287Y-90519000D01*
X102736561Y-90522966D01*
G37*
G36*
X168287000Y-92277500D02*
G01*
X166485000Y-92277500D01*
X166485000Y-90475500D01*
X168287000Y-90475500D01*
X168287000Y-92277500D01*
G37*
G36*
X153736345Y-89316942D02*
G01*
X153826548Y-89325826D01*
X154000157Y-89378490D01*
X154160156Y-89464011D01*
X154203729Y-89499771D01*
X154300397Y-89579103D01*
X154349722Y-89639207D01*
X154415489Y-89719344D01*
X154501010Y-89879343D01*
X154553674Y-90052952D01*
X154571456Y-90233500D01*
X154553674Y-90414048D01*
X154501010Y-90587657D01*
X154415489Y-90747656D01*
X154385946Y-90783654D01*
X154300397Y-90887897D01*
X154231303Y-90944600D01*
X154160156Y-91002989D01*
X154000157Y-91088510D01*
X153826548Y-91141174D01*
X153736345Y-91150058D01*
X153691245Y-91154500D01*
X153140755Y-91154500D01*
X153095655Y-91150058D01*
X153005452Y-91141174D01*
X152831843Y-91088510D01*
X152671844Y-91002989D01*
X152600697Y-90944600D01*
X152531603Y-90887897D01*
X152446054Y-90783654D01*
X152416511Y-90747656D01*
X152330990Y-90587657D01*
X152278326Y-90414048D01*
X152260544Y-90233500D01*
X152278326Y-90052952D01*
X152330990Y-89879343D01*
X152416511Y-89719344D01*
X152482278Y-89639207D01*
X152531603Y-89579103D01*
X152628271Y-89499771D01*
X152671844Y-89464011D01*
X152831843Y-89378490D01*
X153005452Y-89325826D01*
X153095655Y-89316942D01*
X153140755Y-89312500D01*
X153691245Y-89312500D01*
X153736345Y-89316942D01*
G37*
G36*
X141693200Y-90944600D02*
G01*
X139891200Y-90944600D01*
X139891200Y-89542600D01*
X141693200Y-89542600D01*
X141693200Y-90944600D01*
G37*
G36*
X151205500Y-90934500D02*
G01*
X149403500Y-90934500D01*
X149403500Y-89532500D01*
X151205500Y-89532500D01*
X151205500Y-90934500D01*
G37*
G36*
X160848345Y-88999442D02*
G01*
X160938548Y-89008326D01*
X161112157Y-89060990D01*
X161272156Y-89146511D01*
X161315729Y-89182271D01*
X161412397Y-89261603D01*
X161491729Y-89358271D01*
X161527489Y-89401844D01*
X161613010Y-89561843D01*
X161665674Y-89735452D01*
X161683456Y-89916000D01*
X161665674Y-90096548D01*
X161613010Y-90270157D01*
X161527489Y-90430156D01*
X161491729Y-90473729D01*
X161412397Y-90570397D01*
X161342673Y-90627617D01*
X161272156Y-90685489D01*
X161112157Y-90771010D01*
X160938548Y-90823674D01*
X160848345Y-90832558D01*
X160803245Y-90837000D01*
X160252755Y-90837000D01*
X160207655Y-90832558D01*
X160117452Y-90823674D01*
X159943843Y-90771010D01*
X159783844Y-90685489D01*
X159713327Y-90627617D01*
X159643603Y-90570397D01*
X159564271Y-90473729D01*
X159528511Y-90430156D01*
X159442990Y-90270157D01*
X159390326Y-90096548D01*
X159372544Y-89916000D01*
X159390326Y-89735452D01*
X159442990Y-89561843D01*
X159528511Y-89401844D01*
X159564271Y-89358271D01*
X159643603Y-89261603D01*
X159740271Y-89182271D01*
X159783844Y-89146511D01*
X159943843Y-89060990D01*
X160117452Y-89008326D01*
X160207655Y-88999442D01*
X160252755Y-88995000D01*
X160803245Y-88995000D01*
X160848345Y-88999442D01*
G37*
G36*
X134303400Y-89929600D02*
G01*
X132701400Y-89929600D01*
X132701400Y-88327600D01*
X134303400Y-88327600D01*
X134303400Y-89929600D01*
G37*
G36*
X138816042Y-88358381D02*
G01*
X138961814Y-88418762D01*
X138961816Y-88418763D01*
X139093008Y-88506422D01*
X139204578Y-88617992D01*
X139291284Y-88747758D01*
X139292238Y-88749186D01*
X139352619Y-88894958D01*
X139383400Y-89049707D01*
X139383400Y-89207493D01*
X139352619Y-89362242D01*
X139292238Y-89508014D01*
X139292237Y-89508016D01*
X139204578Y-89639208D01*
X139093008Y-89750778D01*
X138961816Y-89838437D01*
X138961815Y-89838438D01*
X138961814Y-89838438D01*
X138816042Y-89898819D01*
X138661293Y-89929600D01*
X138503507Y-89929600D01*
X138348758Y-89898819D01*
X138202986Y-89838438D01*
X138202985Y-89838438D01*
X138202984Y-89838437D01*
X138071792Y-89750778D01*
X137960222Y-89639208D01*
X137872563Y-89508016D01*
X137872562Y-89508014D01*
X137812181Y-89362242D01*
X137781400Y-89207493D01*
X137781400Y-89049707D01*
X137812181Y-88894958D01*
X137872562Y-88749186D01*
X137873516Y-88747758D01*
X137960222Y-88617992D01*
X138071792Y-88506422D01*
X138202984Y-88418763D01*
X138202986Y-88418762D01*
X138348758Y-88358381D01*
X138503507Y-88327600D01*
X138661293Y-88327600D01*
X138816042Y-88358381D01*
G37*
G36*
X136276042Y-88358381D02*
G01*
X136421814Y-88418762D01*
X136421816Y-88418763D01*
X136553008Y-88506422D01*
X136664578Y-88617992D01*
X136751284Y-88747758D01*
X136752238Y-88749186D01*
X136812619Y-88894958D01*
X136843400Y-89049707D01*
X136843400Y-89207493D01*
X136812619Y-89362242D01*
X136752238Y-89508014D01*
X136752237Y-89508016D01*
X136664578Y-89639208D01*
X136553008Y-89750778D01*
X136421816Y-89838437D01*
X136421815Y-89838438D01*
X136421814Y-89838438D01*
X136276042Y-89898819D01*
X136121293Y-89929600D01*
X135963507Y-89929600D01*
X135808758Y-89898819D01*
X135662986Y-89838438D01*
X135662985Y-89838438D01*
X135662984Y-89838437D01*
X135531792Y-89750778D01*
X135420222Y-89639208D01*
X135332563Y-89508016D01*
X135332562Y-89508014D01*
X135272181Y-89362242D01*
X135241400Y-89207493D01*
X135241400Y-89049707D01*
X135272181Y-88894958D01*
X135332562Y-88749186D01*
X135333516Y-88747758D01*
X135420222Y-88617992D01*
X135531792Y-88506422D01*
X135662984Y-88418763D01*
X135662986Y-88418762D01*
X135808758Y-88358381D01*
X135963507Y-88327600D01*
X136121293Y-88327600D01*
X136276042Y-88358381D01*
G37*
G36*
X145775642Y-88320281D02*
G01*
X145921414Y-88380662D01*
X145921416Y-88380663D01*
X146052608Y-88468322D01*
X146164178Y-88579892D01*
X146187302Y-88614500D01*
X146251838Y-88711086D01*
X146312219Y-88856858D01*
X146343000Y-89011607D01*
X146343000Y-89169393D01*
X146312219Y-89324142D01*
X146254283Y-89464011D01*
X146251837Y-89469916D01*
X146164178Y-89601108D01*
X146052608Y-89712678D01*
X145921416Y-89800337D01*
X145921415Y-89800338D01*
X145921414Y-89800338D01*
X145775642Y-89860719D01*
X145620893Y-89891500D01*
X145463107Y-89891500D01*
X145308358Y-89860719D01*
X145162586Y-89800338D01*
X145162585Y-89800338D01*
X145162584Y-89800337D01*
X145031392Y-89712678D01*
X144919822Y-89601108D01*
X144832163Y-89469916D01*
X144829717Y-89464011D01*
X144771781Y-89324142D01*
X144741000Y-89169393D01*
X144741000Y-89011607D01*
X144771781Y-88856858D01*
X144832162Y-88711086D01*
X144896698Y-88614500D01*
X144919822Y-88579892D01*
X145031392Y-88468322D01*
X145162584Y-88380663D01*
X145162586Y-88380662D01*
X145308358Y-88320281D01*
X145463107Y-88289500D01*
X145620893Y-88289500D01*
X145775642Y-88320281D01*
G37*
G36*
X148315642Y-88320281D02*
G01*
X148461414Y-88380662D01*
X148461416Y-88380663D01*
X148592608Y-88468322D01*
X148704178Y-88579892D01*
X148727302Y-88614500D01*
X148791838Y-88711086D01*
X148852219Y-88856858D01*
X148883000Y-89011607D01*
X148883000Y-89169393D01*
X148852219Y-89324142D01*
X148794283Y-89464011D01*
X148791837Y-89469916D01*
X148704178Y-89601108D01*
X148592608Y-89712678D01*
X148461416Y-89800337D01*
X148461415Y-89800338D01*
X148461414Y-89800338D01*
X148315642Y-89860719D01*
X148160893Y-89891500D01*
X148003107Y-89891500D01*
X147848358Y-89860719D01*
X147702586Y-89800338D01*
X147702585Y-89800338D01*
X147702584Y-89800337D01*
X147571392Y-89712678D01*
X147459822Y-89601108D01*
X147372163Y-89469916D01*
X147369717Y-89464011D01*
X147311781Y-89324142D01*
X147281000Y-89169393D01*
X147281000Y-89011607D01*
X147311781Y-88856858D01*
X147372162Y-88711086D01*
X147436698Y-88614500D01*
X147459822Y-88579892D01*
X147571392Y-88468322D01*
X147702584Y-88380663D01*
X147702586Y-88380662D01*
X147848358Y-88320281D01*
X148003107Y-88289500D01*
X148160893Y-88289500D01*
X148315642Y-88320281D01*
G37*
G36*
X143803000Y-89891500D02*
G01*
X142201000Y-89891500D01*
X142201000Y-88289500D01*
X143803000Y-88289500D01*
X143803000Y-89891500D01*
G37*
G36*
X167499512Y-87940427D02*
G01*
X167648812Y-87970124D01*
X167812784Y-88038044D01*
X167960354Y-88136647D01*
X168085853Y-88262146D01*
X168184456Y-88409716D01*
X168252376Y-88573688D01*
X168287000Y-88747759D01*
X168287000Y-88925241D01*
X168252376Y-89099312D01*
X168184456Y-89263284D01*
X168085853Y-89410854D01*
X167960354Y-89536353D01*
X167812784Y-89634956D01*
X167648812Y-89702876D01*
X167499512Y-89732573D01*
X167474742Y-89737500D01*
X167297258Y-89737500D01*
X167272488Y-89732573D01*
X167123188Y-89702876D01*
X166959216Y-89634956D01*
X166811646Y-89536353D01*
X166686147Y-89410854D01*
X166587544Y-89263284D01*
X166519624Y-89099312D01*
X166485000Y-88925241D01*
X166485000Y-88747759D01*
X166519624Y-88573688D01*
X166587544Y-88409716D01*
X166686147Y-88262146D01*
X166811646Y-88136647D01*
X166959216Y-88038044D01*
X167123188Y-87970124D01*
X167272488Y-87940427D01*
X167297258Y-87935500D01*
X167474742Y-87935500D01*
X167499512Y-87940427D01*
G37*
G36*
X153736345Y-86776942D02*
G01*
X153826548Y-86785826D01*
X154000157Y-86838490D01*
X154160156Y-86924011D01*
X154203729Y-86959771D01*
X154300397Y-87039103D01*
X154379729Y-87135771D01*
X154415489Y-87179344D01*
X154501010Y-87339343D01*
X154553674Y-87512952D01*
X154571456Y-87693500D01*
X154553674Y-87874048D01*
X154501010Y-88047657D01*
X154415489Y-88207656D01*
X154379729Y-88251229D01*
X154300397Y-88347897D01*
X154214045Y-88418763D01*
X154160156Y-88462989D01*
X154000157Y-88548510D01*
X153826548Y-88601174D01*
X153736345Y-88610058D01*
X153691245Y-88614500D01*
X153140755Y-88614500D01*
X153095655Y-88610058D01*
X153005452Y-88601174D01*
X152831843Y-88548510D01*
X152671844Y-88462989D01*
X152617955Y-88418763D01*
X152531603Y-88347897D01*
X152452271Y-88251229D01*
X152416511Y-88207656D01*
X152330990Y-88047657D01*
X152278326Y-87874048D01*
X152260544Y-87693500D01*
X152278326Y-87512952D01*
X152330990Y-87339343D01*
X152416511Y-87179344D01*
X152452271Y-87135771D01*
X152531603Y-87039103D01*
X152628271Y-86959771D01*
X152671844Y-86924011D01*
X152831843Y-86838490D01*
X153005452Y-86785826D01*
X153095655Y-86776942D01*
X153140755Y-86772500D01*
X153691245Y-86772500D01*
X153736345Y-86776942D01*
G37*
G36*
X160848345Y-86459442D02*
G01*
X160938548Y-86468326D01*
X161112157Y-86520990D01*
X161272156Y-86606511D01*
X161313301Y-86640278D01*
X161412397Y-86721603D01*
X161473466Y-86796017D01*
X161527489Y-86861844D01*
X161613010Y-87021843D01*
X161665674Y-87195452D01*
X161683456Y-87376000D01*
X161665674Y-87556548D01*
X161613010Y-87730157D01*
X161527489Y-87890156D01*
X161491729Y-87933729D01*
X161412397Y-88030397D01*
X161315729Y-88109729D01*
X161272156Y-88145489D01*
X161112157Y-88231010D01*
X160938548Y-88283674D01*
X160879394Y-88289500D01*
X160803245Y-88297000D01*
X160252755Y-88297000D01*
X160176606Y-88289500D01*
X160117452Y-88283674D01*
X159943843Y-88231010D01*
X159783844Y-88145489D01*
X159740271Y-88109729D01*
X159643603Y-88030397D01*
X159564271Y-87933729D01*
X159528511Y-87890156D01*
X159442990Y-87730157D01*
X159390326Y-87556548D01*
X159372544Y-87376000D01*
X159390326Y-87195452D01*
X159442990Y-87021843D01*
X159528511Y-86861844D01*
X159582534Y-86796017D01*
X159643603Y-86721603D01*
X159742699Y-86640278D01*
X159783844Y-86606511D01*
X159943843Y-86520990D01*
X160117452Y-86468326D01*
X160207655Y-86459442D01*
X160252755Y-86455000D01*
X160803245Y-86455000D01*
X160848345Y-86459442D01*
G37*
G36*
X145893168Y-85969165D02*
G01*
X145931838Y-85980896D01*
X145967477Y-85999946D01*
X145998717Y-86025583D01*
X146024354Y-86056823D01*
X146043404Y-86092462D01*
X146055135Y-86131132D01*
X146059700Y-86177488D01*
X146059700Y-87253712D01*
X146055135Y-87300068D01*
X146043404Y-87338738D01*
X146024354Y-87374377D01*
X145998717Y-87405617D01*
X145967477Y-87431254D01*
X145931838Y-87450304D01*
X145893168Y-87462035D01*
X145846812Y-87466600D01*
X145195588Y-87466600D01*
X145149232Y-87462035D01*
X145110562Y-87450304D01*
X145074923Y-87431254D01*
X145043683Y-87405617D01*
X145018046Y-87374377D01*
X144998996Y-87338738D01*
X144987265Y-87300068D01*
X144982700Y-87253712D01*
X144982700Y-86177488D01*
X144987265Y-86131132D01*
X144998996Y-86092462D01*
X145018046Y-86056823D01*
X145043683Y-86025583D01*
X145074923Y-85999946D01*
X145110562Y-85980896D01*
X145149232Y-85969165D01*
X145195588Y-85964600D01*
X145846812Y-85964600D01*
X145893168Y-85969165D01*
G37*
G36*
X147768168Y-85969165D02*
G01*
X147806838Y-85980896D01*
X147842477Y-85999946D01*
X147873717Y-86025583D01*
X147899354Y-86056823D01*
X147918404Y-86092462D01*
X147930135Y-86131132D01*
X147934700Y-86177488D01*
X147934700Y-87253712D01*
X147930135Y-87300068D01*
X147918404Y-87338738D01*
X147899354Y-87374377D01*
X147873717Y-87405617D01*
X147842477Y-87431254D01*
X147806838Y-87450304D01*
X147768168Y-87462035D01*
X147721812Y-87466600D01*
X147070588Y-87466600D01*
X147024232Y-87462035D01*
X146985562Y-87450304D01*
X146949923Y-87431254D01*
X146918683Y-87405617D01*
X146893046Y-87374377D01*
X146873996Y-87338738D01*
X146862265Y-87300068D01*
X146857700Y-87253712D01*
X146857700Y-86177488D01*
X146862265Y-86131132D01*
X146873996Y-86092462D01*
X146893046Y-86056823D01*
X146918683Y-86025583D01*
X146949923Y-85999946D01*
X146985562Y-85980896D01*
X147024232Y-85969165D01*
X147070588Y-85964600D01*
X147721812Y-85964600D01*
X147768168Y-85969165D01*
G37*
G36*
X141693200Y-87444600D02*
G01*
X139891200Y-87444600D01*
X139891200Y-86042600D01*
X141693200Y-86042600D01*
X141693200Y-87444600D01*
G37*
G36*
X151205500Y-87434500D02*
G01*
X149403500Y-87434500D01*
X149403500Y-86032500D01*
X151205500Y-86032500D01*
X151205500Y-87434500D01*
G37*
G36*
X136418968Y-85918365D02*
G01*
X136457638Y-85930096D01*
X136493277Y-85949146D01*
X136524517Y-85974783D01*
X136550154Y-86006023D01*
X136569204Y-86041662D01*
X136580935Y-86080332D01*
X136585500Y-86126688D01*
X136585500Y-87202912D01*
X136580935Y-87249268D01*
X136569204Y-87287938D01*
X136550154Y-87323577D01*
X136524517Y-87354817D01*
X136493277Y-87380454D01*
X136457638Y-87399504D01*
X136418968Y-87411235D01*
X136372612Y-87415800D01*
X135721388Y-87415800D01*
X135675032Y-87411235D01*
X135636362Y-87399504D01*
X135600723Y-87380454D01*
X135569483Y-87354817D01*
X135543846Y-87323577D01*
X135524796Y-87287938D01*
X135513065Y-87249268D01*
X135508500Y-87202912D01*
X135508500Y-86126688D01*
X135513065Y-86080332D01*
X135524796Y-86041662D01*
X135543846Y-86006023D01*
X135569483Y-85974783D01*
X135600723Y-85949146D01*
X135636362Y-85930096D01*
X135675032Y-85918365D01*
X135721388Y-85913800D01*
X136372612Y-85913800D01*
X136418968Y-85918365D01*
G37*
G36*
X138293968Y-85918365D02*
G01*
X138332638Y-85930096D01*
X138368277Y-85949146D01*
X138399517Y-85974783D01*
X138425154Y-86006023D01*
X138444204Y-86041662D01*
X138455935Y-86080332D01*
X138460500Y-86126688D01*
X138460500Y-87202912D01*
X138455935Y-87249268D01*
X138444204Y-87287938D01*
X138425154Y-87323577D01*
X138399517Y-87354817D01*
X138368277Y-87380454D01*
X138332638Y-87399504D01*
X138293968Y-87411235D01*
X138247612Y-87415800D01*
X137596388Y-87415800D01*
X137550032Y-87411235D01*
X137511362Y-87399504D01*
X137475723Y-87380454D01*
X137444483Y-87354817D01*
X137418846Y-87323577D01*
X137399796Y-87287938D01*
X137388065Y-87249268D01*
X137383500Y-87202912D01*
X137383500Y-86126688D01*
X137388065Y-86080332D01*
X137399796Y-86041662D01*
X137418846Y-86006023D01*
X137444483Y-85974783D01*
X137475723Y-85949146D01*
X137511362Y-85930096D01*
X137550032Y-85918365D01*
X137596388Y-85913800D01*
X138247612Y-85913800D01*
X138293968Y-85918365D01*
G37*
G36*
X116004547Y-85095326D02*
G01*
X116178156Y-85147990D01*
X116178158Y-85147991D01*
X116338155Y-85233511D01*
X116478397Y-85348603D01*
X116548365Y-85433861D01*
X116593489Y-85488844D01*
X116679010Y-85648843D01*
X116731674Y-85822452D01*
X116731674Y-85822454D01*
X116745000Y-85957755D01*
X116745000Y-86508244D01*
X116741669Y-86542069D01*
X116731674Y-86643548D01*
X116679010Y-86817157D01*
X116593489Y-86977156D01*
X116557729Y-87020729D01*
X116478397Y-87117397D01*
X116402913Y-87179344D01*
X116338156Y-87232489D01*
X116178157Y-87318010D01*
X116004548Y-87370674D01*
X115824000Y-87388456D01*
X115643453Y-87370674D01*
X115469844Y-87318010D01*
X115309845Y-87232489D01*
X115245088Y-87179344D01*
X115169604Y-87117397D01*
X115054513Y-86977157D01*
X115054512Y-86977155D01*
X114968990Y-86817157D01*
X114916326Y-86643548D01*
X114903000Y-86508244D01*
X114903000Y-85957757D01*
X114916326Y-85822453D01*
X114968990Y-85648844D01*
X115054511Y-85488845D01*
X115099635Y-85433861D01*
X115169603Y-85348603D01*
X115295388Y-85245375D01*
X115309844Y-85233511D01*
X115469843Y-85147990D01*
X115643452Y-85095326D01*
X115824000Y-85077544D01*
X116004547Y-85095326D01*
G37*
G36*
X113464547Y-85095326D02*
G01*
X113638156Y-85147990D01*
X113638158Y-85147991D01*
X113798155Y-85233511D01*
X113938397Y-85348603D01*
X114008365Y-85433861D01*
X114053489Y-85488844D01*
X114139010Y-85648843D01*
X114191674Y-85822452D01*
X114191674Y-85822454D01*
X114205000Y-85957755D01*
X114205000Y-86508244D01*
X114201669Y-86542069D01*
X114191674Y-86643548D01*
X114139010Y-86817157D01*
X114053489Y-86977156D01*
X114017729Y-87020729D01*
X113938397Y-87117397D01*
X113862913Y-87179344D01*
X113798156Y-87232489D01*
X113638157Y-87318010D01*
X113464548Y-87370674D01*
X113284000Y-87388456D01*
X113103453Y-87370674D01*
X112929844Y-87318010D01*
X112769845Y-87232489D01*
X112705088Y-87179344D01*
X112629604Y-87117397D01*
X112514513Y-86977157D01*
X112514512Y-86977155D01*
X112428990Y-86817157D01*
X112376326Y-86643548D01*
X112363000Y-86508244D01*
X112363000Y-85957757D01*
X112376326Y-85822453D01*
X112428990Y-85648844D01*
X112514511Y-85488845D01*
X112559635Y-85433861D01*
X112629603Y-85348603D01*
X112755388Y-85245375D01*
X112769844Y-85233511D01*
X112929843Y-85147990D01*
X113103452Y-85095326D01*
X113284000Y-85077544D01*
X113464547Y-85095326D01*
G37*
G36*
X118544547Y-85095326D02*
G01*
X118718156Y-85147990D01*
X118718158Y-85147991D01*
X118878155Y-85233511D01*
X119018397Y-85348603D01*
X119088365Y-85433861D01*
X119133489Y-85488844D01*
X119219010Y-85648843D01*
X119271674Y-85822452D01*
X119271674Y-85822454D01*
X119285000Y-85957755D01*
X119285000Y-86508244D01*
X119281669Y-86542069D01*
X119271674Y-86643548D01*
X119219010Y-86817157D01*
X119133489Y-86977156D01*
X119097729Y-87020729D01*
X119018397Y-87117397D01*
X118942913Y-87179344D01*
X118878156Y-87232489D01*
X118718157Y-87318010D01*
X118544548Y-87370674D01*
X118364000Y-87388456D01*
X118183453Y-87370674D01*
X118009844Y-87318010D01*
X117849845Y-87232489D01*
X117785088Y-87179344D01*
X117709604Y-87117397D01*
X117594513Y-86977157D01*
X117594512Y-86977155D01*
X117508990Y-86817157D01*
X117456326Y-86643548D01*
X117443000Y-86508244D01*
X117443000Y-85957757D01*
X117456326Y-85822453D01*
X117508990Y-85648844D01*
X117594511Y-85488845D01*
X117639635Y-85433861D01*
X117709603Y-85348603D01*
X117835388Y-85245375D01*
X117849844Y-85233511D01*
X118009843Y-85147990D01*
X118183452Y-85095326D01*
X118364000Y-85077544D01*
X118544547Y-85095326D01*
G37*
G36*
X111523561Y-85085966D02*
G01*
X111556383Y-85095923D01*
X111586632Y-85112092D01*
X111613148Y-85133852D01*
X111634908Y-85160368D01*
X111651077Y-85190617D01*
X111661034Y-85223439D01*
X111665000Y-85263713D01*
X111665000Y-87202287D01*
X111661034Y-87242561D01*
X111651077Y-87275383D01*
X111634908Y-87305632D01*
X111613148Y-87332148D01*
X111586632Y-87353908D01*
X111556383Y-87370077D01*
X111523561Y-87380034D01*
X111483287Y-87384000D01*
X110004713Y-87384000D01*
X109964439Y-87380034D01*
X109931617Y-87370077D01*
X109901368Y-87353908D01*
X109874852Y-87332148D01*
X109853092Y-87305632D01*
X109836923Y-87275383D01*
X109826966Y-87242561D01*
X109823000Y-87202287D01*
X109823000Y-85263713D01*
X109826966Y-85223439D01*
X109836923Y-85190617D01*
X109853092Y-85160368D01*
X109874852Y-85133852D01*
X109901368Y-85112092D01*
X109931617Y-85095923D01*
X109964439Y-85085966D01*
X110004713Y-85082000D01*
X111483287Y-85082000D01*
X111523561Y-85085966D01*
G37*
G36*
X167884968Y-85359565D02*
G01*
X167923638Y-85371296D01*
X167959277Y-85390346D01*
X167990517Y-85415983D01*
X168016154Y-85447223D01*
X168035204Y-85482862D01*
X168046935Y-85521532D01*
X168051500Y-85567888D01*
X168051500Y-86644112D01*
X168046935Y-86690468D01*
X168035204Y-86729138D01*
X168016154Y-86764777D01*
X167990517Y-86796017D01*
X167959277Y-86821654D01*
X167923638Y-86840704D01*
X167884968Y-86852435D01*
X167838612Y-86857000D01*
X167187388Y-86857000D01*
X167141032Y-86852435D01*
X167102362Y-86840704D01*
X167066723Y-86821654D01*
X167035483Y-86796017D01*
X167009846Y-86764777D01*
X166990796Y-86729138D01*
X166979065Y-86690468D01*
X166974500Y-86644112D01*
X166974500Y-85567888D01*
X166979065Y-85521532D01*
X166990796Y-85482862D01*
X167009846Y-85447223D01*
X167035483Y-85415983D01*
X167066723Y-85390346D01*
X167102362Y-85371296D01*
X167141032Y-85359565D01*
X167187388Y-85355000D01*
X167838612Y-85355000D01*
X167884968Y-85359565D01*
G37*
G36*
X166009968Y-85359565D02*
G01*
X166048638Y-85371296D01*
X166084277Y-85390346D01*
X166115517Y-85415983D01*
X166141154Y-85447223D01*
X166160204Y-85482862D01*
X166171935Y-85521532D01*
X166176500Y-85567888D01*
X166176500Y-86644112D01*
X166171935Y-86690468D01*
X166160204Y-86729138D01*
X166141154Y-86764777D01*
X166115517Y-86796017D01*
X166084277Y-86821654D01*
X166048638Y-86840704D01*
X166009968Y-86852435D01*
X165963612Y-86857000D01*
X165312388Y-86857000D01*
X165266032Y-86852435D01*
X165227362Y-86840704D01*
X165191723Y-86821654D01*
X165160483Y-86796017D01*
X165134846Y-86764777D01*
X165115796Y-86729138D01*
X165104065Y-86690468D01*
X165099500Y-86644112D01*
X165099500Y-85567888D01*
X165104065Y-85521532D01*
X165115796Y-85482862D01*
X165134846Y-85447223D01*
X165160483Y-85415983D01*
X165191723Y-85390346D01*
X165227362Y-85371296D01*
X165266032Y-85359565D01*
X165312388Y-85355000D01*
X165963612Y-85355000D01*
X166009968Y-85359565D01*
G37*
G36*
X160848345Y-83919442D02*
G01*
X160938548Y-83928326D01*
X161112157Y-83980990D01*
X161272156Y-84066511D01*
X161315729Y-84102271D01*
X161412397Y-84181603D01*
X161491729Y-84278271D01*
X161527489Y-84321844D01*
X161613010Y-84481843D01*
X161665674Y-84655452D01*
X161683456Y-84836000D01*
X161665674Y-85016548D01*
X161613010Y-85190157D01*
X161527489Y-85350156D01*
X161494506Y-85390346D01*
X161412397Y-85490397D01*
X161317973Y-85567888D01*
X161272156Y-85605489D01*
X161112157Y-85691010D01*
X160938548Y-85743674D01*
X160848345Y-85752558D01*
X160803245Y-85757000D01*
X160252755Y-85757000D01*
X160207655Y-85752558D01*
X160117452Y-85743674D01*
X159943843Y-85691010D01*
X159783844Y-85605489D01*
X159738027Y-85567888D01*
X159643603Y-85490397D01*
X159561494Y-85390346D01*
X159528511Y-85350156D01*
X159442990Y-85190157D01*
X159390326Y-85016548D01*
X159372544Y-84836000D01*
X159390326Y-84655452D01*
X159442990Y-84481843D01*
X159528511Y-84321844D01*
X159564271Y-84278271D01*
X159643603Y-84181603D01*
X159740271Y-84102271D01*
X159783844Y-84066511D01*
X159943843Y-83980990D01*
X160117452Y-83928326D01*
X160207655Y-83919442D01*
X160252755Y-83915000D01*
X160803245Y-83915000D01*
X160848345Y-83919442D01*
G37*
G36*
X187700256Y-79264898D02*
G01*
X187806579Y-79286047D01*
X188107042Y-79410503D01*
X188377451Y-79591185D01*
X188607415Y-79821149D01*
X188788097Y-80091558D01*
X188912553Y-80392021D01*
X188976000Y-80710991D01*
X188976000Y-81036209D01*
X188912553Y-81355179D01*
X188788097Y-81655642D01*
X188607415Y-81926051D01*
X188377451Y-82156015D01*
X188107042Y-82336697D01*
X187806579Y-82461153D01*
X187700256Y-82482302D01*
X187487611Y-82524600D01*
X187162389Y-82524600D01*
X186949744Y-82482302D01*
X186843421Y-82461153D01*
X186542958Y-82336697D01*
X186272549Y-82156015D01*
X186042585Y-81926051D01*
X185861903Y-81655642D01*
X185737447Y-81355179D01*
X185674000Y-81036209D01*
X185674000Y-80710991D01*
X185737447Y-80392021D01*
X185861903Y-80091558D01*
X186042585Y-79821149D01*
X186272549Y-79591185D01*
X186542958Y-79410503D01*
X186843421Y-79286047D01*
X186949744Y-79264898D01*
X187162389Y-79222600D01*
X187487611Y-79222600D01*
X187700256Y-79264898D01*
G37*
G36*
X112770256Y-79264898D02*
G01*
X112876579Y-79286047D01*
X113177042Y-79410503D01*
X113447451Y-79591185D01*
X113677415Y-79821149D01*
X113858097Y-80091558D01*
X113982553Y-80392021D01*
X114046000Y-80710991D01*
X114046000Y-81036209D01*
X113982553Y-81355179D01*
X113858097Y-81655642D01*
X113677415Y-81926051D01*
X113447451Y-82156015D01*
X113177042Y-82336697D01*
X112876579Y-82461153D01*
X112770256Y-82482302D01*
X112557611Y-82524600D01*
X112232389Y-82524600D01*
X112019744Y-82482302D01*
X111913421Y-82461153D01*
X111612958Y-82336697D01*
X111342549Y-82156015D01*
X111112585Y-81926051D01*
X110931903Y-81655642D01*
X110807447Y-81355179D01*
X110744000Y-81036209D01*
X110744000Y-80710991D01*
X110807447Y-80392021D01*
X110931903Y-80091558D01*
X111112585Y-79821149D01*
X111342549Y-79591185D01*
X111612958Y-79410503D01*
X111913421Y-79286047D01*
X112019744Y-79264898D01*
X112232389Y-79222600D01*
X112557611Y-79222600D01*
X112770256Y-79264898D01*
G37*
G36*
X115937512Y-79875927D02*
G01*
X116086812Y-79905624D01*
X116250784Y-79973544D01*
X116398354Y-80072147D01*
X116523853Y-80197646D01*
X116622456Y-80345216D01*
X116690376Y-80509188D01*
X116725000Y-80683259D01*
X116725000Y-80860741D01*
X116690376Y-81034812D01*
X116622456Y-81198784D01*
X116523853Y-81346354D01*
X116398354Y-81471853D01*
X116250784Y-81570456D01*
X116086812Y-81638376D01*
X115937512Y-81668073D01*
X115912742Y-81673000D01*
X115735258Y-81673000D01*
X115710488Y-81668073D01*
X115561188Y-81638376D01*
X115397216Y-81570456D01*
X115249646Y-81471853D01*
X115124147Y-81346354D01*
X115025544Y-81198784D01*
X114957624Y-81034812D01*
X114923000Y-80860741D01*
X114923000Y-80683259D01*
X114957624Y-80509188D01*
X115025544Y-80345216D01*
X115124147Y-80197646D01*
X115249646Y-80072147D01*
X115397216Y-79973544D01*
X115561188Y-79905624D01*
X115710488Y-79875927D01*
X115735258Y-79871000D01*
X115912742Y-79871000D01*
X115937512Y-79875927D01*
G37*
G36*
X145401512Y-79875927D02*
G01*
X145550812Y-79905624D01*
X145714784Y-79973544D01*
X145862354Y-80072147D01*
X145987853Y-80197646D01*
X146086456Y-80345216D01*
X146154376Y-80509188D01*
X146189000Y-80683259D01*
X146189000Y-80860741D01*
X146154376Y-81034812D01*
X146086456Y-81198784D01*
X145987853Y-81346354D01*
X145862354Y-81471853D01*
X145714784Y-81570456D01*
X145550812Y-81638376D01*
X145401512Y-81668073D01*
X145376742Y-81673000D01*
X145199258Y-81673000D01*
X145174488Y-81668073D01*
X145025188Y-81638376D01*
X144861216Y-81570456D01*
X144713646Y-81471853D01*
X144588147Y-81346354D01*
X144489544Y-81198784D01*
X144421624Y-81034812D01*
X144387000Y-80860741D01*
X144387000Y-80683259D01*
X144421624Y-80509188D01*
X144489544Y-80345216D01*
X144588147Y-80197646D01*
X144713646Y-80072147D01*
X144861216Y-79973544D01*
X145025188Y-79905624D01*
X145174488Y-79875927D01*
X145199258Y-79871000D01*
X145376742Y-79871000D01*
X145401512Y-79875927D01*
G37*
G36*
X142861512Y-79875927D02*
G01*
X143010812Y-79905624D01*
X143174784Y-79973544D01*
X143322354Y-80072147D01*
X143447853Y-80197646D01*
X143546456Y-80345216D01*
X143614376Y-80509188D01*
X143649000Y-80683259D01*
X143649000Y-80860741D01*
X143614376Y-81034812D01*
X143546456Y-81198784D01*
X143447853Y-81346354D01*
X143322354Y-81471853D01*
X143174784Y-81570456D01*
X143010812Y-81638376D01*
X142861512Y-81668073D01*
X142836742Y-81673000D01*
X142659258Y-81673000D01*
X142634488Y-81668073D01*
X142485188Y-81638376D01*
X142321216Y-81570456D01*
X142173646Y-81471853D01*
X142048147Y-81346354D01*
X141949544Y-81198784D01*
X141881624Y-81034812D01*
X141847000Y-80860741D01*
X141847000Y-80683259D01*
X141881624Y-80509188D01*
X141949544Y-80345216D01*
X142048147Y-80197646D01*
X142173646Y-80072147D01*
X142321216Y-79973544D01*
X142485188Y-79905624D01*
X142634488Y-79875927D01*
X142659258Y-79871000D01*
X142836742Y-79871000D01*
X142861512Y-79875927D01*
G37*
G36*
X147941512Y-79875927D02*
G01*
X148090812Y-79905624D01*
X148254784Y-79973544D01*
X148402354Y-80072147D01*
X148527853Y-80197646D01*
X148626456Y-80345216D01*
X148694376Y-80509188D01*
X148729000Y-80683259D01*
X148729000Y-80860741D01*
X148694376Y-81034812D01*
X148626456Y-81198784D01*
X148527853Y-81346354D01*
X148402354Y-81471853D01*
X148254784Y-81570456D01*
X148090812Y-81638376D01*
X147941512Y-81668073D01*
X147916742Y-81673000D01*
X147739258Y-81673000D01*
X147714488Y-81668073D01*
X147565188Y-81638376D01*
X147401216Y-81570456D01*
X147253646Y-81471853D01*
X147128147Y-81346354D01*
X147029544Y-81198784D01*
X146961624Y-81034812D01*
X146927000Y-80860741D01*
X146927000Y-80683259D01*
X146961624Y-80509188D01*
X147029544Y-80345216D01*
X147128147Y-80197646D01*
X147253646Y-80072147D01*
X147401216Y-79973544D01*
X147565188Y-79905624D01*
X147714488Y-79875927D01*
X147739258Y-79871000D01*
X147916742Y-79871000D01*
X147941512Y-79875927D01*
G37*
G36*
X150481512Y-79875927D02*
G01*
X150630812Y-79905624D01*
X150794784Y-79973544D01*
X150942354Y-80072147D01*
X151067853Y-80197646D01*
X151166456Y-80345216D01*
X151234376Y-80509188D01*
X151269000Y-80683259D01*
X151269000Y-80860741D01*
X151234376Y-81034812D01*
X151166456Y-81198784D01*
X151067853Y-81346354D01*
X150942354Y-81471853D01*
X150794784Y-81570456D01*
X150630812Y-81638376D01*
X150481512Y-81668073D01*
X150456742Y-81673000D01*
X150279258Y-81673000D01*
X150254488Y-81668073D01*
X150105188Y-81638376D01*
X149941216Y-81570456D01*
X149793646Y-81471853D01*
X149668147Y-81346354D01*
X149569544Y-81198784D01*
X149501624Y-81034812D01*
X149467000Y-80860741D01*
X149467000Y-80683259D01*
X149501624Y-80509188D01*
X149569544Y-80345216D01*
X149668147Y-80197646D01*
X149793646Y-80072147D01*
X149941216Y-79973544D01*
X150105188Y-79905624D01*
X150254488Y-79875927D01*
X150279258Y-79871000D01*
X150456742Y-79871000D01*
X150481512Y-79875927D01*
G37*
G36*
X153021512Y-79875927D02*
G01*
X153170812Y-79905624D01*
X153334784Y-79973544D01*
X153482354Y-80072147D01*
X153607853Y-80197646D01*
X153706456Y-80345216D01*
X153774376Y-80509188D01*
X153809000Y-80683259D01*
X153809000Y-80860741D01*
X153774376Y-81034812D01*
X153706456Y-81198784D01*
X153607853Y-81346354D01*
X153482354Y-81471853D01*
X153334784Y-81570456D01*
X153170812Y-81638376D01*
X153021512Y-81668073D01*
X152996742Y-81673000D01*
X152819258Y-81673000D01*
X152794488Y-81668073D01*
X152645188Y-81638376D01*
X152481216Y-81570456D01*
X152333646Y-81471853D01*
X152208147Y-81346354D01*
X152109544Y-81198784D01*
X152041624Y-81034812D01*
X152007000Y-80860741D01*
X152007000Y-80683259D01*
X152041624Y-80509188D01*
X152109544Y-80345216D01*
X152208147Y-80197646D01*
X152333646Y-80072147D01*
X152481216Y-79973544D01*
X152645188Y-79905624D01*
X152794488Y-79875927D01*
X152819258Y-79871000D01*
X152996742Y-79871000D01*
X153021512Y-79875927D01*
G37*
G36*
X155561512Y-79875927D02*
G01*
X155710812Y-79905624D01*
X155874784Y-79973544D01*
X156022354Y-80072147D01*
X156147853Y-80197646D01*
X156246456Y-80345216D01*
X156314376Y-80509188D01*
X156349000Y-80683259D01*
X156349000Y-80860741D01*
X156314376Y-81034812D01*
X156246456Y-81198784D01*
X156147853Y-81346354D01*
X156022354Y-81471853D01*
X155874784Y-81570456D01*
X155710812Y-81638376D01*
X155561512Y-81668073D01*
X155536742Y-81673000D01*
X155359258Y-81673000D01*
X155334488Y-81668073D01*
X155185188Y-81638376D01*
X155021216Y-81570456D01*
X154873646Y-81471853D01*
X154748147Y-81346354D01*
X154649544Y-81198784D01*
X154581624Y-81034812D01*
X154547000Y-80860741D01*
X154547000Y-80683259D01*
X154581624Y-80509188D01*
X154649544Y-80345216D01*
X154748147Y-80197646D01*
X154873646Y-80072147D01*
X155021216Y-79973544D01*
X155185188Y-79905624D01*
X155334488Y-79875927D01*
X155359258Y-79871000D01*
X155536742Y-79871000D01*
X155561512Y-79875927D01*
G37*
G36*
X158101512Y-79875927D02*
G01*
X158250812Y-79905624D01*
X158414784Y-79973544D01*
X158562354Y-80072147D01*
X158687853Y-80197646D01*
X158786456Y-80345216D01*
X158854376Y-80509188D01*
X158889000Y-80683259D01*
X158889000Y-80860741D01*
X158854376Y-81034812D01*
X158786456Y-81198784D01*
X158687853Y-81346354D01*
X158562354Y-81471853D01*
X158414784Y-81570456D01*
X158250812Y-81638376D01*
X158101512Y-81668073D01*
X158076742Y-81673000D01*
X157899258Y-81673000D01*
X157874488Y-81668073D01*
X157725188Y-81638376D01*
X157561216Y-81570456D01*
X157413646Y-81471853D01*
X157288147Y-81346354D01*
X157189544Y-81198784D01*
X157121624Y-81034812D01*
X157087000Y-80860741D01*
X157087000Y-80683259D01*
X157121624Y-80509188D01*
X157189544Y-80345216D01*
X157288147Y-80197646D01*
X157413646Y-80072147D01*
X157561216Y-79973544D01*
X157725188Y-79905624D01*
X157874488Y-79875927D01*
X157899258Y-79871000D01*
X158076742Y-79871000D01*
X158101512Y-79875927D01*
G37*
G36*
X161429000Y-81673000D02*
G01*
X159627000Y-81673000D01*
X159627000Y-79871000D01*
X161429000Y-79871000D01*
X161429000Y-81673000D01*
G37*
G36*
X175881512Y-79875927D02*
G01*
X176030812Y-79905624D01*
X176194784Y-79973544D01*
X176342354Y-80072147D01*
X176467853Y-80197646D01*
X176566456Y-80345216D01*
X176634376Y-80509188D01*
X176669000Y-80683259D01*
X176669000Y-80860741D01*
X176634376Y-81034812D01*
X176566456Y-81198784D01*
X176467853Y-81346354D01*
X176342354Y-81471853D01*
X176194784Y-81570456D01*
X176030812Y-81638376D01*
X175881512Y-81668073D01*
X175856742Y-81673000D01*
X175679258Y-81673000D01*
X175654488Y-81668073D01*
X175505188Y-81638376D01*
X175341216Y-81570456D01*
X175193646Y-81471853D01*
X175068147Y-81346354D01*
X174969544Y-81198784D01*
X174901624Y-81034812D01*
X174867000Y-80860741D01*
X174867000Y-80683259D01*
X174901624Y-80509188D01*
X174969544Y-80345216D01*
X175068147Y-80197646D01*
X175193646Y-80072147D01*
X175341216Y-79973544D01*
X175505188Y-79905624D01*
X175654488Y-79875927D01*
X175679258Y-79871000D01*
X175856742Y-79871000D01*
X175881512Y-79875927D01*
G37*
G36*
X178421512Y-79875927D02*
G01*
X178570812Y-79905624D01*
X178734784Y-79973544D01*
X178882354Y-80072147D01*
X179007853Y-80197646D01*
X179106456Y-80345216D01*
X179174376Y-80509188D01*
X179209000Y-80683259D01*
X179209000Y-80860741D01*
X179174376Y-81034812D01*
X179106456Y-81198784D01*
X179007853Y-81346354D01*
X178882354Y-81471853D01*
X178734784Y-81570456D01*
X178570812Y-81638376D01*
X178421512Y-81668073D01*
X178396742Y-81673000D01*
X178219258Y-81673000D01*
X178194488Y-81668073D01*
X178045188Y-81638376D01*
X177881216Y-81570456D01*
X177733646Y-81471853D01*
X177608147Y-81346354D01*
X177509544Y-81198784D01*
X177441624Y-81034812D01*
X177407000Y-80860741D01*
X177407000Y-80683259D01*
X177441624Y-80509188D01*
X177509544Y-80345216D01*
X177608147Y-80197646D01*
X177733646Y-80072147D01*
X177881216Y-79973544D01*
X178045188Y-79905624D01*
X178194488Y-79875927D01*
X178219258Y-79871000D01*
X178396742Y-79871000D01*
X178421512Y-79875927D01*
G37*
G36*
X180961512Y-79875927D02*
G01*
X181110812Y-79905624D01*
X181274784Y-79973544D01*
X181422354Y-80072147D01*
X181547853Y-80197646D01*
X181646456Y-80345216D01*
X181714376Y-80509188D01*
X181749000Y-80683259D01*
X181749000Y-80860741D01*
X181714376Y-81034812D01*
X181646456Y-81198784D01*
X181547853Y-81346354D01*
X181422354Y-81471853D01*
X181274784Y-81570456D01*
X181110812Y-81638376D01*
X180961512Y-81668073D01*
X180936742Y-81673000D01*
X180759258Y-81673000D01*
X180734488Y-81668073D01*
X180585188Y-81638376D01*
X180421216Y-81570456D01*
X180273646Y-81471853D01*
X180148147Y-81346354D01*
X180049544Y-81198784D01*
X179981624Y-81034812D01*
X179947000Y-80860741D01*
X179947000Y-80683259D01*
X179981624Y-80509188D01*
X180049544Y-80345216D01*
X180148147Y-80197646D01*
X180273646Y-80072147D01*
X180421216Y-79973544D01*
X180585188Y-79905624D01*
X180734488Y-79875927D01*
X180759258Y-79871000D01*
X180936742Y-79871000D01*
X180961512Y-79875927D01*
G37*
G36*
X184289000Y-81673000D02*
G01*
X182487000Y-81673000D01*
X182487000Y-79871000D01*
X184289000Y-79871000D01*
X184289000Y-81673000D01*
G37*
G36*
X118477512Y-79875927D02*
G01*
X118626812Y-79905624D01*
X118790784Y-79973544D01*
X118938354Y-80072147D01*
X119063853Y-80197646D01*
X119162456Y-80345216D01*
X119230376Y-80509188D01*
X119265000Y-80683259D01*
X119265000Y-80860741D01*
X119230376Y-81034812D01*
X119162456Y-81198784D01*
X119063853Y-81346354D01*
X118938354Y-81471853D01*
X118790784Y-81570456D01*
X118626812Y-81638376D01*
X118477512Y-81668073D01*
X118452742Y-81673000D01*
X118275258Y-81673000D01*
X118250488Y-81668073D01*
X118101188Y-81638376D01*
X117937216Y-81570456D01*
X117789646Y-81471853D01*
X117664147Y-81346354D01*
X117565544Y-81198784D01*
X117497624Y-81034812D01*
X117463000Y-80860741D01*
X117463000Y-80683259D01*
X117497624Y-80509188D01*
X117565544Y-80345216D01*
X117664147Y-80197646D01*
X117789646Y-80072147D01*
X117937216Y-79973544D01*
X118101188Y-79905624D01*
X118250488Y-79875927D01*
X118275258Y-79871000D01*
X118452742Y-79871000D01*
X118477512Y-79875927D01*
G37*
G36*
X121017512Y-79875927D02*
G01*
X121166812Y-79905624D01*
X121330784Y-79973544D01*
X121478354Y-80072147D01*
X121603853Y-80197646D01*
X121702456Y-80345216D01*
X121770376Y-80509188D01*
X121805000Y-80683259D01*
X121805000Y-80860741D01*
X121770376Y-81034812D01*
X121702456Y-81198784D01*
X121603853Y-81346354D01*
X121478354Y-81471853D01*
X121330784Y-81570456D01*
X121166812Y-81638376D01*
X121017512Y-81668073D01*
X120992742Y-81673000D01*
X120815258Y-81673000D01*
X120790488Y-81668073D01*
X120641188Y-81638376D01*
X120477216Y-81570456D01*
X120329646Y-81471853D01*
X120204147Y-81346354D01*
X120105544Y-81198784D01*
X120037624Y-81034812D01*
X120003000Y-80860741D01*
X120003000Y-80683259D01*
X120037624Y-80509188D01*
X120105544Y-80345216D01*
X120204147Y-80197646D01*
X120329646Y-80072147D01*
X120477216Y-79973544D01*
X120641188Y-79905624D01*
X120790488Y-79875927D01*
X120815258Y-79871000D01*
X120992742Y-79871000D01*
X121017512Y-79875927D01*
G37*
G36*
X123557512Y-79875927D02*
G01*
X123706812Y-79905624D01*
X123870784Y-79973544D01*
X124018354Y-80072147D01*
X124143853Y-80197646D01*
X124242456Y-80345216D01*
X124310376Y-80509188D01*
X124345000Y-80683259D01*
X124345000Y-80860741D01*
X124310376Y-81034812D01*
X124242456Y-81198784D01*
X124143853Y-81346354D01*
X124018354Y-81471853D01*
X123870784Y-81570456D01*
X123706812Y-81638376D01*
X123557512Y-81668073D01*
X123532742Y-81673000D01*
X123355258Y-81673000D01*
X123330488Y-81668073D01*
X123181188Y-81638376D01*
X123017216Y-81570456D01*
X122869646Y-81471853D01*
X122744147Y-81346354D01*
X122645544Y-81198784D01*
X122577624Y-81034812D01*
X122543000Y-80860741D01*
X122543000Y-80683259D01*
X122577624Y-80509188D01*
X122645544Y-80345216D01*
X122744147Y-80197646D01*
X122869646Y-80072147D01*
X123017216Y-79973544D01*
X123181188Y-79905624D01*
X123330488Y-79875927D01*
X123355258Y-79871000D01*
X123532742Y-79871000D01*
X123557512Y-79875927D01*
G37*
G36*
X126097512Y-79875927D02*
G01*
X126246812Y-79905624D01*
X126410784Y-79973544D01*
X126558354Y-80072147D01*
X126683853Y-80197646D01*
X126782456Y-80345216D01*
X126850376Y-80509188D01*
X126885000Y-80683259D01*
X126885000Y-80860741D01*
X126850376Y-81034812D01*
X126782456Y-81198784D01*
X126683853Y-81346354D01*
X126558354Y-81471853D01*
X126410784Y-81570456D01*
X126246812Y-81638376D01*
X126097512Y-81668073D01*
X126072742Y-81673000D01*
X125895258Y-81673000D01*
X125870488Y-81668073D01*
X125721188Y-81638376D01*
X125557216Y-81570456D01*
X125409646Y-81471853D01*
X125284147Y-81346354D01*
X125185544Y-81198784D01*
X125117624Y-81034812D01*
X125083000Y-80860741D01*
X125083000Y-80683259D01*
X125117624Y-80509188D01*
X125185544Y-80345216D01*
X125284147Y-80197646D01*
X125409646Y-80072147D01*
X125557216Y-79973544D01*
X125721188Y-79905624D01*
X125870488Y-79875927D01*
X125895258Y-79871000D01*
X126072742Y-79871000D01*
X126097512Y-79875927D01*
G37*
G36*
X128637512Y-79875927D02*
G01*
X128786812Y-79905624D01*
X128950784Y-79973544D01*
X129098354Y-80072147D01*
X129223853Y-80197646D01*
X129322456Y-80345216D01*
X129390376Y-80509188D01*
X129425000Y-80683259D01*
X129425000Y-80860741D01*
X129390376Y-81034812D01*
X129322456Y-81198784D01*
X129223853Y-81346354D01*
X129098354Y-81471853D01*
X128950784Y-81570456D01*
X128786812Y-81638376D01*
X128637512Y-81668073D01*
X128612742Y-81673000D01*
X128435258Y-81673000D01*
X128410488Y-81668073D01*
X128261188Y-81638376D01*
X128097216Y-81570456D01*
X127949646Y-81471853D01*
X127824147Y-81346354D01*
X127725544Y-81198784D01*
X127657624Y-81034812D01*
X127623000Y-80860741D01*
X127623000Y-80683259D01*
X127657624Y-80509188D01*
X127725544Y-80345216D01*
X127824147Y-80197646D01*
X127949646Y-80072147D01*
X128097216Y-79973544D01*
X128261188Y-79905624D01*
X128410488Y-79875927D01*
X128435258Y-79871000D01*
X128612742Y-79871000D01*
X128637512Y-79875927D01*
G37*
G36*
X131177512Y-79875927D02*
G01*
X131326812Y-79905624D01*
X131490784Y-79973544D01*
X131638354Y-80072147D01*
X131763853Y-80197646D01*
X131862456Y-80345216D01*
X131930376Y-80509188D01*
X131965000Y-80683259D01*
X131965000Y-80860741D01*
X131930376Y-81034812D01*
X131862456Y-81198784D01*
X131763853Y-81346354D01*
X131638354Y-81471853D01*
X131490784Y-81570456D01*
X131326812Y-81638376D01*
X131177512Y-81668073D01*
X131152742Y-81673000D01*
X130975258Y-81673000D01*
X130950488Y-81668073D01*
X130801188Y-81638376D01*
X130637216Y-81570456D01*
X130489646Y-81471853D01*
X130364147Y-81346354D01*
X130265544Y-81198784D01*
X130197624Y-81034812D01*
X130163000Y-80860741D01*
X130163000Y-80683259D01*
X130197624Y-80509188D01*
X130265544Y-80345216D01*
X130364147Y-80197646D01*
X130489646Y-80072147D01*
X130637216Y-79973544D01*
X130801188Y-79905624D01*
X130950488Y-79875927D01*
X130975258Y-79871000D01*
X131152742Y-79871000D01*
X131177512Y-79875927D01*
G37*
G36*
X133717512Y-79875927D02*
G01*
X133866812Y-79905624D01*
X134030784Y-79973544D01*
X134178354Y-80072147D01*
X134303853Y-80197646D01*
X134402456Y-80345216D01*
X134470376Y-80509188D01*
X134505000Y-80683259D01*
X134505000Y-80860741D01*
X134470376Y-81034812D01*
X134402456Y-81198784D01*
X134303853Y-81346354D01*
X134178354Y-81471853D01*
X134030784Y-81570456D01*
X133866812Y-81638376D01*
X133717512Y-81668073D01*
X133692742Y-81673000D01*
X133515258Y-81673000D01*
X133490488Y-81668073D01*
X133341188Y-81638376D01*
X133177216Y-81570456D01*
X133029646Y-81471853D01*
X132904147Y-81346354D01*
X132805544Y-81198784D01*
X132737624Y-81034812D01*
X132703000Y-80860741D01*
X132703000Y-80683259D01*
X132737624Y-80509188D01*
X132805544Y-80345216D01*
X132904147Y-80197646D01*
X133029646Y-80072147D01*
X133177216Y-79973544D01*
X133341188Y-79905624D01*
X133490488Y-79875927D01*
X133515258Y-79871000D01*
X133692742Y-79871000D01*
X133717512Y-79875927D01*
G37*
G36*
X136257512Y-79875927D02*
G01*
X136406812Y-79905624D01*
X136570784Y-79973544D01*
X136718354Y-80072147D01*
X136843853Y-80197646D01*
X136942456Y-80345216D01*
X137010376Y-80509188D01*
X137045000Y-80683259D01*
X137045000Y-80860741D01*
X137010376Y-81034812D01*
X136942456Y-81198784D01*
X136843853Y-81346354D01*
X136718354Y-81471853D01*
X136570784Y-81570456D01*
X136406812Y-81638376D01*
X136257512Y-81668073D01*
X136232742Y-81673000D01*
X136055258Y-81673000D01*
X136030488Y-81668073D01*
X135881188Y-81638376D01*
X135717216Y-81570456D01*
X135569646Y-81471853D01*
X135444147Y-81346354D01*
X135345544Y-81198784D01*
X135277624Y-81034812D01*
X135243000Y-80860741D01*
X135243000Y-80683259D01*
X135277624Y-80509188D01*
X135345544Y-80345216D01*
X135444147Y-80197646D01*
X135569646Y-80072147D01*
X135717216Y-79973544D01*
X135881188Y-79905624D01*
X136030488Y-79875927D01*
X136055258Y-79871000D01*
X136232742Y-79871000D01*
X136257512Y-79875927D01*
G37*
G36*
X139585000Y-81673000D02*
G01*
X137783000Y-81673000D01*
X137783000Y-79871000D01*
X139585000Y-79871000D01*
X139585000Y-81673000D01*
G37*
G36*
X165721512Y-79875927D02*
G01*
X165870812Y-79905624D01*
X166034784Y-79973544D01*
X166182354Y-80072147D01*
X166307853Y-80197646D01*
X166406456Y-80345216D01*
X166474376Y-80509188D01*
X166509000Y-80683259D01*
X166509000Y-80860741D01*
X166474376Y-81034812D01*
X166406456Y-81198784D01*
X166307853Y-81346354D01*
X166182354Y-81471853D01*
X166034784Y-81570456D01*
X165870812Y-81638376D01*
X165721512Y-81668073D01*
X165696742Y-81673000D01*
X165519258Y-81673000D01*
X165494488Y-81668073D01*
X165345188Y-81638376D01*
X165181216Y-81570456D01*
X165033646Y-81471853D01*
X164908147Y-81346354D01*
X164809544Y-81198784D01*
X164741624Y-81034812D01*
X164707000Y-80860741D01*
X164707000Y-80683259D01*
X164741624Y-80509188D01*
X164809544Y-80345216D01*
X164908147Y-80197646D01*
X165033646Y-80072147D01*
X165181216Y-79973544D01*
X165345188Y-79905624D01*
X165494488Y-79875927D01*
X165519258Y-79871000D01*
X165696742Y-79871000D01*
X165721512Y-79875927D01*
G37*
G36*
X168261512Y-79875927D02*
G01*
X168410812Y-79905624D01*
X168574784Y-79973544D01*
X168722354Y-80072147D01*
X168847853Y-80197646D01*
X168946456Y-80345216D01*
X169014376Y-80509188D01*
X169049000Y-80683259D01*
X169049000Y-80860741D01*
X169014376Y-81034812D01*
X168946456Y-81198784D01*
X168847853Y-81346354D01*
X168722354Y-81471853D01*
X168574784Y-81570456D01*
X168410812Y-81638376D01*
X168261512Y-81668073D01*
X168236742Y-81673000D01*
X168059258Y-81673000D01*
X168034488Y-81668073D01*
X167885188Y-81638376D01*
X167721216Y-81570456D01*
X167573646Y-81471853D01*
X167448147Y-81346354D01*
X167349544Y-81198784D01*
X167281624Y-81034812D01*
X167247000Y-80860741D01*
X167247000Y-80683259D01*
X167281624Y-80509188D01*
X167349544Y-80345216D01*
X167448147Y-80197646D01*
X167573646Y-80072147D01*
X167721216Y-79973544D01*
X167885188Y-79905624D01*
X168034488Y-79875927D01*
X168059258Y-79871000D01*
X168236742Y-79871000D01*
X168261512Y-79875927D01*
G37*
G36*
X173341512Y-79875927D02*
G01*
X173490812Y-79905624D01*
X173654784Y-79973544D01*
X173802354Y-80072147D01*
X173927853Y-80197646D01*
X174026456Y-80345216D01*
X174094376Y-80509188D01*
X174129000Y-80683259D01*
X174129000Y-80860741D01*
X174094376Y-81034812D01*
X174026456Y-81198784D01*
X173927853Y-81346354D01*
X173802354Y-81471853D01*
X173654784Y-81570456D01*
X173490812Y-81638376D01*
X173341512Y-81668073D01*
X173316742Y-81673000D01*
X173139258Y-81673000D01*
X173114488Y-81668073D01*
X172965188Y-81638376D01*
X172801216Y-81570456D01*
X172653646Y-81471853D01*
X172528147Y-81346354D01*
X172429544Y-81198784D01*
X172361624Y-81034812D01*
X172327000Y-80860741D01*
X172327000Y-80683259D01*
X172361624Y-80509188D01*
X172429544Y-80345216D01*
X172528147Y-80197646D01*
X172653646Y-80072147D01*
X172801216Y-79973544D01*
X172965188Y-79905624D01*
X173114488Y-79875927D01*
X173139258Y-79871000D01*
X173316742Y-79871000D01*
X173341512Y-79875927D01*
G37*
G36*
X170801512Y-79875927D02*
G01*
X170950812Y-79905624D01*
X171114784Y-79973544D01*
X171262354Y-80072147D01*
X171387853Y-80197646D01*
X171486456Y-80345216D01*
X171554376Y-80509188D01*
X171589000Y-80683259D01*
X171589000Y-80860741D01*
X171554376Y-81034812D01*
X171486456Y-81198784D01*
X171387853Y-81346354D01*
X171262354Y-81471853D01*
X171114784Y-81570456D01*
X170950812Y-81638376D01*
X170801512Y-81668073D01*
X170776742Y-81673000D01*
X170599258Y-81673000D01*
X170574488Y-81668073D01*
X170425188Y-81638376D01*
X170261216Y-81570456D01*
X170113646Y-81471853D01*
X169988147Y-81346354D01*
X169889544Y-81198784D01*
X169821624Y-81034812D01*
X169787000Y-80860741D01*
X169787000Y-80683259D01*
X169821624Y-80509188D01*
X169889544Y-80345216D01*
X169988147Y-80197646D01*
X170113646Y-80072147D01*
X170261216Y-79973544D01*
X170425188Y-79905624D01*
X170574488Y-79875927D01*
X170599258Y-79871000D01*
X170776742Y-79871000D01*
X170801512Y-79875927D01*
G37*
M02*
